/* XPM */
static char *_fa3475f750048238ca88f5633a526b82eweaZG6T5GtgfGV[] = {
/* columns rows colors chars-per-pixel */
"64 64 256 2 ",
"   c #030100",
".  c #0C0600",
"X  c #0D0901",
"o  c #000906",
"O  c #130C03",
"+  c #150602",
"@  c #19150A",
"#  c #1C1512",
"$  c #130E11",
"%  c #261909",
"&  c #351B03",
"*  c #2A1B15",
"=  c #261814",
"-  c #2D0900",
";  c #1B2513",
":  c #18280B",
">  c #2A220D",
",  c #32230B",
"<  c #242414",
"1  c #2C2313",
"2  c #2D2419",
"3  c #292A17",
"4  c #322515",
"5  c #352A14",
"6  c #392B15",
"7  c #352919",
"8  c #27321A",
"9  c #3E3412",
"0  c #3D3522",
"q  c #303537",
"w  c #1D263B",
"e  c #5F0700",
"r  c #580500",
"t  c #511C00",
"y  c #5A1A09",
"u  c #4D1104",
"i  c #72120A",
"p  c #5D3111",
"a  c #4B3216",
"s  c #742D04",
"d  c #7A2D04",
"f  c #792D08",
"g  c #762D07",
"h  c #793007",
"j  c #793109",
"k  c #773109",
"l  c #6F2F11",
"z  c #473824",
"x  c #513C27",
"c  c #712E2C",
"v  c #1B4E37",
"b  c #53530C",
"n  c #725914",
"m  c #745814",
"M  c #6C5110",
"N  c #4D6A00",
"B  c #516B00",
"V  c #566803",
"C  c #5C7301",
"Z  c #5A6116",
"A  c #517A1B",
"S  c #4A7514",
"D  c #667905",
"F  c #6A710E",
"G  c #795833",
"H  c #73572C",
"J  c #5C7025",
"K  c #7B6739",
"L  c #6A692E",
"P  c #4A4A36",
"I  c #3B3C49",
"U  c #233047",
"Y  c #1F3F6B",
"T  c #0A3071",
"R  c #243C70",
"E  c #433E51",
"W  c #3C4246",
"Q  c #305355",
"!  c #007443",
"~  c #007B46",
"^  c #00755A",
"/  c #007A59",
"(  c #0B6C51",
")  c #276348",
"_  c #1C4977",
"`  c #244B6A",
"'  c #345661",
"]  c #254378",
"[  c #325371",
"{  c #077765",
"}  c #246F79",
"|  c #276E76",
" . c #2C6C74",
".. c #484747",
"X. c #53554A",
"o. c #454A5B",
"O. c #5C5B59",
"+. c #4E5349",
"@. c #51634E",
"#. c #4F694F",
"$. c #756547",
"%. c #515968",
"&. c #840704",
"*. c #9F0000",
"=. c #970A0A",
"-. c #991B19",
";. c #841115",
":. c #AE0000",
">. c #AA0A0C",
",. c #B20001",
"<. c #B60808",
"1. c #BB0C14",
"2. c #AE1414",
"3. c #AE1918",
"4. c #B11516",
"5. c #B41919",
"6. c #B81719",
"7. c #A70C10",
"8. c #853409",
"9. c #962218",
"0. c #952C15",
"q. c #852714",
"w. c #881A27",
"e. c #812639",
"r. c #8F243B",
"t. c #872C22",
"y. c #BB2928",
"u. c #C40D15",
"i. c #C81418",
"p. c #CD0E10",
"a. c #CC1728",
"s. c #D51528",
"d. c #C22C29",
"f. c #D6282B",
"g. c #E42026",
"h. c #834C1A",
"j. c #954418",
"k. c #A85615",
"l. c #845935",
"z. c #81653A",
"x. c #836D27",
"c. c #877E0A",
"v. c #AB625F",
"b. c #AE6667",
"n. c #B86A73",
"m. c #A25B51",
"M. c #5B8602",
"N. c #50801C",
"B. c #6D850E",
"V. c #6F880E",
"C. c #678504",
"Z. c #718A0E",
"A. c #72880E",
"S. c #759309",
"D. c #6D8511",
"F. c #6D8811",
"G. c #728612",
"H. c #728911",
"J. c #7E9413",
"K. c #7E9A13",
"L. c #699206",
"P. c #788C2D",
"I. c #06825B",
"U. c #0E8562",
"Y. c #038968",
"T. c #118463",
"R. c #138867",
"E. c #189973",
"W. c #0D9372",
"Q. c #269E7B",
"!. c #289E7B",
"~. c #14A37C",
"^. c #4D8D79",
"/. c #9D8E03",
"(. c #869402",
"). c #9F9103",
"_. c #9F9309",
"`. c #839A14",
"'. c #849814",
"]. c #9F9B1A",
"[. c #8C8510",
"{. c #A29302",
"}. c #A2940A",
"|. c #A89B05",
" X c #A19A13",
".X c #90A719",
"XX c #B8A90D",
"oX c #8B9626",
"OX c #859526",
"+X c #8E8E26",
"@X c #89A324",
"#X c #91A723",
"$X c #8AB029",
"%X c #95B92A",
"&X c #ABA024",
"*X c #C4B319",
"=X c #C0AD21",
"-X c #A19E5D",
";X c #B29B64",
":X c #AFA770",
">X c #95A36D",
",X c #C3975C",
"<X c #D7A76A",
"1X c #D4A97B",
"2X c #CDAB76",
"3X c #E0AD74",
"4X c #C2D32A",
"5X c #0E3A88",
"6X c #153B83",
"7X c #043B91",
"8X c #14478A",
"9X c #224D82",
"0X c #2E5584",
"qX c #2E5689",
"wX c #22528B",
"eX c #315987",
"rX c #31598A",
"tX c #315686",
"yX c #2A5994",
"uX c #345B91",
"iX c #346296",
"pX c #35689A",
"aX c #227384",
"sX c #3C79AE",
"dX c #397BB1",
"fX c #337EBE",
"gX c #3368A6",
"hX c #0F49A2",
"jX c #4F6F96",
"kX c #4D69A9",
"lX c #4E68A6",
"zX c #4777AF",
"xX c #4676B3",
"cX c #C37982",
"vX c #219D80",
"bX c #0EB38E",
"nX c #14B08C",
"mX c #1EAA8C",
"MX c #5E9E94",
"NX c #4E8BCE",
"BX c #82A199",
"VX c #A7AB8C",
"CX c #A9A9A8",
"ZX c #AFB0B0",
"AX c #94ACAC",
"SX c #D4B682",
"DX c #C5B1B6",
"FX c #EEB382",
"GX c #CDC38F",
"HX c #ADB1C5",
"JX c #95B1C9",
"KX c #AAC5C6",
"LX c #B6D7E7",
"PX c #CDC6D5",
"IX c #D6D2EB",
"UX c #D4BECE",
/* pixels */
"oXoXoXoXoXoXoXoXoXoXoXoXoXoXoXoXoXoXoXoXoXoXoXoXoXoXoXoXOXoXoXoXoXoXoXoXoXoXoXoXoXoXoXoXoXoXoXoXoXoXoXoXoXoXoXoXoXoXoXoXoXoXoXoX",
"oX  O O O O X O + X O X X X O X . X O X   > @XS.M.D C.C.C.B X   + O O O O O O X X .     X   . + . . . . . . X X . . X X X O   oX",
"oXO 7 3 ; # ; ; 1 4 2 4 , % * > > % * 4 O 9 $X'.D.A.V.D.C.C 7 * 4 1 4 1 2 2 5 1 * * 3 < 2 < < * * 1 2 * * 2 2 2 2 1 2 2 3 7 @ oX",
"oXo < ; ; @ ; @ < * 1 1 % + % % % - % - + a $X'.D.Z.H.F.C.C 4 = 1 1 > 1 1 < > p m l l l l s & $ = # = = % # = * 1 1 * 1 * 4 # oX",
"oX-.-.3.9.9.=.=.t 3 4 & ..pX[ [ [ [ [ [ Y Q '.J.D.B.H.H.C.C > = 1 4 4 4 5 5 < M k.8.8.8.8.i n P.J F F F J F D b 1 4 5 5 5 6 % oX",
"'.s.i.u.i.a.p.p.y 8 5 & %.NXgXgXgXgXpXpXhX[ #XJ.B.B.H.F.C.C 1 = 1 5 6 6 6 5 7 l j.k s s s e F %X.X`.K.K.`.K.S.C 4 5 5 6 6 6 > oX",
"+X1.4.2.2.3.>.:.y 8 7 & Q xXtXtXtXtXtXeX5X' .X'.B.V.H.D.C.C > = , 5 6 6 6 4 4 l j.j j j s e n $XF.D.B.B.H.F.C.N 4 4 6 5 5 6 > oX",
"oXu.5.4.4.5.1.:.y 8 6 & o.xXuXtXeXeXrXeX5X' #XJ.D.B.H.G.C.D 1 # < 5 5 7 5 4 1 H j.h j j s e n $XH.D.F.H.H.H.C.N 4 4 6 6 5 6 * oX",
"oXu.3.2.2.3.2.,.y 8 6 & o.xXuXqXrXrXrXeX5X' #XJ.F.F.G.G.Z.V : $ : ; 8 ; 3 8 : M j.j g j s e n $XH.B.H.Z.A.G.D N 4 7 5 5 5 6 > oX",
"oX1.4.4.4.4.1.,.u 8 , & o.xXuXqXqXeXrXeX5X' #XJ.D.F.H.G.M.C t.9.f w.q.q.t.i i t.h.f j j s e n $XH.B.A.B.H.B.C.V * * 5 5 5 5 % oX",
"oX,.,.,.,.,.<.,.u O & - Q xXuXqXrXqXrXeX5X' .XJ.B.V.G.G.M.C f.g.i.i.i.i.i.p.,.0.m j f j s e n $XJ.D.H.Z.H.D.S.V - + & u & , - oX",
"oXn.b.b.b.b.v.m.X.( ) v [ zXrXqXeXqXuXeX5X' #X'.B.V.G.G.M.C y.a.2.4.4.6.3.7.:.0.h.j j j s e n $XG.D.B.H.H.B.D V Q ) ) ) ) ) v oX",
"oXLXKXKXKXKXKXZXMXnXW.I.| kXuXeXqXrXrXeX5X' #XK.D.V.F.G.M.C d.a.4.2.4.4.6.>.*.0.h.f f j g e n $XH.D.D.H.G.Z.D A mXnXW.E.E.~.Y.OX",
"oXHXCXCXCXZXCXVXMXW.Y.! } kXrXeXrXtXrXeX5X' .X`.B.B.H.G.M.C d.a.4.2.4.4.6.>.*.0.h.f f 8.g e n $XJ.D.F.H.H.F.F A mXW.U.U.R.R./ oX",
"@XIXKXKXKXKXKXZXmXE.T.! | kXuXeXrXrXeXeX5X' #X(.S.S.S.S.M.D d.i.4.2.2.4.6.2.*.0.h.f f j s e n $XG.B.H.D.H.H.F N.W.Y.I.I./ / / oX",
"@XcXb.b.b.b.v.m.^.~.T.! | kXuXqXrXeXrXeX5X' +XL J J J L S Z d.s.2.2.4.4.5.>.*.0.h.f f j s e n $XJ.B.Z.Z.H.G.D N.MXMX^.^.^.MX^.oX",
"oX,.,.,.,.:.,.:.X.bXT.! | lXiXqXqXeXrXrX8X] O.o.I I E E U w d.f.2.2.4.4.5.>.:.8.h.h h j s e n $XH.D.G.H.H.H.N P.IXPXDXDXDXDXDX+X",
"oXi.4.4.4.4.<.,.@.bXT.! } lXrXqXqXqXrXeX_ ] O.X.I ..o...q q d.i.2.2.4.4.5.7.*.0.h.h k j s e n $XH.D.F.H.H.H.B L PXDXCXVXZXCXCX+X",
"oXi.3.3.3.3.<.:.@.bXT.! } kXuXqXeXrXrXeX] [ O.X.........q q d.f.2.2.4.4.5.>.*.0.h.h k j s e n $XH.B.H.F.H.H.N P.UXUXDXDXDXDXZX+X",
"oXu.3.2.4.3.1.:.@.bXT.! } lXuXeXqXeXrXeXR ] O.X.........I q d.i.2.2.4.5.5.>.=.0.h.h k k s e n $XJ.B.G.Z.H.G.C J KXAXMXBXBXBXMXoX",
"oXu.4.4.4.3.<.:.@.bXT.! } lXuXqXrXrXuXtX8XR O.X.........q q d.i.2.2.4.4.5.>.:.0.h.h d j s e n $XG.D.F.H.H.D.F C W.Y.I.I.U.I.^ OX",
"oXu.3.2.4.5.1.:.@.bX{ ! } lXuXqXrXtXuXtX8X` O.X.........v 0 d.f.2.2.4.4.5.>.*.0.h.k k j s e n $XH.D.V.V.G.F.F A vXW.I.I.T.U.^ oX",
"oXu.4.4.3.5.>.:.@.bX{ ! } kXuXqXtXtXtXtX6X[ O.X...P ....W q y.i.2.2.4.4.5.>.*.0.h.h j j s e n $XJ.D.F.G.H.F.D A vXW.T.T.R.R./ oX",
"OXi.4.4.3.5.>.:.@.nXT.! } kXuXqXrXrXuXtX] ] %.X.E E E E U q d.f.2.2.4.4.5.>.*.0.h.h j j s e n $XH.D.H.H.H.F.D A vXW.U.T.T.R.^ oX",
"oXu.5.2.3.5.<.:.#.bXI.! } kXuXqXrXrXrXtX8X` $.X.P P +.+.q 0 d.s.3.2.4.4.4.>.:.0.h.h f j k e n $XH.B.Z.G.A.A.D A vXW.U.U.T.R.^ oX",
"oX6.5.2.2.5.1.:.@.bXT.! } kXuXqXtXrXrXtX5X' #X`.Z.S.S.A.M.D d.d.2.2.4.4.6.7.*.0.h.h g j s e n $XJ.B.B.Z.A.A.F A vXvXU.T.R.R.^ oX",
"oXu.5.2.4.5.1.:.@.bX{ ! } kXuXqXqXrXrXrX5X' .X(.Z.Z.S.A.M.D y.a.2.2.4.4.5.7.*.0.h.h h j s e n $XH.D.B.H.A.Z.F C vXW.{ T.R.R.^ oX",
"oXu.4.2.4.5.>.:.@.bXT.! } lXuXqXrXrXrXeX5X' .XJ.D.G.G.G.M.C y.a.2.4.4.4.5.7.*.0.h.h j j s e n $XH.D.Z.H.H.B.D A vXW.U.T.R.R.^ oX",
"+X1.5.2.2.5.<.,.@.nX{ !  .lXuXtXtXeXeXeX6X' .XJ.B.A.F.G.M.C d.a.2.3.3.3.3.>.:.0.h.f g j g y n $XJ.D.V.Z.H.F.D A vXW.U.U.R.U.^ oX",
"+Xi.u.1.1.6.<.,.#.bXY.! aXxXuXuXyXyXyXuX7X' %X`.Z.Z.J.H.M.D f.s.1.1.1.1.6.<.:.0.h.d d h s e n %XH.H.S.Z.H.S.D N.nXvXY.W.W.W./ oX",
"+Xu.7.=.7.7.>.:.@.bX/ !  .uXtX9X9X9X0X9XT ` `.Z.D C.D D N B 5.u.7.7.7.*.7.:.&.q.j s y s y r M K.B.D D M.C.M.V S W.{ ^ / U.{ ^ oX",
"+Xl.G G G G G l.K $.L K $.$.$.$.$.$.$.$.$.$.z.z.K z.K K L L z.G H H G G H z.l.z.K z.z.z.z.l.z.K K $.z.z.H l.G H L $.K G L X.L oX",
"#X:X:XSXSX:X:X:X;X,X<XFX1X,X,X,X<X<X<X<X<X1X1XSXSX1X2X1X1X;X:X:X:X;X:X:X:X2XGX2XSXSXSXSXSXSX1X2XSXSXSX1XSXSXSX<X<X3X<X<X,X,X1X+X",
"OX3 x x x x x z z 0 z x x 0 0 0 0 z 0 z z z z z z z z z x a x z z z z z z z z b z z z z z z z z z x a X.MXlXlXjXjXjXlX%.7 a 0 oX",
"+X  O O O O O O O O O O O O O X . X X X X . . X . . X X X @ O O O O O X X .   O . . . . $ . .   . O   w sXyX8X8X9X6X6XT . O   oX",
"OXO 5 5 3 5 4 1 2 4 1 4 2 < 3 3 3 < < 3 3 3 4 2 2 2 2 2 2 2 2 2 2 1 4 4 2 2 2 = 2 * * * * * 2 2 2 4 % I zXiXtXuXuXtXuXR 1 , = oX",
"OXO 2 > 1 1 > 1 1 > > * 3 ; < ; ; ; ; ; ; < 3 > * > * > > * 1 > > > * * 1 1 @ # = # # = = # % 1 * 1 - W zXiX0XqXuXtXwXY * , @ oX",
"+X+ 1 1 > 1 1 4 5 4 5 : c d.-.-.-.-.-.-.=.i 3 4 4 5 5 5 5 4 5 4 5 4 5 6 1 * x.&Xc.c.c.c.c.[.b * 4 7 , q zXiXqXqXrX0XwXY < , # oX",
"oXO 2 1 1 1 6 7 6 6 6 : 0.g.i.i.i.i.i.i.p.*.8 7 6 6 6 6 6 6 6 6 5 6 6 6 4 % &X4XXXXXXXXXXXXXn % 7 6 , W zXiX[ rXrXtXwXY < & # oX",
"OXX 5 4 4 3 5 5 6 6 6 : t.f.5.2.4.4.4.4.:.&.3 7 6 5 5 5 5 5 6 4 5 5 6 6 4 * }.*X_./._./././.b * 6 6 & W zXiXtXrXrXtXwXY 1 , @ oX",
"OX+ 0 6 6 5 5 6 4 6 4 : t.g.6.4.4.4.3.4.,.&.8 5 6 4 6 6 6 5 6 6 5 5 5 6 4 = +X*X|.}.}.}./.{.M * , 6 & W zXiX0XqXuXtXwXY = , # oX",
"OX+ 6 6 5 6 5 5 6 6 6 : t.f.5.2.4.4.5.2.,.&.8 7 6 6 6 4 6 5 6 6 6 5 6 6 4 = +X*X}.}.}.|.{.{.b * 6 6 , I zXiX0XqXrXeXwXY > > # oX",
"OXO 6 5 5 6 5 5 6 6 6 : t.f.6.4.4.4.4.4.,.&.3 7 4 , 4 4 4 6 6 4 7 6 5 6 * * _.*X).).}.}.{.{.b # 5 5 & W zXuX0XqXrXrXwX` = & % OX",
"oX@ 8 2 2 3 3 3 3 3 8 : c g.6.5.4.4.4.4.,.&.; < a 6 = = * * = = = % * * = O [.*X/./.{.{./.{.b o : 8 : W zXpXtXqXrXeXwXR - - - OX",
"OXp p p p p p p p p p , 9.f.5.4.4.4.5.2.<.&.< 3 4 6 L F Z Z Z Z Z Z Z Z b b >XGX-X-X-X;X-X-Xl.;.c q.i c dXiX0XqXrXqX9X_ ) ) v $X",
"oX8.8.8.8.8.8.8.8.8.8.y 9.f.5.2.4.4.4.4.,.&.; 3 = 0 %X%XJ.K.K.`.`.`.K.`.L.C CXIXHXHXHXHXHXJXb.g.p.i.p.r.dXiX0XqXrXuXR _ mXmXY.oX",
"oXd k d k d s d k j d t 9.f.6.4.4.4.3.4.,.&.< 2 4 9 @XK.B.B.D.F.B.B.Z.H.M.N VXPXCXCXCXZXCXAXm.p.5.7.:.c dXiX0XqXrXrXR _ !.E./ oX",
"+X8.k d k h h h k j g t 9.f.5.2.4.4.5.4.<.&.O % - 9 @XK.D.B.D.A.Z.B.Z.G.D N VXPXCXCXCXCXCXAXb.6.5.2.:.r.dXiX0XrXrXrX] ` !.E.Y.oX",
"oX8.f f h k h j j j s t 9.f.5.3.4.4.5.2.,.;.Q Q U W OX`.D.Z.A.Z.F.H.H.H.C N VXIXCXCXCXZXCXAXv.i.6.2.,.e.dXiX0XqXqXqX] _ Q.E.I.oX",
"oXf j g f k j g j j s t 9.f.6.2.4.4.4.4.,.w.NXxX5X0X@X`.D.V.B.H.H.H.H.H.C.N VXPXCXCXCXZXCXAXv.p.6.2.,.e.dXiX0XqXrXrX] _ Q.~.( OX",
"oXj j k k h g j j j d t 9.f.5.2.4.4.4.3.,.w.dXpX5X` @X'.D.G.F.V.F.F.H.H.D N VXPXCXCXAXZXCXAXv.p.5.2.:.e.sXiX0XqXrXrX] _ !.E./ P.",
"oX8.j g f j j k j j s t 9.f.6.2.4.4.4.2.,.w.dXpX6X` @X'.D.B.Z.G.H.H.H.H.D N AXIXHXHXHXHXZXJXb.p.6.2.,.e.sXiX0XqXrXrX] _ !.E./ P.",
"oX8.j g j j d k k j g t 9.f.5.3.4.4.4.4.:.w.sXpXR _ @X'.B.B.H.V.F.H.Z.H.B.N :XGXVX:XVX:X:XBXm.p.6.2.:.e.dXiX0XqXrXuX] ] !.E.I.K.",
"oXf j f j k j h k k g t 9.f.5.2.4.4.3.4.:.w.sXpX6X` @X`.B.V.H.B.H.F.Z.H.D B _.XXc.{./././.(.k.s.5.2.,.e.dXiX0XqXrXuX] _ !.E.^ OX",
"oXf j g f f k k k j g t 9.f.5.4.4.4.4.4.:.w.sXpX6X` @X`.B.V.F.H.V.H.Z.H.D V }.=X{.{.{.{.).(.k.a.6.2.,.e.dXyX .0XrXrX_ _ !.E.^ OX",
"oXf j f k j j f f j g t 9.f.5.4.4.4.4.3.:.w.sXpX6X` oX`.D.B.H.V.H.H.Z.H.D V ].=X}.}.}.}._.(.k.a.6.2.:.e.NXqX0XqXrXrX] ] !.E.^ oX",
"oXj k d k d k f j j g t 9.f.5.3.4.4.3.4.,.w.sXpX_ ` @X`.D.V.Z.H.V.H.H.H.B.B ].XX_._.}.}.).(.k.a.5.2.,.e.sXiX0XqXrXrX] _ Q.E./ oX",
"oXj j g k j h j j j g t 9.f.6.2.4.4.4.4.,.w.sXpX5X` oX`.D.V.G.D.H.V.Z.H.D N &X=X}._.}.}./.(.k.a.6.2.,.e.dXiX0XqXrXrX] _ Q.~./ oX",
"oXf j g j g f k j j g t 9.f.6.2.4.4.4.4.,.w.sXpX6X` @X`.D.B.H.Z.B.B.Z.H.C.B ].=X}._.}.}.{.(.k.s.6.3.,.e.dXiX0XeXrXrX_ _ !.E.^ +X",
"oXf k d j j j k j j g t 9.f.5.2.4.4.4.4.,.w.sXpX6X` oX`.D.V.D.Z.H.H.Z.H.D N ].=X}._.}.}./.(.k.s.6.2.,.c dXiX0XqXrXrX] _ !.E./ oX",
"oXj j f h j j f k j s t 9.f.5.3.4.4.4.3.,.w.NXpX6X` @X'.D.V.V.Z.Z.V.H.H.D N ].=X}._.}.}._.(.k.a.6.3.,.e.dXiXqXqXuXrX] _ !.!.~ oX",
"oXj j j k h k j k j s t 9.f.5.3.4.3.5.3.,.c aXpX6X` `.'.F.V.F.H.H.H.H.H.D.N ].=X_.}.}.}._.(.k.s.6.3.:.e.dXiX0X0XrXtX] _ !.E.^ oX",
"oX8.f f d s d s f d s u -.g.6.1.1.1.1.1.,.w.NXyX5X_ #X`.V.Z.Z.Z.Z.S.H.S.M.C ].*X|.|.|.|.{.(.k.s.u.1.,.e.fXgXwXyXyXyX_ _ mX~./ oX",
"oXoXoXoXoXoXoXoXoXoXoXoXoXoXoX+XoXoXoXoXoX+XoXoXoXoXoXoXoXoXoXoXoXoXoXoXoXoXoXoXoXoXoXoXoXoXoXoXoXoXoX+XoXoXoXoXoXoXoXoXoXoXoXoX"
};
