/* XPM */
static char *_98df41ca07d45a787f248c9c26bc349DJJJe0xl0vsniYkt[] = {
/* columns rows colors chars-per-pixel */
"64 64 43 1 ",
"  c #343434",
". c gray22",
"X c #3C3C3C",
"o c #414141",
"O c gray28",
"+ c gray29",
"@ c #4E4E4E",
"# c #505050",
"$ c #555555",
"% c #5B5B5B",
"& c #5D5D5D",
"* c gray38",
"= c #676767",
"- c DimGray",
"; c #6C6C6C",
": c #717171",
"> c #747474",
", c #7B7B7B",
"< c gray49",
"1 c #808080",
"2 c gray52",
"3 c #888888",
"4 c #8E8E8E",
"5 c gray57",
"6 c gray58",
"7 c #989898",
"8 c #9F9F9F",
"9 c #A2A2A2",
"0 c gray65",
"q c gray66",
"w c #AEAEAE",
"e c gray69",
"r c #B4B4B4",
"t c gray73",
"y c gray",
"u c #C1C1C1",
"i c #C5C5C5",
"p c #C8C8C8",
"a c #CECECE",
"s c LightGray",
"d c #D7D7D7",
"f c gainsboro",
"g c gray87",
/* pixels */
"<<<-*=*=**$6yeewqqe7,<1<;:-,wqqq09002,<1;*==%@$#$%%$&:;=>0q0qeee",
"<<<-**=&&&#5yeewqqr8,11,;;=,wwwq99903><1;&*=%@##$&%%*;-=>qq0qerr",
"<<<-*==*&&$5yeewqwe7,<2,-;=>qwwq99002,11;**=%###$&%$&;;*>qw0qeee",
"333=&*%5q880ewe82461=-*,09984334qewe62443234:$*&***$:97872222333",
"344=&*%7yeewwwr6,13>**%>terq11<2etet73545668<%*==**%>eqw9,,,,,,>",
"343=%*%6rwqwwqe8134<*=&,eqw92223wrer63444446>&***=*%>w0q8<<<<111",
"454=$%#7tweeeet8134<=-&,eqw02212rtrt73455456,&****=%>eww9,,<<1<1",
";-;3655322234342113:#$+;rwq04445434421212325:@%%&-**->>:>5555211",
"%%%8ewe1->:>,,><1<2;+#o=ewq06665,>,><<<<1224-@##%=*=*$%@=8887212",
"**&6q902>,,<<11<113;@#O-eqw05565<<111<<<2224;@%#%=*==**&-6776212",
"*&*8eww1;>><11<1113:+#o;teew6676<<<<111<2446:@$$$%%$&**&;9998333",
"***><,,25552<<1,>><-@$@*6554333333331<11:=--*$$@;6461&*&=>,>>===",
"=**%$$@4w904><<>;::=#%#*<,>,1<<156562,12*O@@#&$+,yey8$*=*%%%%@++",
"****=*&49782,<<,::>-#$#*211<111155451<<2=@$$$%%@>e0w5%*******##$",
"%%%$$#@5rqw5<23<:><-#%#*3221121178784235&XOO+@@.:twr7$%&&**=*@@@",
"<<<2323<>,,:----*==&$$#&,>>>1111::::;---,111<>,>27573;:>:*******",
"990ettu=.+O@##@####$$%#%==*=112<+XOo@#@X5atye90w5:>,<2131*&*=>>>",
"7670qwe-+$$$$$$$$%$$$$#&--=-111<#@@@#$#+3r0w97785<<<1<11<****;::",
"666wrey-o##@O+O+++++OOo#;--;2342#O+@Ooo 2yqw08805><<<112,%%%&:::",
"0997778:%*&:<>,>:::>>,,>*==-:;:;%$%$:2,<6q00834542222<<1<:;::;;-",
"rrr1;>>>>>;9ptueqwweytp0$**&##@#;;-*rfsde6894>,,25554<<<14453-==",
"eee2,,1>::-7teeq9990wwt7%*=&$$$$=-=*qayiw7894,<<25553<1<13232-=-",
"ttt1:<<>>>;7terw000wtru8$&&%$$#$=-=&rfase89q5><,26554,<<<4454;=-",
"8992<11:-;=5rqq9777799q5*-;-$%%%===*6w0q86774111344432122<,<,-**",
":::2434-$%#10794,11<:::>212<**=*****&$%#;1<>3645423246673%%%%$$%",
">>>2333-%%$20894,11<,,,,1<1<***********&>21<2544333235563%%&%%%%",
",>>3434-#%#3e0q72232<1<1213<&%&&%%%&&&&%>3213666534347794&&&&%$$",
">>,1223;&*%17562>,,,:>::,,,>==--;;;;-=-*:<,>1323222223241&%&&&&&",
",,,>,>>>>>,&@$$#+@@++@+@$$#&44340wqw4,13;$&%&**&->:>-@@#$&&&&===",
">,,>>>,>>>,*@#$@++++++O@$#@&4434qqwe4,13-$&%&=*&-::,-+@@#&&%&--=",
"<,,:>:>;::>%@@#@O++++++@#@+$34230qqq3>12-#%$*=**-:;>=@@@#&&%&=-=",
">,,,,,,,,><=$%&$@@@#@@+#&%$*34240qqw4<23;%&***=*->:,;$$#%&&&&===",
"=&*7w000000000w5,<2:%&@:ewq06666qqwqqqqq6346<=-=<97763342==*=***",
"&&*9rwwwwwwwwer8,24>$&#>yrrw76770wqqwqwe85671=;=<08974563**==*=*",
"*&*8ewwqqwwqqwr6>12>%&#>reew7777qwqqqqqw84571=-*<08974453****&&&",
"***9eqqwqqqwqqe7,12:%&#>teew6667qqqqqqqw7457<=-=198974452**==***",
"*&*1322344432323446>+#@%>:::,>><0wqqqqqe3-::,<<1;$%%&--=:9998888",
"=**><,,1212<>,>2547>O@+#*&&*;:-:0eqqwqwr1&-*>214;Xoo+*&#-rreweee",
"***<2112333111<2547,O@@$====>>:>qwwqqqqr2*;->213;O@+$**%-wqqqqqq",
"=*=<31223331<<,4758,o@+$====>>;>wterewwt2&-*,324:O++@&%#-qwwqwww",
"$$$===*<4332<<2:%***&%%&*=*=-;-;;;;;2434<,,<;$&&&%&#;7767qwqq434",
"#@@$$#@<5332<13*.Oo#-===**&*----#@@+;1,><214=X+o#==%,ytrrqqqq<,<",
"#$#%%%$<5342<<3=+#@%=&****&*-=--%%%$>2111<13=O@@$=&$>eqqqqqwq2<1",
"###%%%$27553225-o@+#%%%$$%$%===*$$$#,4222214-o@@#$$+;teeewweq211",
"$#$&&*&-----=--*$%$;53345554,>,,;--;=***-;;:=$%#:7555665677871<1",
"$$%&**=#+@@#$$#&-=%1rwweyyur2222,>>,$o+O$*&&*-=$2pyiq,<<144441<1",
"$$$****%#%$$%%%&=*$,q090eweq1121>:>,%@##&=****=$<ter9122355651<1",
"$$$$$$%+O++@#@+%-*%<rqqqewtq1<11-=-;@.XX$-*****$1yet012136665322",
"&%%,211,>,>,,,<-%&$:7546wqw0323345551,<1;&=*=**$<twe912224343:;;",
"=&*8eqqq000099e<+$#*<>:109985555rtrrttyp2#*****$<rqw811221221$@$",
"*&&608977777779,@%#=1<,2q0085445qwwqqqqr<$*****%<rqe811212221&$%",
"%$$60788788777q>+$@=31,4reew6657rrrreewy<#&&&=*#1yet0<2222232&$&",
",>,899065666557,$*%=>:;,22121<<167767879<=;;-**%>977623221221%$%",
"qwqqq0q63443223,=-;=&&*$XOo+**&*;;;-<1111113:&**->::,4333<<1<$#$",
"099000q63543234>*--=***&@@+#-===>>>:12221,<1:&*&;<,>,33331<1<$#%",
"qwwqqww52443324,&==*%&*$++O@-===>>,>24341<<2:&*&;1<,155542232%##",
"555899965564123,=-;---;=%%%&=**=:;;:,,>,<1<1:&**-,>>><,,,>>,:&$%",
"*&&2432700q4>1<,>>>,2121122<%%&%&&&&$%%#:212:&**=;;;=@#####@#---",
"=**2533809q4,11<:>:>111<112,%%&&*&*&&%%$:212:&**=-;:=#$$$$$$$*==",
"*&*47650qqw4><<,:>:,3222112,$#$$&%%%%$%#>323>%***---&+@+#$$$%***",
";;;<21168884<11<>>>,,,>,<,,>-=-=*===**=&;<,<;***-,>,:**=*%%$%---",
"333%@##;,>>13332<<3:@$#%-=*:qq001<<1<112*O@+&;-*1w090wwe8&&**<21",
"243&+#@;,>:13332113:@$#%==&:0qq02<111113*O@+&;-&1w000wwr9***=121",
"232&@$#;<>>14331<12;#$#%--&:00091<<11113*+#+&:-*<w990wqe8&&&=121"
};
