/* XPM */
static char *dummy[]={
"64 64 213 2",
"#U c None",
".c c #7856ff",
"#Q c #7857ff",
".b c #7957fe",
".S c #7957ff",
".P c #7958fe",
"#R c #7958ff",
"#m c #7a58fe",
".O c #7a59fd",
".5 c #7a59fe",
".a c #7a5afd",
".k c #7b5afc",
".V c #7b5afd",
"ay c #7b5bfc",
"#h c #7b5bfd",
"#r c #7c5bfc",
"aN c #7c5bfd",
".m c #7c5cfb",
".T c #7c5cfc",
"#t c #7c5cfd",
"bi c #7c5dfb",
".z c #7d5dfa",
"am c #7d5dfb",
".3 c #7d5dfc",
"at c #7d5efa",
"aQ c #7d5efc",
".K c #7e5ef9",
"#V c #7e5efb",
"aF c #7e5efc",
"## c #7e5ff9",
".p c #7e60f9",
"bm c #7f60f8",
"aD c #7f60fa",
".l c #7f61f8",
"ap c #8061f8",
"#. c #8061fa",
"aW c #8061fb",
"bk c #8062f9",
"#s c #8062fa",
"ag c #8162fa",
".B c #8163f6",
"b# c #8163f7",
"a2 c #8163f8",
"bl c #8163f9",
"#4 c #8163fa",
"bp c #8164f6",
"ac c #8164f7",
"a0 c #8263fb",
"#P c #8264f9",
".v c #8265f5",
"aa c #8265f6",
"#2 c #8265f8",
".2 c #8365f9",
"aJ c #8365fa",
"bs c #8366f4",
"#a c #8366f8",
"ah c #8467f7",
"#T c #8467f8",
"aA c #8467f9",
".n c #8468f3",
"aH c #8568f8",
"aI c #8568f9",
".I c #856af2",
"al c #856af3",
"aL c #8669f7",
"#3 c #866af5",
"aB c #866bf1",
".4 c #866bf2",
"#X c #876af9",
"#y c #876bf5",
"#7 c #876bf6",
"bj c #876cf4",
"#0 c #886cf9",
"bo c #886eef",
".N c #896fed",
".Q c #896fee",
"#5 c #896ff0",
"#W c #8a70f2",
".M c #8a71ed",
"#I c #8b71f4",
"a6 c #8b72ef",
".d c #8b73eb",
"aT c #8c72f6",
".i c #8c74eb",
"#H c #8c74ee",
".C c #8e76ea",
"#g c #8f76f1",
".Y c #8f77f1",
".U c #9077f1",
"a1 c #9079eb",
"br c #907ae7",
"aV c #9178f3",
"aU c #9179f3",
".# c #917be7",
".R c #917be8",
"bn c #917ce5",
".j c #917ce6",
".1 c #937bef",
"aO c #937bf0",
"ai c #937cec",
"#6 c #937cef",
"#q c #937dea",
".A c #937ee5",
"#L c #947fe7",
"ad c #957eee",
"a9 c #957fec",
"aE c #9581e4",
"#k c #9680ed",
"ba c #9682e5",
".J c #9683e1",
".X c #9782ed",
".w c #9785e0",
"#D c #9985e8",
"a. c #9986e2",
"bg c #9987e3",
".L c #9a89dc",
"#1 c #9b88e6",
"#M c #9b89e1",
".y c #9b8add",
"#O c #9b8ae1",
"#S c #9c88ec",
"a4 c #9c8ae1",
"#N c #9e8ddf",
"be c #9f8de8",
"a3 c #9f8fde",
"#o c #9f90d9",
"#l c #a090e2",
"aX c #a18eed",
"#G c #a192dd",
"#f c #a290e6",
"#E c #a394dc",
"#v c #a496de",
"aR c #a594e9",
"#w c #a597dd",
"bh c #a598d7",
"aP c #a697e5",
"ab c #a69ad6",
".F c #a69cd1",
"aG c #a799e0",
".H c #a79cd1",
"#x c #a89bdd",
"a5 c #a89cd7",
".u c #aaa2cd",
"bb c #aba0d4",
"a# c #aba1d2",
".o c #aba2cc",
"#8 c #aca2d2",
"#F c #aca2d3",
".E c #aca4ca",
"#p c #aca4cc",
"#j c #aea1df",
"aS c #aea1e6",
"#K c #aea3dc",
"#u c #aea4d6",
".s c #aea6ca",
".r c #b1abc7",
"bq c #b2adc4",
"#n c #b2aec5",
".6 c #b3a9dc",
".t c #b3aec5",
"ao c #b4a7e8",
"bf c #b4aecc",
"#b c #b5acdb",
".D c #b5b2c1",
"af c #b6add8",
".q c #b6b3c2",
"a8 c #b7b3c9",
"#c c #b8afda",
".9 c #b9b1d9",
"b. c #b9b2d6",
".e c #b9b7bd",
".h c #b9b7bf",
".G c #b9b8bf",
"bc c #bab7c7",
".x c #bab9bc",
".g c #bababe",
".W c #bbb4d7",
".f c #bbbbbb",
"#i c #bbbbbd",
".8 c #bcb5d7",
"#A c #bcbbc1",
"Qt c #bcbcbc",
"#Y c #bdb3e7",
"bd c #bdb7d4",
"#C c #bebdc0",
"#B c #bebec0",
"#e c #bfb9d5",
"#z c #bfbfbf",
"#9 c #c0c0c0",
"a7 c #c1c1c1",
"aM c #c6c6c6",
"as c #c6c6c8",
"aj c #c9c8cc",
"#J c #c9c8ce",
"#d c #c9c8cf",
".0 c #cac8cf",
"aK c #cacaca",
"ae c #cbcbcb",
"an c #ccc4ec",
"ax c #ccc8dc",
".7 c #cccbce",
"ak c #cccccc",
".Z c #cdcdcd",
"aw c #cfcfcf",
"az c #d0d0d0",
"aq c #d1cedc",
"aC c #d1d1d1",
"aZ c #d2d2d2",
"ar c #d3d1da",
"#Z c #d5d2df",
"aY c #d5d5d6",
"au c #d7d7d7",
"av c #d8d8d8",
"QtQtQt.#.a.b.b.b.b.c.b.b.c.c.c.c.c.c.c.c.c.c.c.c.c.d.e.fQtQt.g.h.i.j.k.c.c.c.c.b.b.l.m.b.c.c.c.c.c.c.c.c.c.c.n.o.p.c.c.c.c.c.c.c",
".q.r.s.t.u.v.b.b.b.c.c.c.c.c.c.c.c.c.c.c.c.c.c.c.c.w.x.fQtQtQt.g.y.k.c.c.c.c.c.b.c.c.c.c.c.c.c.c.c.c.c.c.c.b.b.z.b.c.c.c.c.c.c.c",
".A.B.v.i.r.C.b.b.b.c.c.c.c.c.c.c.c.c.c.c.c.c.c.c.c.B.D.E.F.G.H.u.I.b.b.c.c.c.c.b.b.c.c.c.c.c.c.c.c.c.c.c.c.b.b.c.c.c.c.c.c.c.c.c",
".J.b.b.K.L.M.m.c.c.c.c.c.c.c.c.c.c.c.c.c.c.c.c.c.c.B.N.b.O.P.k.Q.O.b.b.c.c.c.c.b.b.c.c.c.c.c.c.c.c.c.c.c.b.c.c.c.c.c.c.c.c.c.c.c",
".R.c.c.b.O.c.c.c.c.c.c.c.c.c.c.c.c.c.c.c.c.c.c.c.c.c.b.b.b.b.b.O.S.b.S.c.c.c.c.S.c.c.c.c.c.c.c.c.c.c.c.c.c.c.c.c.c.c.c.c.c.c.c.c",
".T.c.c.c.c.c.c.c.c.c.c.c.c.c.c.c.c.c.c.c.c.c.c.c.c.S.b.b.b.b.b.U.P.b.b.c.c.c.c.b.c.c.c.c.c.c.c.c.c.c.c.c.c.c.c.c.c.c.c.c.c.c.c.c",
".c.c.c.c.c.c.c.c.c.c.c.c.c.c.c.c.c.c.c.c.c.c.c.c.c.c.c.b.b.b.V.W.X.b.b.c.c.c.c.b.c.c.c.c.c.c.c.c.c.c.c.c.c.c.c.c.c.c.c.c.c.c.c.c",
".c.c.c.c.c.c.c.c.c.c.c.c.c.c.c.c.c.c.c.c.c.c.c.c.c.c.c.c.S.b.Y.Z.0.1.2.3.c.c.S.b.b.c.c.c.c.c.c.c.c.c.c.c.c.c.c.c.c.c.c.c.c.c.c.c",
".4.c.c.c.c.c.c.c.c.c.c.c.c.c.c.c.c.c.c.c.c.c.c.c.c.c.c.c.c.5.6.Z.Z.7.8.9#..S.S.b.b.b.c.c.c.c.c.c.c.c.c.c.c.c.c.c.c.c.c.c.c.c.c.c",
".t##.c.c.c.c.c.c.c.c.c.c.c.c.c.c.c.c.c.c.c.c.c.c.c.c.c.c.c#a#b#c#d#e#f#g.b.c.c.S.c.c.c.c.c.c.c.c.c.c.c.c.c#h.c.c.c.c.c.c.c.c.c.c",
"#i.#.b##.P.P.c.c.c.c.c.c.c.c.c.c.c.c.c.c.c.c.c.c.c.c.c.c.c.3.c.5#j#k.b.c.c.c.c.c.c.c.c.c.c.c.c.c.c.c.c.c.c#l#m.V.c.c.c.c.c.c.c.c",
"Qt#n#o#p#q#r.b.c.c.c.c.c.c.c.c.c.c.c.c.c.c.c.c.c.c.c.c.c.c.c.c.c#s#t.S.c.c.c.c.c.c.c.c.c.c.c.c.c.c.c.c.c.c#u#v#w#x#y.c.c.c.c.c.c",
"#z#A#B#C#D.b.c.c.c.c.c.c.c#E#F#G#H.P.b.b.b.b.b.b.b.c.c.c.c.c.c.c.c.c.c.c.c.c.c.c.b.b.b.b.b.b.b.c.c.c.c.c.c.5#t#I#J#K.P.c.c.c.c.c",
"#L#M#N#O#P.S.c.c.c.c.c.c.c.S.b.P.c#Q.b.b.b.b.b.b#R.c.c.c.c.c.c.c.c.c.c.c.c.c.c.c.b.b.b.b.b.b#Q.c.c.c.c.c.c.c.c.c#S#T.c.c.c.c.c.c",
".S.S.b.b.c.c.c.c.c.c.c.c.c#R#U#U#U#U#U#U#U#U#U#U#R.c.c.c.c.c.c.c.c.c.c.c.c.c.c.c.S#U#U#U#U#U#U#U#U#U#U.c.c.c.c.c.c.c.c.c.c.c.c.c",
".c.c.c.c.c.c.c.c.c.c.c.c.c#R#U#U#U#U#U#U#U#U#U#U#R.c.c.c.c.c.c.c.c.c.c.c.c.c.c.c.c#U#U#U#U#U#U#U#U#U#U.c.c.c.c.c.c.c.c.c.c.c.c.c",
".c.c.c.c.c.c.S.c.c.c.c.c.c#R#U#U#U#U#U#U#U#U#U#U#R.c.c.c.c.c.c.c.c.c.c.c.c.c.c.c.c#U#U#U#U#U#U#U#U#U#U.c.c.c.c.c.c.c.c.c.c.c.c.c",
".c.c.c.c.c.c.b.c.c.c.c.c.c#R#U#U#U#U#U#U#U#U#U#U#R.c.c.c.c.c.c.c.c.c.c.c.c.c.c.c.b#U#U#U#U#U#U#U#U#U#U.c.c.c.c.c.c.c.c.c.c.c.c.c",
".b.c.c.c.c.S.S.c.c.c.c.c.c#R#U#U#U#U#U#U#U#U#U#U#R.c.c.c.c.c.c.c.c.c.c.c.c.c.c.c.b#U#U#U#U#U#U#U#U#U#U.c.c.c.c.c.c.c.c.c.c.c.c.c",
".c.c.c.c.c.b.c.c.c.c.c.c.c#R#U#U#U#U#U#U#U#U#U#U#R.c.c.c.c.c.c.c.c.c.c.c.c.c.c.c.c#U#U#U#U#U#U#U#U#U#U.b.c.c.c.c.c.c.c.c.c.c.c.c",
".b.c.c.c.c.S.c.c.c.c.c.c.c#R#U#U#U#U#U#U#U#U#U#U#R.c.c.c.c.c.c.c.c.c.c.c.c.c.c.c.c#U#U#U#U#U#U#U#U#U#U.b.c.S.S.S.c.c.c.c.c.c.c.c",
".c.c.c.c.c.c.5.S.S.S.c.c.c#R#U#U#U#U#U#U#U#U#U#U#R.c.c.c.c.c.c.c.c.c.c.c.c.c.c.c.c#U#U#U#U#U#U#U#U#U#U.b.c#Q#R.S.c.c.c.c.c.c.c.c",
".c.c.c.c.c.c.c.c.b.b.b.c.c#R#U#U#U#U#U#U#U#U#U#U#R.c.c.c.c.c.c.c.c.c.c.c.c.c.c.c.c#U#U#U#U#U#U#U#U#U#U.b.c.c.c.c.c.c.c.c.c.c.c.c",
".c.c.c.c.c.c.c.c.b.b.b.S.c#Q#U#U#U#U#U#U#U#U#U#U#R.c.c.c.c.c.c.c.c.c.c.c.c.c.c.c.c#U#U#U#U#U#U#U#U#U#U.P.c.c.c.c.c.c.c.c.c.c.c.c",
".c.c.c.c.c.c.c.c.c.b#V#W.S.c.c.c.c.c#Q#R.c.c.c.S#X.c.c.c.c.c.c.c.c.c.c.c.c.c.c.c#R#R#R#R#R#R#R#R#R#Y#Z#0.c.c.c.c.c.c.c.c.c.c.c.c",
".c.c.c.c.c.c.c.c.c.5#1#D.b.c.c.c.c.c.c.c.c.c.c.c.c.c.c.c.c.c.c.c.c.c.c.c.c.c.c.c.c.c.c.c.c.c.c.c.c.c.c.c.c.c.c.c.c.c.c.c.c.c.c.b",
".b.b.c.c.c.c.c.c.c#2#3.S.c.c.c.c.c.c.c.c.c.c.c.c.c.c.c.c.c.c.c.c.c.c.c.c.c.c.c.c.c.c.c.c.c.c.c.c.c.c.c.c.c.c.c.c.c.c.c.c.c.c.b.b",
".b.b.c.c.c.c.c.c.c.c.c.c.c.c.c.c.c.c.c.c.c.c.c.c.c.c.c.c.c.c.c.c.c.c.c.c.c.c.c.c.c.c.c.c.c.c.c.c.c.c.c.c.c.c.c.c.c.c.c.c.S.b.c.c",
".b.c.c.c.c.c.c.c.c.c.c.c.c.c.c.c.c.c.c.c.c.c.c.c.c.c.c.c.c.c.c.c.c.c.c.c.c.c.c.c.c.c.c.c.c.c.c.c.c.c.c.c.c.c.c.c.c.c.c.c.c.c.c.c",
".c.c.c.c.c.c.c.c.c.c.c.c.c.c.c.c.c.c.c.c.c.c.c.c.c.c.c.c.c.c.c.c.c.c.c.c.c.c.c.c.c.c.c.c.c.c.c.c.c.c.c.c.c.c.c.c.c.c.c.c.c.c.c.c",
".c.c.c.c.c.c.c.c.c.c.c.c.c.c.c.c.c.c.c.c.c.c.c.c.c.c.c.c.c.c.c.c.c.c.c.c.c.c.c.c.c.c.c.c.c.c.c.c.b.c.c.c.c.c.c.c.c.3#4.c.c.c.c.c",
"#5.c.c.c.c.c.c.c.c.c.c.c.c.c.c.c.c.c.c.c.c.c.c.c.c.c.c.c.c.c.c.c.c.c.c.c.c.c.c.c.c.c.c.c.c.c.c.c.c.c.c.c.c.c.c.c.c.5#6#7.S.c.c.c",
"#8#m.c.c.c.c.c.c.c.c.c.c.c.c.c.c.c.c.c.c.c.c.c.c.c.c.c.c.c.c.c.c.c.c.c.c.c.c.c.c.c.c.c.c.c.c.c.c.c.c.c.c.c.c.c.c.c.c.c.c.c.b.c.c",
"#9a..P.c.c.c.c.c.c.c.c.c.c.c.c.c.c.c.c.c.c.c.c.c.c.c.c.c.c.c.c.c.c.c.c.c.c.c.c.c.c.c.c.c.c.c.c.c.c.c.c.c.c.c.c.c.c.c.c.c.c.c.c.c",
"#9a#aa.c.c.c.c.c.c.c.c.c.c.c.c.c.c.c.c.c.c.c.c.c.c.c.c.c.c.c.c.c.c.c.c.c.c.c.c.c.c.c.c.c.c.c.c.c.c.c.c.c.c.c.c.c.c.c.c.c.c.c.c.c",
"abac.c.c.c.c.c.c.c.c.c.c.c.c.c.c.c.c.c.c.c.c.c.c.c.c.c.c.c.c.c.c.c.c.c.c.c.c.c.c.c.c.c.c.c.c.c.c.c.c.c.c.c.c.c.c.c.c.c.c.c.c.c.c",
".c.c.c.c.c.c.c.c.c.c.c.c.c.c.c.c.c.c.c.c.c.c.c.c.c.c.c.c.c.c.c.c.c.c.c.c.c.c.c.c.c.c.c.c.c.c.c.c.c.c.c.c.c.c.c.c.c.c.c.c.c.c.c.c",
".c.c.c.c.c.c.c.c.c.c.c.c.c.c.c.c.c.c.c.c.c.c.c.c.c.c.c.c.c.c.c.c.c.c.c.c.c.c.c.c.c.c.c.c.c.c.c.c.c.c.c.c.c.c.c.c.c.c.c.c.c.c.c.c",
".c.c.c.c.c.c.c.c.c.c.c.c.c.c.c.c.c.c.c.c.c.c.c.c.c.c.c.c.c.c.c.c.c.c.c.c.c.c.c.c.c.c.c.c.c.c.c.c.c.c.c.c.c.c.c.c.c.c.c.c.c.c.c.b",
".c.c.c.c.c.c.c.c.c.c.c.c.c.c.c.c.c.c.c.c.c.c.c.c.c.c.c.c.c.c.c.c.c.c.c.c.c.c.c.c.c.c.c.c.c.c.c.c.c.c.c.c.c.c.c.c.c.c.c.c.c.c.c.b",
".c.c.c.c.c.c.c.c.c.c.c.c.cadaeaf#m.c.c.c.c.c.c#Qag.c.c.c.c.c.c.c.c.c.c.c.c.c.c.c.b#V.b.b.b.bahaiaj.Z.Zak.c.c.c.c.c.c.c.c.c.calam",
".c.c.c.c.c.c.c.c.c.c.c.c.can#U#U#U#U#U#U#U#U#U#Uao.c.c.c.c.c.c.c.c.c.c.c.c.c.c.c.S#U#U#U#U#U#U#U#U#U#U.Z.c.c.c.c.c.c.c.c.c.c.bap",
".c.c.c.c.c.c.c.c.c.c.c.c.caq#U#U#U#U#U#U#U#U#U#Uar.c.c.c.c.c.c.c.c.c.c.c.c.c.c.c.b#U#U#U#U#U#U#U#U#U#Uas.c.c.c.c.c.c.c.c.c.c.cat",
".c.c.c.c.c.c.c.c.c.c.c.c.cau#U#U#U#U#U#U#U#U#U#Uav.c.c.c.c.c.c.c.c.c.c.c.c.c.c.c.c#U#U#U#U#U#U#U#U#U#U.3.c.c.c.c.c.c.c.c.c.c.c.S",
".c.c.c.c.c.c.c.c.c.c.c.c.caw#U#U#U#U#U#U#U#U#U#Uax.c.c.c.c.c.c.c.c.c.c.c.c.c.c.c.b#U#U#U#U#U#U#U#U#U#U.b.c.c.c.c.c.c.c.c.c.c.cay",
".c.c.c.c.c.c.c.c.c.c.c.c.caz#U#U#U#U#U#U#U#U#U#UaA.c.c.c.c.c.c.c.c.c.c.c.c.c.c.c.c#U#U#U#U#U#U#U#U#U#U.b.c.c.c.c.c.c.c.c.c.c.c.c",
".c.cat.I.b.c.c.c.c.c.c.c.caz#U#U#U#U#U#U#U#U#U#U.b.c.c.c.c.c.c.c.c.c.c.c.c.c.c.c.b#U#U#U#U#U#U#U#U#U#U.b.c.c.S.P.c.c.c.c.c.c.c.c",
".laB.P.b.c.c.c.c.c.c.c.c.caC#U#U#U#U#U#U#U#U#U#U.b.c.c.c.c.c.c.c.c.c.c.c.c.c.c.c.c#U#U#U#U#U#U#U#U#U#UaD.c.c.c.5.b.c.c.c.c.c.c.c",
"aE.b.b.c.c.c.c.c.c.c.c.c.caF#U#U#U#U#U#U#U#U#U#U.S.c.c.c.c.c.c.c.c.c.c.c.c.c.c.c.c#U#U#U#U#U#U#U#U#U#UaG.c.c.caH.b.c.c.c.c.c.c.c",
".b.b.b.c.c.c.c.c.c.c.c.c.c.b#U#U#U#U#U#U#U#U#U#U.S.caIaJ.c.c.c.c.c.c.c.c.c.c.c.c.c#U#U#U#U#U#U#U#U#U#UaK.c.S.caL.S.c.c.c.c.c.c.c",
".c.S.b.c.c.c.c.c.c.c.c.c.c.P#U#U#U#U#U#U#U#U#U#U#R.baF.S.c.S.c.c.c.c.c.c.c.c.c.c#Q#U#U#U#U#U#U#U#U#U#UaM.SaNaOaPaQ.c.c.c.c.c.c.c",
".c.c.S.b.b.c.c.c.c.c.c.c.caRaSaTaUaV.baW.S#R#R#R.P.c.S.c.c.c.c.c.c.c.c.c.c.c.c.c#Q#R#R#R#R#R.SaI.PaXaYaZ.P.S.VaO.V.S.c.c.c.c.c.c",
".S.c.P.P.c.c.c.c.c.c.c.c.c.c.c.c.c.c.c.c.c.c.c.c.c.c.c.c.c.c.c.c.c.c.c.c.c.c.c.c.c.c.c.c.c.c.c.c.S.Sa0.b.S.b.b.c.c.S.b.b.c.c.c.c",
".b.b.Pa1.V.S.c.c.c.c.c.c.c.c.c.c.c.c.c.c.c.c.c.c.c.c.c.c.c.c.c.c.c.c.c.c.c.c.c.c.c.c.c.c.c.c.c.c.S.b.S.S.b.S.c.c.c.S.b.b.c.c.c.c",
".b.ba2a3.T.b.c.c.c.c.c.c.c.c.c.c.c.c.c.c.c.c.c.c.c.c.c.c.c.c.c.c.c.c.c.c.c.c.c.c.c.c.c.c.c.c.c.c.c.S.c.b.b.S.c.c.c.c.c.c.S.c.c.c",
".c.Pa4a5.V.b.S.c.c.c.c.c.c.c.c.c.c.c.c.c.c.c.c.c.c.c.c.c.c.c.c.c.c.c.c.c.c.c.c.c.c.c.c.c.S.S.c.c.c.c.c.c.b.b.c.c.c.c.c.c.S.c.c.c",
".ca6a7a8a9.b.b.c.c.c.c.c.c.c.c.c.c.c.c.c.c.c.c.c.c.c.c.c.c.c.c.c.c.c.c.c.c.c.c.c.c.c.c.c.P.c.c.c.c.c.c.c.V.S.b.c.c.c.c.c.S.c.c.c",
".P#Oa7a7b.aL.b.c.c.c.c.c.c.c.c.c.c.c.c.c.c.c.c.c.c.c.c.c.c.c.c.c.c.c.c.c.c.c.c.c.c.c.c.c.c.c.c.c.c.c.c.c.c.S.b.S.c.c.c.c.b.c.c.c",
"b#babbbcbdbe.b.S.c.c.c.c.c.c.c.c.c.c.c.c.c.c.c.c.c.c.c.c.c.c.c.c.c.c.c.c.c.c.c.c.c.c.c.c.c.c.c.c.c.c.c.c.S.S.c.P.c.c.b.b.b.c.c.c",
"bfbgaa#r#P.5.b.b.c.c.c.c.c.c.c.c.c.P.S.S.c.c.c.c.c.S.c.c.c.c.c.c.c.c.c.c.c.c.c.c.c.c.c.c.c.c.c.c.c.c.c.c.c.b.b.b.P.c.c.S.b.c.c.c",
"bhbi.b.b.b.b.S.c.c.c.c.c.c.c.c.c.cbj#D#h.P.S.c.c.c.c.c.c.Sbkbl.c.c.c.c.c.c.c.c.c.c.c.c.c.c.c.c.c.c.c.c.c.c.S.b.b.S.c.c.c.c.c.c.c",
".a.c.c.c.c.c.c.c.c.c.c.c.c.c.c.c.c.bbmbn.wbo.P.c.c.c.b.c.Pbp.p.c.c.c.c.c.c.c.c.c.c.c.c.b.c.c.c.c.c.c.c.c.c.c.b.b.b.b.b.c.c.c.c.c",
".c.c.c.c.c.c.c.c.c.c.c.c.c.c.c.c.c.b.b.bbpbq.B.c.c.c.c.c.c.c.c.c.c.c.c.c.c.c.c.c.c.c.c.c.c.c.c.c.c.c.c.c.c.c.c.c.b.b.b.b.b.b.c.c",
".c.c.c.c.c.c.c.c.c.c.c.c.c.c.c.c.c.b.b.b.bbrbs.c.c.c.c.c.c.c.c.c.c.c.c.c.c.c.c.c.c.c.c.c.c.c.c.c.c.c.c.c.c.c.c.c.b.b.bayb#.P.b.b"};
