/* XPM */
static char *dummy[]={
"64 64 499 2",
"bL c #000000",
"bA c #070707",
"bB c #080808",
"cW c #0f0f0f",
"dR c #101010",
"bO c #131313",
"cT c #141414",
"b1 c #151515",
"bW c #161616",
"bK c #181818",
"dZ c #191919",
"b0 c #1a1a1a",
"bT c #1b1b1b",
"bF c #1d1d1d",
"bz c #212121",
"cV c #3d3d3d",
"ed c #3e3e3e",
"dQ c #3f3f3f",
"bN c #424242",
"bV c #434343",
"ei c #474747",
"bE c #484848",
"em c #555555",
"eh c #585858",
"c3 c #5f5f5f",
"c0 c #606060",
"c4 c #6b6b6b",
"cZ c #6e6e6e",
"el c #727272",
".i c #7856ff",
"c8 c #7857ff",
".b c #7957fe",
"#h c #7957ff",
".D c #7958fe",
"cX c #7958ff",
"ah c #7a58fd",
"#Q c #7a58fe",
".l c #7a59fd",
"#k c #7a59fe",
".a c #7a5afd",
".h c #7b5afc",
"#x c #7b5afd",
"bG c #7b5afe",
".w c #7b5bfc",
"dC c #7b5bfd",
"dT c #7c5bfc",
"dj c #7c5bfd",
".k c #7c5cfb",
"aQ c #7c5cfc",
"#K c #7c5cfd",
"dU c #7d5cfc",
"fH c #7d5dfa",
"#l c #7d5dfb",
"aa c #7d5dfc",
"aC c #7d5efa",
"bf c #7d5efb",
".X c #7e5ef9",
"ab c #7e5efb",
"dk c #7e5efc",
"dL c #7e5ffa",
"eW c #7e5ffb",
"db c #7e5ffc",
"d3 c #7e60f9",
"#g c #7f5ffa",
"d4 c #7f60f8",
"cf c #7f60fa",
"cQ c #7f60fb",
".j c #7f61f8",
"eY c #8060fb",
"dS c #8061f8",
"a5 c #8061f9",
"a7 c #8061fa",
"c# c #8061fb",
"d6 c #8062f7",
"cc c #8062f8",
"a6 c #8062f9",
"cF c #8162fa",
".G c #8163f6",
"aA c #8163f7",
"aS c #8163f8",
"as c #8163f9",
"#A c #8163fa",
"fM c #8164f6",
"#4 c #8263f9",
"dx c #8264f7",
"am c #8264f8",
"by c #8264f9",
".v c #8265f5",
"ak c #8265f8",
"dN c #828282",
"a# c #8365f9",
"#f c #8366f6",
"fI c #8367f4",
"dH c #8367f5",
"dJ c #838383",
"#R c #8466f8",
"b4 c #8466f9",
"ev c #8466fa",
"e1 c #8467f5",
"fB c #8467f6",
"cu c #8467f7",
".c c #8468f3",
"c2 c #848484",
"ct c #8568f4",
"fa c #8568f8",
"ag c #8569f3",
"c. c #8569f4",
"aJ c #8569f5",
"aW c #8569f7",
".7 c #856af1",
".R c #856af2",
"dK c #858585",
"#J c #866af3",
"en c #866af4",
"#Y c #866af5",
"au c #866af6",
"dl c #866af7",
"#3 c #876bf6",
"cj c #876cf4",
"dW c #886cf6",
"eX c #886cf7",
"dt c #886df5",
".x c #886eef",
"#r c #886ef1",
"bt c #886ef2",
"dy c #896df5",
"e# c #896df7",
"cv c #896ef5",
"eD c #896ff2",
"dm c #8a6ff4",
"fe c #8b71f3",
"d7 c #8b72ed",
"e2 c #8b72ef",
".m c #8b73eb",
"#w c #8b73ee",
"cO c #8c71f6",
"at c #8c72f2",
"dV c #8c72f3",
".H c #8c74eb",
"dO c #8c8c8c",
"#6 c #8d73f2",
"#7 c #8d73f3",
"cP c #8d73f6",
"b3 c #8d74ed",
"et c #8d74f2",
"fo c #8d74f3",
"ck c #8d75ee",
".0 c #8d76e9",
".M c #8d76ea",
"dI c #8d8d8d",
"al c #8e75ef",
"an c #8e75f1",
"eu c #8e75f2",
"eO c #8e75f5",
"b9 c #8e76ec",
"aV c #8e76ef",
".I c #8e77e9",
"ea c #8f76f2",
"a2 c #8f77ef",
"fh c #8f78eb",
"#d c #9078ec",
"fG c #9079ec",
".J c #907ae6",
".V c #907ae8",
"ff c #9179f0",
"bP c #9179f2",
"#e c #917aec",
".# c #917be7",
"eN c #9279f3",
"cw c #927af0",
"bJ c #927bec",
"dP c #927ce9",
"#a c #927de4",
"a. c #937bef",
"#0 c #937cef",
".F c #937ee5",
"fT c #937fe4",
"cN c #947cf3",
"fg c #947def",
"e5 c #947df1",
"aF c #947eeb",
"bu c #947fe7",
"#m c #947fea",
".y c #9480e4",
"eE c #9480e7",
"di c #957eee",
"ee c #957eef",
"e. c #957ef2",
"f# c #957fed",
"#c c #9580e4",
"a4 c #9580e8",
"aK c #9580ea",
".5 c #9581e3",
"d8 c #9581e4",
".U c #9582e1",
".E c #9582e2",
"#G c #967fee",
"bY c #9680ed",
"eg c #9680ee",
"fA c #9681ea",
"d0 c #9682e4",
"dG c #9682e5",
".W c #9683e1",
"fO c #9684e0",
"dd c #9781ed",
"fC c #9782e9",
"#X c #9782ed",
"#s c #9783e5",
"#t c #9783e6",
"dA c #9783e7",
"b7 c #9784e4",
"fl c #9882ec",
"#L c #9883eb",
"fq c #9883ed",
"ce c #9885e3",
"eK c #9885e7",
".8 c #9886de",
"d5 c #9886df",
"aB c #9886e0",
"bZ c #9984eb",
"be c #9985e8",
"cM c #9986e5",
"az c #9987e0",
".1 c #9988dc",
"bH c #9a85f1",
"ac c #9a86eb",
"b8 c #9a87e2",
"fJ c #9a89dc",
"d1 c #9a89e0",
"dM c #9a9a9a",
"ec c #9b86ef",
"ba c #9b88e6",
"#5 c #9b88ea",
"bv c #9b89e1",
"d# c #9b89e6",
".A c #9b8add",
"bx c #9b8ae1",
"bD c #9c89e9",
"#S c #9c89ea",
"eU c #9c8ae1",
"#Z c #9c8be0",
".p c #9c8cdc",
"d2 c #9c9c9c",
"ek c #9d88ee",
"ay c #9d8cdd",
"#i c #9d8ce1",
".L c #9d8dda",
"fP c #9d8eda",
"cU c #9d9d9d",
"ca c #9e8aed",
"cp c #9e8be8",
"bS c #9e8ce4",
"bw c #9e8ddf",
"c7 c #9e8de4",
"fW c #9e8eda",
".N c #9e8fd9",
"bM c #9e9e9e",
"bo c #9f8cea",
"fS c #9f91d8",
"bU c #9f9f9f",
"dn c #a08ee8",
"d9 c #a18eec",
"ds c #a18fe7",
"aT c #a191e1",
".6 c #a193d7",
".4 c #a194d4",
"b2 c #a290e6",
"fR c #a295d5",
"bC c #a2a2a2",
"#B c #a392e6",
".g c #a396d5",
"cx c #a494e5",
"ax c #a497db",
".Y c #a498d2",
"#b c #a498d4",
"aG c #a595e4",
"#y c #a595e5",
"aj c #a596e1",
"dq c #a599d7",
".S c #a59ad0",
".C c #a59ad2",
"cY c #a697df",
"dr c #a697e1",
"bl c #a697e3",
"fp c #a697e4",
"#q c #a698dc",
"eo c #a797e5",
"dX c #a798e3",
"fz c #a799df",
"e4 c #a799e0",
"dF c #a79bd6",
"eF c #a899e0",
"cg c #a89bda",
"aR c #a89ed0",
".9 c #a9a0cc",
"bh c #a9a9a9",
"ef c #aa9be4",
"eP c #aa9be8",
"fN c #aaa1ce",
".3 c #aaa2cb",
".u c #aaa2cd",
"bi c #aaaaaa",
"b6 c #ab9de0",
"fE c #ab9edc",
"dp c #aba0d3",
".Z c #aba3cb",
"bn c #ababab",
"b5 c #ac9fdf",
"#M c #ac9fe0",
"ai c #aca0dc",
"ci c #aca1d7",
"dw c #aca2d2",
"a9 c #ada0e0",
"fr c #ada0e1",
"dB c #ada3d1",
"cs c #ada3d2",
"bg c #adadad",
"cl c #ae9fe8",
"a8 c #aea2df",
"#H c #aea5d0",
".s c #aea6ca",
"dY c #afa3df",
"aY c #afa5d7",
"ae c #afa7cf",
"#P c #b0a4dd",
"df c #b0a5de",
"aN c #b0a6d7",
"cS c #b0a7d7",
"ft c #b0a9cc",
"do c #b0a9ce",
".K c #b0aac6",
"aX c #b1a6dd",
"eT c #b1a8d4",
"aU c #b1a8d5",
"fu c #b1aacc",
"dE c #b1aacd",
"eL c #b1aacf",
".r c #b1abc7",
".B c #b1adc3",
"ej c #b1b1b1",
"fn c #b2a7dd",
"#F c #b2a7de",
"fF c #b2a9d6",
"ad c #b2aad3",
"bX c #b3a8dc",
"#2 c #b3a9db",
"#z c #b3a9dc",
"cA c #b3aad5",
".T c #b3aec4",
".t c #b3aec5",
".d c #b3aec7",
"fL c #b3afc3",
"bm c #b3b3b3",
"fm c #b4aadc",
"av c #b4abd8",
"dg c #b4afca",
"fj c #b4afcc",
"cy c #b5add5",
".Q c #b5b2c3",
"fQ c #b5b3c1",
"cE c #b6acdf",
"fi c #b6b0cb",
"e0 c #b6b0d0",
"fv c #b6b2c7",
"#. c #b6b3bf",
".q c #b6b3c2",
"dz c #b7aeda",
"b. c #b7b1cf",
"c5 c #b7b4c1",
"fV c #b7b5bf",
".o c #b7b5c0",
"eI c #b8ade1",
"dc c #b8b0d9",
"#j c #b8b3cc",
"## c #b8b6bc",
"a3 c #b8b6c0",
".2 c #b8b7bc",
"c1 c #b8b8b8",
"eV c #b9b1d8",
"ar c #b9b1d9",
"bj c #b9b2d7",
"aP c #b9b3d1",
"#u c #b9b4cd",
"af c #b9b7c2",
"fU c #b9b8bf",
"es c #bab2d8",
"bp c #bab2d9",
"aD c #bab4cf",
"aL c #bab5cf",
"cd c #bab8c5",
"fK c #bab9bc",
".n c #bababa",
".O c #bababc",
".z c #bababe",
"e7 c #bbb2de",
"dD c #bbb4d7",
"#8 c #bbb4d8",
"fy c #bbb5d1",
"#n c #bbb7cc",
"e9 c #bbb7cd",
".f c #bbbbbb",
"c9 c #bbbbbd",
"aq c #bcb5d7",
"aM c #bcb8cd",
".P c #bcbbbe",
"Qt c #bcbcbc",
"#C c #bdb6d8",
"#N c #bdb7d5",
"cL c #bdb9ce",
"fw c #bdbcc1",
".e c #bdbdbd",
"e6 c #beb6dc",
"dh c #beb8d6",
"aO c #bebbcd",
"cr c #bebcc4",
"bd c #bebdc0",
"#v c #bebebe",
"bc c #bebec0",
"eH c #bfb9d4",
"fd c #bfbad4",
"aw c #bfbbd1",
"bb c #bfbfbf",
"cH c #c0bad5",
"ez c #c0bad8",
"fb c #c0bbd5",
"#I c #c0c0c0",
"dv c #c1bcd4",
"cG c #c1bdd1",
"eC c #c1bdd4",
"cq c #c1c1c1",
"eR c #c2bbdc",
"fx c #c2c0cb",
"fs c #c2c1c9",
"cb c #c3bed6",
"#O c #c3c0d1",
"cz c #c3c1ca",
"fc c #c3c2c8",
"ch c #c3c3c4",
"#o c #c3c3c5",
"bI c #c4bfd8",
"eQ c #c4bfdb",
"ao c #c4c0d2",
"de c #c4c1d2",
"aE c #c4c2c8",
"#p c #c4c4c4",
"cI c #c5c1d2",
"eG c #c5c2d0",
"da c #c5c4c8",
"a1 c #c5c4c9",
"b# c #c5c5c5",
"d. c #c5c5c8",
"#T c #c6c3d1",
"bs c #c6c4cd",
"eM c #c6c4cf",
"aZ c #c6c6c6",
"fD c #c6c6c9",
"aI c #c7c5d0",
"a0 c #c7c7c7",
"ey c #c8c4d9",
"bR c #c8c6d0",
"f. c #c8c7ce",
"cK c #c8c8c8",
"eZ c #c9c5d9",
"fk c #c9c6d1",
"#1 c #c9c7cf",
"#W c #c9c7d0",
"bq c #c9c7d1",
"aH c #c9c8cf",
"c6 c #c9c9c9",
"#9 c #cac8cf",
"br c #cacaca",
"bQ c #cbcace",
"cR c #cbcbcb",
"e3 c #cbcbcc",
"cJ c #cbcbce",
"ap c #cccbce",
"eq c #cccbd1",
"bk c #cccccc",
"#U c #cccccd",
"du c #ccccce",
"ew c #cdcbd8",
"#V c #cdcdcd",
"#D c #cdcdce",
"er c #cdcdcf",
"#E c #cecece",
"cD c #cfccd9",
"eA c #cfced2",
"ep c #cfcfcf",
"co c #d0d0d0",
"eB c #d1d1d1",
"eS c #d1d1d5",
"cm c #d2d1d6",
"e8 c #d2d2d2",
"eb c #d3d2d5",
"eJ c #d4d4d4",
"ex c #d4d4d5",
"cn c #d5d5d5",
"cC c #d6d5d6",
"cB c #d6d6d6",
"QtQtQt.#.a.b.b.b.b.b.b.b.b.b.b.b.b.b.b.b.c.d.e.eQt.f.f.fQtQtQtQtQt.g.h.i.i.i.i.b.b.j.k.b.b.l.m.n.f.f.f.f.f.f.f.f.o.b.b.b.pQtQtQt",
".q.r.s.t.u.v.b.b.b.b.b.b.b.b.b.w.l.b.h.x.y.e.e.eQt.f.f.fQtQtQt.z.A.h.i.i.i.i.i.b.i.i.i.i.i.b.j.B.f.f.f.f.f.f.f.f.C.b.b.D.EQtQtQt",
".F.G.v.H.r.I.b.b.b.b.b.b.b.b.J.K.L.M.N.O.P.e.e.eQt.f.f.fQtQtQt.Q.R.b.b.i.i.i.i.b.b.i.i.i.i.b.k.S.f.f.f.f.f.f.T.U.c.b.b.b.l.VQtQt",
".W.b.b.X.Y.Z.0.b.b.b.b.b.b.b.1.2.S.3.4.4.5.6QtQt.f.n.n.n.f.f.f.K.l.b.b.i.i.i.i.b.b.i.i.i.i.b.b.7.8.9#..n.n###a.b.b.b.b.b.b#bQtQt",
"#c.b.b.l#d#e#f#g#h.b.b.b.b.D#i#j.b#k.b.b.b#l#m#n#o#p#p#p#p#p#p#q.b.b#h.i.i.i.i#h.i.i.i.i.i#h.b.b.b.l#r#s#t#u.b.b.b.b.b.b.b#c#v#v",
"#w.b.b.b#x.D.b#h.i.b.b.b#x#k#y#z.b.b.b.b.b.i.i#A#B#C#D#E#E#E#E#F.D.b.b.i.i.i.i.b.i.i.i.i.i.i#h.b.b.b.b.i#x#G.b.b.b.b.b.b#l#H#I#I",
"#J.b.b.b.b.b.b.b#h#h#K#L#M#N#O#P#k.b.b.b.b.i.i.b#Q#R#S#T#U#V#V#W#X.b.b.i.i.i.i.b#h.i.i.i.i.i.i#h.b.b.i.i#h.i.i.b.b.b.b.b#Y#I#I#I",
"#Z.b.b.b.b#Q.b.b.i.i#0#1#2#3#4#5#6.b.b.b.b.i.i#h.b.b.D#7#8#V#V#V#9a.a#aa.i.i#h.b.b.b.i.i.i.i.i.i#h#h.i.i.i.i#x.b.b.babacad#I#Iae",
"afagah.b.baiajak#h.i.ialam.b.b.b.b.b.b.b.b.i.i.i.b.b.b#Qanao#V#V#Vapaqaras.b.b.b.b.b.i.i.i.i.i.i.i.i.i.i.i.bat.b#QauavawaxayazaA",
"Qt.taBaC.baDaEaF.b.i.i.b.b.b.b.b.b.b.b.b.b.i.i.i.b.b.b.b.DaG#U#1aH#V#VaIaJ.b.b.b#h.i.i.i.i.i.i.i.i.i.i.i.iaKaLaMaNaOaPaQ.l.b.D.b",
"QtQt.zaRaSaTaUaV#h#h.b.b.b.b.b.b.b.b.b.b.b.i.i.i#h.b.b.b.baWaXac#8#V#Var#k.i.i#h.i.i.i.i.i.i.i.i.i.i.i.i.DaYaZaZa0a0a1a2.b.b.b.b",
"QtQtQta3a4aba5a6.l.b.b.b.b.b.b.b.b.b.b.b.b.i.i.i#h.b.b.b.b.Da7.Da8#U#Va9#h.i.i.i.i.i.i.i.i.i.i.i.i.i.i.i.Db.b#b#a0a0a0ba.b.b.b.b",
"bbbcbcbdbe.b.b#h#hbf#f#h#hbgbhbibibibibibibibibib#.b.b.b.b.b.b.baabjbkbl.i.i.i.ibmbhbibibibibibibibibibn.ibobpbqbkbrbrbsbt.b.b.b",
"bubvbwbxby#h#h.i.i.i.i.i.ibzbAbBbBbBbBbBbBbBbBbBbC#h#h#h.b.b.b#h.i#3bD#k.i.i.i.ibEbAbBbBbBbBbBbBbBbBbBbF.b.ibGbHbI#V#V#VbJ.w.b.b",
"#h#h.b.b.i#h#h.i.i.i.i.i.ibKbLbLbLbLbLbLbLbLbLbLbM.i#h#h#h#h.b.i.i.i.i.i.i.i.i.ibNbLbLbLbLbLbLbLbLbLbLbO.b.i.i#hbPbQ#VbRbS.w.b.b",
".i.i.i.i.i.i.b#h.i.i.i.i#hbTbLbLbLbLbLbLbLbLbLbLbU.i.i.i.i.i.i.i.i.i.i.i.i.i.i.ibVbLbLbLbLbLbLbLbLbLbLbW.b.i.i.i#h#3bXbY.b.w#l.l",
".i.i.i.i.i.i.b.b.i.i.i#h.ibTbLbLbLbLbLbLbLbLbLbLbU.i.i.i.i.i.i.i.i.i.i.i.i.i.i.ibVbLbLbLbLbLbLbLbLbLbLbW.b.i.i.i.i#hbZ#x.b.b.b.b",
".i.i.i.i.i.i.b.b#h.i.i#h.ib0bLbLbLbLbLbLbLbLbLbLbU.i.i.i.i.i.i.i.i.i.i.i.i.i.i.ibVbLbLbLbLbLbLbLbLbLbLb1.b.i.i.i.i.Db2.b.b.b.bb3",
".w.i.i.i.i#h.b.b.b.i.i.b.ib0bLbLbLbLbLbLbLbLbLbLbU.i.i.i.i.i.i.i.i.i.i.i.i.i.i.ibVbLbLbLbLbLbLbLbLbLbLb1.b.i.i.ib4b5b6.b.b.b.bb7",
"b8#x.i.i.i.b.b.b.bb9c..b.ib0bLbLbLbLbLbLbLbLbLbLbU.i.i.i.i.i.i.i.i.i.i.i.i.i.i.ibVbLbLbLbLbLbLbLbLbLbLb1.b.ic#cacbbY#x.b.b.b.bcc",
"cdce.w.i#h.b.b.Dcfcgchcicjb0bLbLbLbLbLbLbLbLbLbLbU#h.i.i.i.i.i.i.i.i.i.i.i.i.i.ibVbLbLbLbLbLbLbLbLbLbLb1ckclcmcncocp.b.b.b.b.b.b",
"cqcrcsctcucvcwcxcycza0cAaQb0bLbLbLbLbLbLbLbLbLbLbU.i.i.i.i.i.i.i.i.i.i.i.i.i.i.ibVbLbLbLbLbLbLbLbLbLbLbW#pcBcCcDcEcF.b.b.b.b.b.b",
"cqcqcqcqcGcHcIcJcKa0a0cL.Db0bLbLbLbLbLbLbLbLbLbLbU.i.i.i.i.i.i.i.i.i.i.i.i.i.i.ibVbLbLbLbLbLbLbLbLbLbLbWcMcNcOcPcQ.b.b.b.b.b.b.b",
"cqcqcqcqcR#V#V#VcKa0a0cS.icTbLbLbLbLbLbLbLbLbLbLcU.i.i.i.i.i.i.i.i.i.i.i.i.i.i.icVbLbLbLbLbLbLbLbLbLbLcW#kcXcXcX.b.b.b.b.b.b.b.b",
"bbbbbbbbbrbkbkbkcKa0a0cY.bcZc0c0c0c0c0c0c0c0c0c0c1.i.i.i.i.i.i.i.i.i.i.i.i.i.i.ic2c3c0c0c3c3c3c3c3c3c3c4.b#h#h#h.b.b.b.b.b.b.b.b",
"c5QtQtQtc6bkbkbkcKa0a0c7#Qc8.i.i.i.i.i.i.i.i.i.i.i.i.i.i.i.i.i.i.i.i.i.i.i.i.i.i.i.i.i.i.i.i.i.i.i.i.b.b.b.b.b.b.b.b.b.b.b.b.b.b",
"c9QtQtQtc6bkbkbkcKa0d.d#.i.i.i.i.i.i.i.i.i.i.i.i.i.i.i.i.i.i.i.i.i.i.i.i.i.i.i.i.i.ic8#h#h#h.i.i.i#h.b.b.b.b.b.b.b.b.b.b.b.b.b.b",
"QtQtQtQtc6bkbkbkcKa0daa2.i.i.i.i.i.i.i.i.i.i.i.i.i#h.i.i.i.i.i.i.i.i.i.i.i.i.i.i.i.i#hcX#h.i.i.i.i.b.b.b.b.b.b.b.b.b.b.b.b.b.b.b",
"#v#v#v#vc6bkbkbkbrbravaa.i.i.i.i.i.i.i.i.i.i.i.i#h.b.i.i.i.i.i.i.i.i.i.i.i.i.i.i.i.i#hdb#Q.i.i.i.b.b.b.b.b.b.b.b.b.b.b.b.b.b.b.b",
"#I#I#I#Ibr#V#V#V#Vdca7.i.i.i.i.i.i.i.i.i.i.i.i.i.i.b.i.i.i.i.i.i.i.i.i.i.i.i.i.i.i.idddedf.b#h.b.b.b.b.b.b#h.i#h.b.b.b.b.b.b.b.b",
"dg#I#I#Ibr#V#Vdhdidj.i.i.i.i.i.i.i.i.i.i.i.i.i.i.i.bdk.i.i.i.i.i.i.i.i.i.i.i.i.i.i.idlcvdm.b.b.b.b.i.i#h#h.i.i#h#3dn#7#k.b.b.b#h",
"doaedpdqdrdsbYcQ.b.b.b.b.i.i.i.i.i.i.i.i.i.i.i.i#h#0dt#h.b.b.b.b.D.i.i.i.i.i.i.i.i.i.i.i#h.b.b.b.i.i.i.i.i.i.ia#dhdudvdsa5#h.i.i",
"dwdx.b.b.b.b#h#h.b#h.b.i.i.i.i.i.i.i.i.i.i.i.i.ia7#3#h.i.i.idjaQau#h.i.i.i.i.i.i.i.i.i.i.i.b.b.b.i.i.i.i.i.i.idyaodz#0cxdA.l.i.i",
"#IdB#J.D.b.i.i.i.i.i.i.i.i.i.i.i.i.idC#h#h#h#h.i.b.b.b.i.i.ibYdDbY#h.i.i.i.i.i.i.i.i.i.i.i#h.b.i.i.i.i.i.i.i.i.b#KcQ.b#Q.b.b.i.i",
"#I#IdE#l.i.i.i.i.i.i.i.i.i.i.i.i.i.iaa#h.b.b.b.b.b.b.i.i.i.i.i#h#k.i.i.i.i.i.i.i.i.i.i.i.i.i.i.i.i.i.i.i.i.i.i.b.b.b.b.b.b#h.i.i",
"#HdFdG.i.i.i.i.i.i.i.i.i.i.i.i.i.i.i.i.i.i.i.i.i.i.i.i.i.i.i.i.i.i.i.i.i.i.i.i.i.i.i.i.i.i.i.i.i.i.i.i.i.i.i.i.b.b.b.b.i.i.i.i.i",
".w.i.i.i#h.i.i.i.i.i.i.i.i.i.i.i.i.i.i.i.i.i.i.i.i.i.i.i.i.i.i.i.i.i.i.i.i.i.i.i.i.i.i.i.i.i.i.i.i.i.i.i.i.i#h.b.b.b.b.i.i.i.i.i",
".i.i.i.i.i#h.i.i.i.i.i.i.i.i.i.i.i.i.i.i.i.i.i.i.i.i.i.i.i.i.i.i.i.i.i.i.i#h.i.i.i.i.i.i.i.i.i.i.i.i.i.i.idCcv.b.b.b.b.i.i.i.i.i",
".i.i.i.i.i.b.b#h#h#h#h.i.i.i.i.i.i.i.i.i.i.i.i.i.i.i.i.i.i.i.i.i.i.i.i.i.i.b.i.i.i.i.i#h#h.i.i.i.i.i.i.i.i#h#3dj.i.i#h.b.i.i.i.b",
".i.i.i.i.b.b.b.b.b.b#h.i.i.i.i.i.i.i.i.i.i.i.i.i.i.i.i.i.i.i.i.i.i.i.i.i.i.i#h.b.b.i.i#h#h.i.i#h.i.i.i.i.i.i.i.i.i.i.i.i.i.i.b.b",
"dH.i.i.i.b.b.b.b.b.i.i.i.idIdJc2c2c2c2c2dKdKdKdKQt.i.i.i.i.i.i.i.i.i.i.i.i.i.DdLdMdJc2c2dJdNdNdNc2dKdKdO.i.i.i.i.i.i.i.i.i#hdP#l",
"#w.i.i#h.b.b.b#h.i.i.i.i.ib1bLbLbLbLbLbLbLbLbLbLbM.i.i.i.i.i.i.i.i.i.i.i.i.i.i.bdQbLbLbLbLbLbLbLbLbLbLdR.i.i.i.i.i.i.i.i.i.i.bdS",
"dT#h.b.bdUdVdW#h.i.i.i.i.ib0bLbLbLbLbLbLbLbLbLbLbU.i.i.i.i.i.i.i.i.i.i.i.i.i.i.bbVbLbLbLbLbLbLbLbLbLbLbW.i.i.i.i.i.i.i.i.i.i.iaC",
".b.b.b.b#kdXdY.i.i.i.i.i.ib0bLbLbLbLbLbLbLbLbLbLbU.i.i.i.i.i.i.i.i.i.i.i.i.i.i#hbVbLbLbLbLbLbLbLbLbLbLbW.i.i.i.i.i.i.i.i.i#h.b#h",
".b.b.b.b.bdj#x.i.i.i.i.i.idZbLbLbLbLbLbLbLbLbLbLbU.i.i.i.i.i.i.i.i.i.i.i.i.i.i#hbNbLbLbLbLbLbLbLbLbLbLb1#h.i.i.i.i.i.i.i.i.bd0d1",
".b.b.b.D#x#Y.b.i.i.i.i.i.idZbLbLbLbLbLbLbLbLbLbLd2.i.i.i.i.i.i.i.i.i.i.i.i.i.i.ibNbLbLbLbLbLbLbLbLbLbLb1.b.b.i.i.i.i.i.i.i.D.AQt",
".bd3.#.MdL#x#h.i.i.i.b#h.idZbLbLbLbLbLbLbLbLbLbLd2.i.i.i.i.i.i.i.i.i.i.i.i.i.i.ibNbLbLbLbLbLbLbLbLbLbLb1.b.b.b.D.b.i.i.i.i.id4d5",
"d6d7.D.b.i.i.i.i.i.i.i.i.idZbLbLbLbLbLbLbLbLbLbLd2.i.i.i.i.i.i.i.i.i.i.i.i.i.i.ibNbLbLbLbLbLbLbLbLbLbLbW.b.b.b#x.b.i.i.i.i.i.b.b",
"d8.b.b.i.i.i.i.i.i.i.i.i.ib0bLbLbLbLbLbLbLbLbLbLbM.i.i.i.i.i.i.i.i.i.i.i.i.i.i.ibNbLbLbLbLbLbLbLbLbLbLbW.b.b.baW.b.i.i.i.i.i.i.b",
".b.b.b.i.i.i.i.i.i.i.i.i.idZbLbLbLbLbLbLbLbLbLbLbUd9e.e##h#h.i.i.i.i.i.i.i.i.i.ibVbLbLbLbLbLbLbLbLbLbLbW.b.b.bea.b.i.i.i.i.i.i.b",
".i#h.b.i.i.i.i.i.i.i.i.i.ibObLbLbLbLbLbLbLbLbLbLbMebec#h.i#h#h.i.i.i.i.i.i.i.i.iedbLbLbLbLbLbLbLbLbLbLdR.baaeeefeg#h.i.i.i.i.i.b",
".i.i#h.b.b#h.i.i#h#h.i.i.ieheieieieieieieieieieiejekdj.i.i.i.i.i.i.i.i.i.i.i.i.ielbEeieieieieieieieieiemeneoepeqereset.D.i.i.i.b",
"#h.i.D.D.b#keu#k.b.b.b.i.i.i.i.i.i.i.i.i.i.i.i.i#h.i.i.i.i.i.i.i.i.i.i.i.i.i.i.i.i.i.i.i.i#h#hevewcnexeyezeAeBeB#E#V#VeCeD.i.i.b",
".b.b.DeEeFeGeH#x.b.b.b.i.i.ic8.i.i.i.i.i.i.i.i.i.i.i.i.i.i.i.i.i.i.i.i.i.i.i.i.i.i.i.i.i.i.i.b#QeIeJeJeJeJeJeJeJepbkbkbkeK.b.b.b",
".b.baSeLbrbkeMcv.b.b#h.i.ic8.i.i.i.i.i.i.i.i.i.i.i.i.i.i.i.i.i.i.i.i.i.i.i.i.i.i.i.i.i.i.ieNeO.bdkePeQeReSeJeJeJepbkbkbkeT#x.b.b",
".i.DeUcqbrbkbkeVeW.b.b.i.i.i.i.i.i.i.i.i.i.i.i.i.i.i.i.i.i.i.i.i.i.i.i.i.i.i.i.i.i.i.i.i.DePeX.i.i#h.DeYeZeJeJeJepbkbkbke0e1.b.b",
".ie2cqcqbrbkbke3e4#k.b.i.i.i.i.i.i.i.i.i.i#h#k.i.i.i.i.i.i.i.i.i.i.i.i#h.i.i.i.i.i.i.i.i#Qe5#Q.i.i.i.ie5e6e7e8e8#Ebkbkbke9#f.b.b",
".DbxcqcqcR#V#V#Vf.f#.b#k.i.i.i.i.i.i.i.b.b.b#K.i.i.i.i.i.i.i.i.i.i.i.i.i.i.i.i.i.i#k#h#h.i.D#h.i.i.i.i#h.bfafb#V#V#V#V#VfcaC.b.b",
"aAdGcrcqcR#V#V#Vbkfdfe#4.i.i.i.i.i.ia7eW.b.baQ.i.i.i.i.i.i.i.i.i.i.i.i.i.i.i.i.i.ia7ff.i.i#h.b.i.i.i.i.b.b.b#kaafg#V#V#VaZfh.b.b",
"fifjcqcqcR#E#Dfkarfldta7.i.i.i.i.i#kfmfnfo.D.i.i.b#h.i.i.i.i.i#h.i.i.i.i.i.i.i.i.i.ifpdV.i#h.b#h.i.i.i#h#h.b.b.b#AacfqfrfsaA.b.b",
"ftfufvfwfxfyfzfAfB#k.b.b#h.i.i.i.ifCa0a0fDfE#h.i.i#h.i.i#hasak#h.i.i.i.i.i.i.i.i.i.ic7fFeW#h.b.b.i.i.i.i.i#h.b.b.b.D.beWfG.b.b.b",
"fH.l.bahaAfIah.b.b.b.b.b.b.b.b.b.bfJfK.f.ffLd6.i.i.b.b.i.DfM.j.i.i.i.i.i.i.i.i.i.iaCfNc9fO.b.b.b.b.i.i.i.i.i.b.b.b.b.b.b.b.i.b.b",
".i.b.b.b.b.b.b.b.b.b.b.b.b.b.b.bfPfQ.f.f.f.f.G.i.i.i.i.i.i.i.i.i.i.i.b.i.i.i.i.i.wfRfSfT.k.b.b.b.b.i.i.i.i.i.i.b.b.b.b.b.b.b.b.b",
".i.b.b.b.b.b.b.b.b.b.b.b.b.b.b.hfU.f.f.f.ffV.c.i.i.i.i.i.i.i.i.i.i.i.i.b.i.i.i.DfWd6.w.i.i.i.b.b.i.i.i.i.i.i.i.b.b.b.b.waA.D.b.b"};
