/* XPM */
static char *dummy[]={
"64 64 138 2",
".S c None",
".F c #c1c1c1",
".G c #c4c4c4",
".I c #c5c5c5",
".H c #c6c6c6",
".M c #c7c7c7",
"#h c #c0c0c0",
"#9 c #c6c6c6",
"#K c #cdcdcd",
"#6 c #d0d0d0",
"#e c #d9d9d9",
"#H c #e6e6e6",
".W c #c5c5c5",
".8 c #c1c1c1",
"#a c #c3c3c3",
".3 c #c4c4c4",
".1 c #c5c5c5",
"#M c #c6c6c6",
"#c c #c7c7c7",
"#2 c #cacaca",
".R c #dddddd",
"#O c #cfcfcf",
"#S c #d0d0d0",
"#W c #d1d1d1",
"#Z c #d2d2d2",
"#L c #d7d7d7",
".7 c #d8d8d8",
"## c #d9d9d9",
".Y c #dadada",
".N c #c5c5c5",
".E c #d5d5d5",
"#g c #d2d2d2",
"#8 c #d2d2d2",
"#J c #d5d5d5",
".V c #d4d4d4",
"#U c #cfcfcf",
"#1 c #d0d0d0",
"#Q c #d1d1d1",
"#b c #d2d2d2",
".0 c #d3d3d3",
"ab c #d4d4d4",
"ac c #d6d6d6",
"af c #d7d7d7",
".L c #d2d2d2",
"ag c #d2d2d2",
"aa c #d3d3d3",
"#p c #dcdcdc",
"#o c #dddddd",
"#l c #dedede",
"#q c #d9d9d9",
"#k c #dcdcdc",
"ae c #d1d1d1",
"#n c #d7d7d7",
"#w c #cbcbcb",
"#z c #cdcdcd",
"#D c #c8c8c8",
"#C c #c9c9c9",
"#x c #cbcbcb",
"#y c #cdcdcd",
"#E c #cccccc",
"#v c #cccccc",
"#f c #d8d8d8",
"#7 c #d8d8d8",
"#I c #d9d9d9",
".T c #d8d8d8",
"#T c #d4d4d4",
"#0 c #d6d6d6",
"#P c #d7d7d7",
".Z c #d8d8d8",
".J c #d8d8d8",
"#B c #cbcbcb",
"ad c #d7d7d7",
"#m c #d8d8d8",
".w c #c1c1c1",
".x c #c1c1c1",
".A c #c0c0c0",
".v c #c2c2c2",
"#A c #d0d0d0",
".z c #c3c3c3",
"a. c #cccccc",
"#i c #d1d1d1",
"#V c #c9c9c9",
"#X c #cacaca",
"#3 c #cbcbcb",
"#5 c #cccccc",
".9 c #cdcdcd",
".4 c #cfcfcf",
".O c #d0d0d0",
"#d c #d1d1d1",
"#R c #cbcbcb",
"#N c #cccccc",
"#Y c #cdcdcd",
"#4 c #cecece",
".6 c #d0d0d0",
"#. c #d1d1d1",
".2 c #d2d2d2",
".D c #d3d3d3",
"#G c #d4d4d4",
"ah c #cccccc",
"#r c #d3d3d3",
".y c #cbcbcb",
"a# c #cfcfcf",
"#j c #d3d3d3",
"#F c #cdcdcd",
"#u c #cacaca",
".u c #c5c5c5",
".B c #c9c9c9",
".c c #b9b9b9",
".b c #bababa",
".a c #bbbbbb",
"Qt c #bcbcbc",
".# c #bdbdbd",
".d c #bebebe",
".t c #bfbfbf",
".j c #c0c0c0",
".i c #c1c1c1",
".h c #c2c2c2",
".e c #c3c3c3",
".f c #c4c4c4",
".g c #c5c5c5",
".s c #c6c6c6",
".r c #c7c7c7",
".o c #c8c8c8",
".q c #c9c9c9",
".n c #cacaca",
".k c #cbcbcb",
".p c #cccccc",
".m c #cdcdcd",
".l c #cecece",
".C c #cfcfcf",
".5 c #d0d0d0",
".Q c #d1d1d1",
"#t c #d2d2d2",
"#s c #d3d3d3",
".U c #d4d4d4",
".K c #d5d5d5",
".X c #d6d6d6",
".P c #d7d7d7",
"QtQtQtQtQtQtQtQt.#.#.#.#.a.a.a.a.a.a.a.a.#.#.#.#Qt.a.a.aQtQtQtQtQtQtQtQtQtQtQtQt.a.a.a.a.b.b.b.b.a.a.a.a.a.a.a.aQtQtQtQtQtQtQtQt",
"QtQtQtQtQtQtQtQt.#.#.#.#.a.a.a.a.a.a.a.a.#.#.#.#Qt.a.a.aQtQtQtQtQtQtQtQtQtQtQtQt.a.a.a.a.b.b.b.b.a.a.a.a.a.a.a.aQtQtQtQtQtQtQtQt",
"QtQtQtQtQtQtQtQt.#.#.#.#.a.a.a.a.a.a.a.a.#.#.#.#Qt.a.a.aQtQtQtQtQtQtQtQtQtQtQtQt.a.a.a.a.b.b.b.b.a.a.a.a.a.a.a.aQtQtQtQtQtQtQtQt",
"QtQtQtQt.a.a.a.aQtQtQtQt.b.b.b.b.b.b.b.bQtQtQtQt.a.b.b.b.a.a.a.a.a.a.a.a.a.a.a.a.b.b.b.b.c.c.c.c.b.b.b.b.b.b.b.b.a.a.a.aQtQtQtQt",
".d.d.d.d.e.f.f.f.f.f.f.f.e.e.e.e.e.e.e.e.g.g.g.g.f.f.f.f.f.f.f.f.f.f.f.f.f.f.f.f.f.f.f.f.e.e.e.e.h.i.i.i.e.f.f.f.f.f.f.f.j.d.d.d",
".j.j.j.j.k.l.l.l.m.m.m.m.m.m.m.m.m.m.m.m.l.l.l.l.l.l.l.l.l.l.l.l.l.l.l.l.l.l.l.l.l.l.l.l.l.l.l.l.n.o.o.o.p.l.l.l.l.l.l.l.g.j.j.j",
".j.j.j.j.n.m.m.m.p.p.p.p.p.p.p.p.p.p.p.p.m.m.m.m.m.m.m.m.m.m.m.m.m.m.m.m.m.m.m.m.m.m.m.m.m.m.m.m.q.r.r.r.k.m.m.m.m.m.m.m.g.j.j.j",
".j.j.j.j.n.m.m.m.p.m.m.m.p.p.p.p.p.p.p.p.l.l.l.l.m.m.m.m.m.m.m.m.m.m.m.m.m.l.l.l.l.l.l.l.l.l.l.l.q.r.r.r.k.m.m.m.m.m.m.m.g.j.j.j",
".d.d.d.d.r.q.q.q.r.s.s.s.s.s.s.s.s.s.s.s.r.r.r.r.q.n.n.n.p.m.m.m.m.m.m.m.q.r.r.r.r.r.r.r.s.s.s.s.f.e.e.e.r.q.q.q.n.n.n.n.e.d.d.d",
"QtQtQtQt.f.s.s.s.i.t.t.t.i.i.i.i.i.i.i.i.j.j.j.j.g.r.r.r.p.m.m.m.m.m.m.m.g.j.j.j.j.j.j.j.t.t.t.t.j.j.j.j.f.s.s.s.r.r.r.r.jQtQtQt",
"QtQtQtQt.f.s.s.s.i.j.j.j.i.i.i.i.i.i.i.i.i.i.i.i.g.r.r.r.p.m.m.m.m.m.m.m.g.i.i.i.i.i.i.i.j.j.j.j.j.j.j.j.f.s.s.s.r.r.r.r.jQtQtQt",
"QtQtQtQt.f.s.s.s.i.j.j.j.i.i.i.i.i.i.i.i.i.i.i.i.f.s.s.s.p.m.m.m.m.m.m.m.g.i.i.i.i.i.i.i.j.j.j.j.j.j.j.j.f.g.g.g.r.r.r.r.jQtQtQt",
".t.t.t.t.r.q.q.q.f.e.e.e.u.v.w.x.x.x.x.x.x.x.x.x.y.l.l.l.k.n.n.n.p.p.p.p.r.f.f.f.z.w.x.x.x.x.x.x.x.x.x.A.B.C.l.l.p.n.n.n.e.t.t.t",
".i.i.i.i.n.p.p.p.s.g.g.g.D.E.F.G.G.G.G.G.G.H.H.I.J.K.K.K.n.r.r.r.k.p.p.p.q.r.r.o.L.F.H.H.M.M.M.M.M.M.H.N.O.P.P.P.Q.m.m.m.s.i.i.i",
".i.i.i.i.n.p.p.p.s.g.g.g.D.R.S.S.S.S.S.S.S.S.S.S.T.U.U.U.n.r.r.r.k.p.p.p.q.r.r.o.V.S.S.S.S.S.S.S.S.S.S.W.O.X.X.X.Q.m.m.m.s.i.i.i",
".i.i.i.i.n.p.p.p.s.g.g.g.D.Y.S.S.S.S.S.S.S.S.S.S.Z.U.U.U.n.r.r.r.k.p.p.p.q.r.r.o.0.S.S.S.S.S.S.S.S.S.S.1.O.X.X.X.Q.m.m.m.s.i.i.i",
".j.j.j.j.n.p.p.p.f.e.e.e.2.Y.S.S.S.S.S.S.S.S.S.S.Z.U.U.U.m.n.n.n.p.m.m.m.q.r.r.o.0.S.S.S.S.S.S.S.S.S.S.3.4.K.K.K.5.p.p.p.g.j.j.j",
".j.j.j.j.n.p.p.p.e.i.i.i.6.7.S.S.S.S.S.S.S.S.S.S.Z.U.U.U.C.m.m.m.m.m.m.m.q.r.r.o.0.S.S.S.S.S.S.S.S.S.S.8.9.K.U.U.C.p.p.p.g.j.j.j",
".j.j.j.j.n.p.p.p.e.i.i.i.6.7.S.S.S.S.S.S.S.S.S.S.Z.U.U.U.C.m.m.m.m.m.m.m.q.r.r.o.0.S.S.S.S.S.S.S.S.S.S.8.9.K.U.U.C.p.p.p.g.j.j.j",
".j.j.j.j.n.p.p.p.e.i.i.i.6.7.S.S.S.S.S.S.S.S.S.S.Z.U.U.U.C.m.m.m.m.m.m.m.q.r.r.o.0.S.S.S.S.S.S.S.S.S.S.8.9.K.U.U.C.p.p.p.g.j.j.j",
".j.j.j.j.n.p.p.p.g.f.f.f#.##.S.S.S.S.S.S.S.S.S.S.Z.U.U.U.C.m.m.m.k.k.k.k.o.s.s.r.0.S.S.S.S.S.S.S.S.S.S#a.4.X.K.K.5.p.p.p.g.j.j.j",
".i.i.i.i.k.m.m.m.o.r.r.r.D##.S.S.S.S.S.S.S.S.S.S.Z.U.U.U.l.p.p.p.o.r.r.r.s.g.g.s#b.S.S.S.S.S.S.S.S.S.S#c#d.X.X.X.Q.m.m.m.s.i.i.i",
".i.i.i.i.k.m.m.m.o.r.r.r.D##.S.S.S.S.S.S.S.S.S.S.Z.U.U.U.l.p.p.p.o.r.r.r.s.g.g.s#b.S.S.S.S.S.S.S.S.S.S#c#d.X.X.X.Q.m.m.m.s.i.i.i",
".i.i.i.i.k.m.m.m.o.r.r.r.D#e.S.S.S.S.S.S.S.S.S.S#f.U.U.U.l.p.p.p.o.r.r.r.s.g.g.s#g.S.S.S.S.S.S.S.S.S.S#h#i.X.X.X.Q.m.m.m.s.i.i.i",
".t.t.t.t.n.p.p.p.o.r.r.r#j#k#l#l#l#l#l#l#l#l#l#l#m.U.U.U.l.m.m.m.n.q.q.q.q.o.o.q#n#o#l#l#o#p#p#p#p#p#p#q#r.K.K.K.5.p.p.m.f.d.t.t",
"QtQtQtQt.q.p.p.p.o.r.r.r#s.X.X.X.X.X.X.X.X.X.X.X.K.U.U.U.C.m.m.m.p.p.p.p.m.m.m.m#s.X.X.X.K.U.U.U.U.U.U.U.U.U.U.U.C.p.p.m.h.aQtQt",
"QtQtQtQt.q.p.p.p.o.r.r.r#s.X.X.X.X.X.X.X.X.X.X.X.K.U.U.U.C.m.m.m.p.p.p.p.m.m.m.m#s.X.X.X.K.U.U.U.U.U.U.U.U.U.U.U.C.p.p.m.h.aQtQt",
"QtQtQtQt.q.p.p.p.o.r.r.r#s.X.X.X.X.X.X.X.X.X.X.X.K.U.U.U.C.m.m.m.p.p.p.p.m.m.m.m#s.X.X.X.K.U.U.U.U.U.U.U.U.U.U.U.C.p.p.m.h.aQtQt",
".d.d.d.d.q.p.p.p.n.n.n.n.5#t#t#t#t#t#t#t#t#t#t#t.Q.Q.Q.Q.p.n.n.n.p.p.p.p.m.m.m.m.5#t#t#t.Q.Q.Q.Q.Q.Q.Q.Q.Q.Q.Q.Q.l.p.p.m.e.#.d.d",
".j.j.j.j.n.m.m.m.m.m.m.m.m.m.m.m.m.m.m.m.p.p.p.p.m.m.m.m.o.r.r.r.p.m.m.m.m.m.m.m.m.m.m.m.m.m.m.m.m.m.m.m.m.m.m.m.m.m.m.m.g.j.j.j",
".j.j.j.j.n.m.m.m.m.m.m.m.m.m.m.m.m.m.m.m.p.p.p.p.m.m.m.m.o.r.r.r.p.m.m.m.m.m.m.m.m.m.m.m.m.m.m.m.m.m.m.m.m.m.m.m.m.m.m.m.g.j.j.j",
".j.j.j.j.n.m.m.m.m.m.m.m.m.m.m.m.m.m.m.m.p.p.p.p.m.m.m.m.o.r.r.r.p.m.m.m.m.m.m.m.m.m.m.m.m.m.m.m.m.m.m.m.m.m.m.m.m.m.m.m.g.j.j.j",
".j.j.j.j.n.m.m.m.m.m.m.m.m.m.m.m.m.m.m.m.p.p.p.p.m.m.m.m.n.n.n.n.p.m.m.m.m.m.m.m.m.m.m.m.m.m.m.m.m.m.m.m.m.m.m.m.m.m.m.m.g.j.j.j",
".j.j.j.j.n.m.m.m.m.m.m.m.m.m.m.m.m.m.m.m.p.p.p.p.m.m.m.m.m.m.m.m.m.m.m.m.m.m.m.m.m.m.m.m.m.m.m.m.m.m.m.m.m.m.m.m.m.m.m.m.g.j.j.j",
".j.j.j.j.n.m.m.m.m.m.m.m.m.m.m.m.m.m.m.m.p.p.p.p.m.m.m.m.m.m.m.m.m.m.m.m.m.m.m.m.m.m.m.m.m.m.m.m.m.m.m.m.m.m.m.m.m.m.m.m.g.j.j.j",
".j.j.j.j.n.m.m.m.m.m.m.m.m.m.m.m.m.m.m.m.p.p.p.p.m.m.m.m.m.m.m.m.m.m.m.m.m.m.m.m.m.m.m.m.m.m.m.m.m.m.m.m.m.m.m.m.m.m.m.m.g.j.j.j",
".j.j.j.j.n.m.m.m.k.n.n.n.n.n.n.n.n.n.n.n.n.n.n.n.p.m.m.m.m.m.m.m.k.k.k.k.n.n.n.n.n.n.n.n.q.q.q.q.n.k.k.k.p.m.m.m.m.m.m.m.g.j.j.j",
".j.j.j.j.n.p.p.p.s.g.g.g.g.g.g.g.g.g.g.g.r.r.r.r.k.m.m.m.p.p.p.p.r.s.s.s.g.g.g.g.g.g.g.g.h.i.i.i.g.r.r.r.n.p.p.p.p.p.p.p.g.j.j.j",
".j.j.j.j.n.p.p.p.s.g.g.g.g.g.g.g.g.g.g.g.r.r.r.r.k.m.m.m.p.p.p.p.r.s.s.s.g.g.g.g.g.g.g.g.h.i.i.i.g.r.r.r.n.p.p.p.p.p.p.p.g.j.j.j",
".j.j.j.j.n.p.p.p.s.g.g.g.f.g.g.g.g.g.g.g.r.r.r.r.k.m.m.m.p.p.p.p.r.s.s.s.g.g.g.g.g.g.g.g.h.i.i.i.g.r.r.r.n.p.p.p.p.p.p.p.g.j.j.j",
".j.j.j.j.n.p.p.p.r.s.s.s#u#v#w#x#x#x#x#x#y#y#y#z#A.C.5.5.m.p.p.p.q.o.o.o.s.g.g.g#B#w#x#x#C#D#D#D#x#y#z#E#F.C.C.C.l.p.p.p.g.j.j.j",
".j.j.j.j.n.m.m.m.o.r.r.r#G#H.S.S.S.S.S.S.S.S.S.S#I.U.U.U.C.m.m.m.p.p.p.p.r.g.g.s#J.S.S.S.S.S.S.S.S.S.S#K#i.X.X.X.Q.m.m.m.g.j.j.j",
".j.j.j.j.n.m.m.m.o.r.r.r.D##.S.S.S.S.S.S.S.S.S.S.Z.U.U.U.C.m.m.m.p.p.p.p.r.g.g.s#b.S.S.S.S.S.S.S.S.S.S#c#d.X.X.X.Q.m.m.m.g.j.j.j",
".j.j.j.j.n.m.m.m.o.r.r.r.2#L.S.S.S.S.S.S.S.S.S.S.Z.U.U.U.C.m.m.m.p.p.p.p.r.g.g.s#b.S.S.S.S.S.S.S.S.S.S#M#d.P.X.X.Q.m.m.m.g.j.j.j",
".t.t.t.t.o.n.n.n.s.g.g.g#N#O.S.S.S.S.S.S.S.S.S.S#P#t#t#t.m.k.k.k.p.p.p.p.s.f.f.g#Q.S.S.S.S.S.S.S.S.S.S.8.9#s#s#s.l.n.n.n.e.t.t.t",
"QtQtQtQt.f.s.s.s.h.i.i.i#R#S.S.S.S.S.S.S.S.S.S.S#T.C.C.C.q.r.r.r.k.p.p.p.g.i.i.h#U.S.S.S.S.S.S.S.S.S.S#a#V.m.m.m.q.s.s.s.jQtQtQt",
"QtQtQtQt.f.s.s.s.h.i.i.i#R#S.S.S.S.S.S.S.S.S.S.S#T.C.C.C.q.r.r.r.k.p.p.p.g.i.i.h#U.S.S.S.S.S.S.S.S.S.S#a#V.m.m.m.q.s.s.s.jQtQtQt",
"QtQtQtQt.f.s.s.s.h.i.i.i#R#W.S.S.S.S.S.S.S.S.S.S#T.C.C.C.q.r.r.r.k.p.p.p.g.i.i.h#U.S.S.S.S.S.S.S.S.S.S.1#X.m.m.m.q.s.s.s.jQtQtQt",
".d.d.d.d.s.q.q.q.f.e.e.e#Y#Z.S.S.S.S.S.S.S.S.S.S#0.Q.Q.Q.k.q.q.q.p.p.p.p.s.e.e.f#1.S.S.S.S.S.S.S.S.S.S#2#3.l.l.l.k.q.q.q.h.d.d.d",
".i.i.i.i.k.m.m.m.o.r.r.r#4#W.S.S.S.S.S.S.S.S.S.S.Z.U.U.U.C.m.m.m.m.m.m.m.o.g.g.s#b.S.S.S.S.S.S.S.S.S.S#2#5.C.C.C.l.m.m.m.s.i.i.i",
".i.i.i.i.k.m.m.m.o.r.r.r#4#6.S.S.S.S.S.S.S.S.S.S#7.U.U.U.C.m.m.m.m.m.m.m.o.g.g.s#8.S.S.S.S.S.S.S.S.S.S#9a..C.C.C.l.m.m.m.s.i.i.i",
".i.i.i.i.k.m.m.m.o.r.r.ra#aaabababababababacacacad.U.U.U.C.m.m.m.m.m.m.m.o.g.g.gaeafacacacacacacacacacagah.C.C.C.l.m.m.m.s.i.i.i",
".i.i.i.i.k.m.m.m.o.r.r.r#t.K.K.K.K.K.K.K.K.X.X.X.K.U.U.U.C.m.m.m.k.k.k.k.q.o.o.o#t.P.X.X.X.K.K.K.K.K.K.U.5.Q.Q.Q.l.m.m.m.g.i.i.i",
".i.i.i.i.n.p.p.p.o.r.r.r#s.X.X.X.X.X.X.X.X.X.X.X.K.U.U.U.l.p.p.p.o.r.r.r.k.m.m.m#s.X.X.X.K.U.U.U.U.U.U.U.U.U.U.U.C.p.p.p.g.i.i.i",
".i.i.i.i.n.p.p.p.o.r.r.r#s.X.X.X.X.X.X.X.X.X.X.X.K.U.U.U.l.p.p.p.o.r.r.r.k.m.m.m#s.X.X.X.K.U.U.U.U.U.U.U.U.U.U.U.C.p.p.p.g.i.i.i",
".i.i.i.i.n.p.p.p.o.r.r.r#s.X.X.X.X.X.X.X.X.X.X.X.K.U.U.U.l.p.p.p.o.r.r.r.k.m.m.m#s.X.X.X.K.U.U.U.U.U.U.U.U.U.U.U.C.p.p.p.g.i.i.i",
".i.i.i.i.n.p.p.p.q.o.o.o.Q#s#s#s#s#s#s#s#s#s#s#s#s#t#t#t.l.p.p.p.q.q.q.q.p.m.m.m.Q#s#s#s#s#t#t#t#t#t#t#t#t#t#t#t.l.p.p.p.g.i.i.i",
".i.i.i.i.k.m.m.m.p.p.p.p.p.p.p.p.p.p.p.p.m.m.m.m.m.m.m.m.m.m.m.m.m.m.m.m.m.m.m.m.p.p.p.p.m.m.m.m.m.m.m.m.m.m.m.m.m.m.m.m.s.i.i.i",
".i.i.i.i.k.m.m.m.p.p.p.p.p.p.p.p.p.p.p.p.m.m.m.m.m.m.m.m.m.m.m.m.m.m.m.m.m.m.m.m.p.p.p.p.m.m.m.m.m.m.m.m.m.m.m.m.m.m.m.m.s.i.i.i",
".i.i.i.i.k.l.l.l.m.m.m.m.p.p.p.p.m.m.m.m.l.l.l.l.l.l.l.l.l.l.l.l.l.l.l.l.l.l.l.l.m.m.m.m.l.l.l.l.l.l.l.l.l.l.l.l.l.l.l.l.s.i.i.i",
".t.t.t.t.r.o.o.o.r.r.r.r.o.o.o.o.r.r.r.r.o.o.o.o.o.o.o.o.o.o.o.o.o.o.o.o.o.o.o.o.r.r.r.r.o.o.o.o.r.r.r.r.o.o.o.o.o.o.o.o.e.t.t.t",
"QtQtQtQtQtQtQtQtQtQtQtQt.#.#.#.#Qt.a.a.a.a.a.a.aQt.#.#.#.a.a.a.aQtQtQtQtQtQtQtQtQtQtQtQt.a.a.a.a.b.b.b.b.a.a.a.a.a.a.a.aQtQtQtQt",
"QtQtQtQtQtQtQtQtQtQtQtQt.#.#.#.#Qt.a.a.a.a.a.a.aQt.#.#.#.a.a.a.aQtQtQtQtQtQtQtQtQtQtQtQt.a.a.a.a.b.b.b.b.a.a.a.a.a.a.a.aQtQtQtQt",
"QtQtQtQtQtQtQtQtQtQtQtQt.#.#.#.#Qt.a.a.a.a.a.a.aQt.#.#.#.a.a.a.aQtQtQtQtQtQtQtQtQtQtQtQt.a.a.a.a.b.b.b.b.a.a.a.a.a.a.a.aQtQtQtQt"};
