/* XPM */
static char *dummy[]={
"64 64 619 2",
"bl c None",
"a3 c #c1c1c1",
"a4 c #c4c4c4",
"a6 c #c5c5c5",
"a5 c #c6c6c6",
"bc c #c7c7c7",
"cx c #c0c0c0",
"fB c #c6c6c6",
"eA c #cdcdcd",
"fx c #d0d0d0",
"cu c #d9d9d9",
"ew c #e6e6e6",
"bs c #c5c5c5",
"bR c #c1c1c1",
"ca c #c3c3c3",
"bL c #c4c4c4",
"bC c #c5c5c5",
"eM c #c6c6c6",
"cn c #c7c7c7",
"fn c #cacaca",
"bk c #dddddd",
"eQ c #cfcfcf",
"e1 c #d0d0d0",
"fe c #d1d1d1",
"fi c #d2d2d2",
"eJ c #d7d7d7",
"bP c #d8d8d8",
"b7 c #d9d9d9",
"bx c #dadada",
"bd c #c5c5c5",
"a2 c #d5d5d5",
"cw c #d2d2d2",
"fA c #d2d2d2",
"ez c #d5d5d5",
"br c #d4d4d4",
"e6 c #cfcfcf",
"fm c #d0d0d0",
"eV c #d1d1d1",
"cm c #d2d2d2",
"bB c #d3d3d3",
"fH c #d4d4d4",
"fI c #d6d6d6",
"fM c #d7d7d7",
"bb c #d2d2d2",
"fN c #d2d2d2",
"fG c #d3d3d3",
"cH c #dcdcdc",
"cG c #dddddd",
"cB c #dedede",
"cI c #d9d9d9",
"cA c #dcdcdc",
"fL c #d1d1d1",
"cF c #d7d7d7",
"ej c #cbcbcb",
"em c #cdcdcd",
"es c #c8c8c8",
"er c #c9c9c9",
"ek c #cbcbcb",
"el c #cdcdcd",
"et c #cccccc",
"ei c #cccccc",
"cv c #d8d8d8",
"fy c #d8d8d8",
"ex c #d9d9d9",
"bm c #d8d8d8",
"e2 c #d4d4d4",
"fj c #d6d6d6",
"eR c #d7d7d7",
"by c #d8d8d8",
"a7 c #d8d8d8",
"eq c #cbcbcb",
"fJ c #d7d7d7",
"cC c #d8d8d8",
"aM c #c1c1c1",
"aN c #c1c1c1",
"aT c #c0c0c0",
"aL c #c2c2c2",
"en c #d0d0d0",
"aS c #c3c3c3",
"fC c #cccccc",
"cy c #d1d1d1",
"f# c #c9c9c9",
"ff c #cacaca",
"fo c #cbcbcb",
"fu c #cccccc",
"co c #d1d1d1",
"e7 c #c6c5cb",
"bI c #cfcdd4",
"bw c #d0ced5",
"bO c #d0d0d0",
"fO c #cccccc",
"eW c #a99be2",
"bY c #bfb9d9",
"b6 c #b8afde",
"bT c #bbb3db",
"cJ c #d3d3d3",
"aO c #cbcbcb",
"cz c #d3d3d3",
"ct c #a493ea",
"cb c #9077f2",
"bj c #9a85ef",
"cr c #8466f9",
"ch c #8061fb",
".w c #7856ff",
"c1 c #7857ff",
".b c #7957fe",
"#g c #7957ff",
".z c #7958fe",
"cN c #7958ff",
"hx c #7a58fd",
"aa c #7a58fe",
".k c #7a59fd",
"#a c #7a59fe",
".a c #7a5afd",
"c2 c #7b59fe",
".s c #7b5afc",
"#q c #7b5afd",
"be c #7b5afe",
".r c #7b5bfc",
"dD c #7b5bfd",
"eD c #7c5bfc",
"ci c #7c5bfd",
".j c #7c5cfb",
"#f c #7c5cfc",
"#C c #7c5cfd",
"eE c #7d5cfc",
".J c #7d5dfa",
"#w c #7d5dfb",
"#I c #7d5dfc",
"ak c #7d5efa",
"#X c #7e5efb",
"gi c #7e5efc",
"ee c #7e5ffa",
"fl c #7e5ffb",
"de c #7e5ffc",
"e9 c #7e60f9",
"fk c #7f5ffc",
"d4 c #7f60f9",
"#b c #7f60fa",
"cE c #7f60fb",
"cO c #7f60fc",
".i c #7f61f8",
"aA c #7f61f9",
"cl c #7f61fa",
"gj c #8060fb",
"a1 c #8061f9",
"gQ c #8061fa",
"b2 c #8061fb",
"fc c #8062f7",
"g3 c #8062f9",
"ck c #8062fa",
"hk c #8063f6",
".X c #8163f6",
"ah c #8163f7",
"f4 c #8163f8",
"eP c #8163f9",
"#R c #8263f9",
"hL c #8264f6",
"#6 c #8264f8",
"#B c #8264f9",
"c7 c #8264fa",
".q c #8265f5",
"bH c #8366f6",
"hc c #8366f7",
"a. c #8366f8",
".h c #8367f4",
"bV c #8466f9",
"b8 c #8466fa",
".c c #8468f3",
"fR c #8468f5",
"cX c #8567f9",
"an c #8569f5",
"gZ c #8569f6",
".Y c #856af1",
"e. c #8669f7",
"eX c #8669f8",
"cD c #8669f9",
"fE c #866af3",
"#L c #866af5",
"ab c #866af6",
"dS c #866af7",
"ho c #866bf1",
"eG c #866bf2",
"cM c #876af9",
"bG c #876bf3",
"ef c #876bf5",
"#Q c #876bf6",
"g8 c #876cf4",
"b. c #886cf5",
"ea c #886cf6",
"eO c #886df1",
"eK c #886df3",
"#7 c #886df4",
"fa c #886df5",
".t c #886eef",
"#h c #886ef1",
"aY c #886ef2",
"gG c #896df5",
"e0 c #896ef3",
"ha c #896ef4",
"dY c #896ef5",
"dl c #8a6ff5",
".v c #8a70ee",
"eF c #8a70f2",
"e# c #8a70f4",
"dH c #8b70f4",
"gA c #8b71f4",
"hq c #8b72ec",
"fd c #8b72ed",
"eh c #8b72ee",
"gk c #8b72ef",
".l c #8b73eb",
"a# c #8c72f2",
"dZ c #8c72f3",
"gP c #8c72f4",
"cS c #8c72f6",
"#T c #8d73f2",
"ev c #8d74ed",
"dx c #8d74f2",
"dn c #8d75f0",
".F c #8d76ea",
"c8 c #8e73f5",
"ba c #8e75f2",
"f. c #8e76ea",
".B c #8e77e9",
"gE c #8f76f1",
"dR c #8f76f2",
"e5 c #8f77ec",
"#5 c #8f77ee",
"ay c #8f77ef",
"gS c #8f77f1",
"fq c #8f78ea",
"hn c #8f79e8",
"c. c #9077f0",
"gU c #9077f2",
"g0 c #9078ee",
"aK c #9079ec",
".C c #907ae6",
".N c #907ae8",
"dN c #907aea",
"cR c #9179f0",
"bQ c #9179f1",
"bt c #9179f2",
".# c #917be7",
".9 c #917beb",
"hG c #917ce6",
"bh c #927bec",
".3 c #927de4",
"hv c #927de5",
"fV c #937ceb",
"g5 c #937ced",
"d1 c #937cef",
"e3 c #937de8",
".P c #937fe4",
"dv c #947def",
"dV c #947eee",
"ep c #947fea",
".u c #9480e4",
"fY c #9480e7",
"dy c #957eee",
"cj c #957ef2",
"gy c #957fed",
"#l c #9580e4",
"fW c #9580e6",
"ao c #9580ea",
".U c #9581e3",
"fh c #9581e4",
".M c #9582e1",
".A c #9582e2",
"#t c #967fee",
"dW c #9680ee",
"df c #9680ef",
"au c #9681e9",
"gD c #9682e5",
"#W c #9781ed",
"gn c #9781f0",
"bq c #9782e9",
"#i c #9783e5",
"#j c #9783e6",
"#D c #9883eb",
"#K c #9883ec",
"eu c #9885e3",
".Z c #9886de",
"hJ c #9886df",
"hF c #9987de",
"e8 c #9987df",
"ag c #9987e0",
"bF c #9987e3",
".Q c #9988dc",
"cW c #9a84f0",
"#N c #9a85eb",
"bf c #9a85f1",
"#M c #9a86ea",
"#Y c #9a86eb",
"g9 c #9a87e7",
"fz c #9b86ef",
"bM c #9b87ea",
"dm c #9b87eb",
"aG c #9b88e6",
"#S c #9b88ea",
"bA c #9b89e6",
"hz c #9b8add",
"gw c #9b8ae1",
"ft c #9c87ee",
"d7 c #9c88ea",
"hb c #9c89e6",
"c# c #9c89e8",
"ed c #9c8ae0",
"gc c #9c8ae1",
"he c #9c8cdb",
".o c #9c8cdc",
"eZ c #9c8cde",
"fK c #9d88ee",
"dT c #9d8ae7",
"gH c #9d8ae8",
"dK c #9d8ae9",
"af c #9d8cdd",
"eH c #9d8cdf",
"#. c #9d8ce1",
".E c #9d8dda",
"hO c #9d8ed9",
"b3 c #9e8aed",
"bK c #9e8be9",
"d9 c #9e8ce8",
"eN c #9e8dde",
"e4 c #9e8edf",
".G c #9e8fd9",
"f7 c #9f8bed",
"aU c #9f8cea",
"gO c #9f8de9",
"hw c #9f90d9",
"d# c #a08cec",
"dJ c #a08ee7",
"ec c #a090dc",
"hm c #a091d9",
"#v c #a18fe8",
"d3 c #a192e0",
".V c #a193d7",
".T c #a194d4",
"hN c #a194d5",
"gf c #a290e6",
"gu c #a290ea",
"c0 c #a291e6",
"hp c #a295d6",
".W c #a296d4",
"gY c #a393e1",
"eB c #a395d9",
"dk c #a493e5",
"bU c #a493e7",
"eg c #a494e4",
"#4 c #a495e0",
"aB c #a496dd",
"ae c #a497db",
"hE c #a498d1",
".4 c #a498d4",
"hC c #a499d2",
"f2 c #a593ea",
"go c #a594e9",
"cY c #a594ea",
"d2 c #a595e4",
"#r c #a595e5",
"av c #a597dd",
"fg c #a599d3",
".K c #a59ad0",
".y c #a59ad2",
"b1 c #a696e6",
"hM c #a69bd1",
"#p c #a798e4",
"gm c #a799e0",
"aR c #a799e2",
"eU c #a79adb",
"eo c #a79adc",
"hl c #a79cd2",
"gN c #a898e4",
"gt c #a898e7",
"fZ c #a899e0",
"dF c #a899e3",
"bS c #a89ae2",
"dE c #a89ae3",
"hh c #a89ed1",
"gB c #a99ae2",
"eL c #a99cdb",
"hs c #a99fce",
".0 c #a9a0cc",
"hK c #a9a0ce",
"dz c #aa9ce2",
"a0 c #aa9fd9",
".S c #aaa2cb",
"dA c #ab9ee1",
"ey c #aba0d9",
".p c #aba2cd",
"c6 c #ac9ce8",
"#U c #ac9ee1",
"dc c #ac9ee4",
"#E c #ac9fe0",
"fp c #ad9fe1",
"aE c #ada0e0",
"eT c #ada3d6",
"cc c #ae9fe8",
"gs c #aea0e4",
"b9 c #aea0e6",
"a9 c #aea3d9",
"#x c #aea5d0",
"gg c #afa2e5",
"dP c #afa3de",
"gI c #afa3df",
"aj c #afa5d7",
"aJ c #afa6d3",
"#0 c #afa7cf",
"#H c #b0a4dd",
"ar c #b0a6d7",
"g6 c #b0a6d8",
"bi c #b0a7d5",
".D c #b0aac6",
"hH c #b0aac8",
".O c #b0abc6",
"gq c #b1a6d9",
"f5 c #b1aacf",
".x c #b1adc3",
"gT c #b2a6de",
"gz c #b2a7dd",
"gW c #b2a7de",
"h# c #b2a9d6",
"#e c #b2aad2",
"#Z c #b2aad3",
"dC c #b2abcd",
"dM c #b2accc",
"ht c #b2adc5",
"hy c #b2adc6",
"hi c #b2adc7",
"#P c #b3a9db",
"#s c #b3a9dc",
".L c #b3aec4",
".d c #b3aec7",
"hj c #b3afc3",
"gV c #b4a9dd",
"b# c #b4aadb",
"du c #b4aadc",
"ac c #b4abd8",
"cg c #b4acd4",
"gL c #b4afcc",
"fb c #b4b0c4",
"dt c #b5abdb",
"gM c #b5abdc",
"f3 c #b5afcb",
"hA c #b5b1c3",
"hu c #b5b2bf",
"db c #b6ace0",
"dI c #b6adda",
"#c c #b6afd0",
"gK c #b6b0cb",
"eY c #b6b1c7",
"eC c #b6b1c9",
".1 c #b6b3bf",
"gh c #b7ace2",
"bW c #b7aed9",
"d0 c #b7aeda",
"az c #b7b0d1",
"aF c #b7b1cf",
"eb c #b7b3c8",
"hI c #b7b5bf",
".n c #b7b5c0",
"gR c #b8afda",
"dr c #b8b0d9",
"eS c #b8b2cd",
"## c #b8b3cc",
"bN c #b8b4c7",
".2 c #b8b6bc",
"hB c #b8b6c0",
".R c #b8b7bc",
"gp c #b9b0df",
"gd c #b9b1d8",
"aw c #b9b1d9",
"aQ c #b9b2d7",
"at c #b9b3d1",
"#k c #b9b4cd",
"hD c #b9b7bd",
".g c #b9b7bf",
"fs c #bab1e0",
"aV c #bab2d9",
"hd c #bab3d2",
"fQ c #bab3d8",
"ap c #bab5cf",
"fw c #bab7c7",
"dB c #bab8c5",
".m c #bababa",
".H c #bababc",
"hr c #bababe",
"eI c #bbb4d8",
"g4 c #bbb5d1",
"hf c #bbbabd",
".f c #bbbbbb",
"hg c #bbbbbf",
"gC c #bcb5d7",
"aq c #bcb8cd",
".I c #bcbbbe",
"Qt c #bcbcbc",
"dj c #bdb6d7",
"fv c #bdb6d9",
"aP c #bdb7d3",
"#F c #bdb7d5",
"al c #bdb9cb",
".e c #bdbdbd",
"gX c #bdbdc1",
"fS c #beb6df",
"dG c #beb9cf",
"as c #bebbcd",
"fX c #bebcc4",
".5 c #bebebe",
"bZ c #bfb8de",
"f1 c #bfb9d4",
"dO c #bfb9d5",
"ge c #bfbad3",
"ad c #bfbbd1",
"aH c #bfbfbf",
"d5 c #bfbfc0",
"#J c #c0bbd4",
"gJ c #c0bbd5",
"g1 c #c0bccc",
"h. c #c0bdcc",
"#m c #c0c0c0",
"fF c #c0c0c1",
"cP c #c1badd",
"dQ c #c1bcd4",
"fU c #c1bdd4",
"g2 c #c1becd",
"dw c #c1bfcb",
"aZ c #c1c1c1",
"c5 c #c2badf",
"gb c #c2bbdc",
"#A c #c2bdd4",
"bv c #c2c0c9",
".8 c #c2c1c5",
"aI c #c2c1c6",
"cU c #c2c2c2",
"c3 c #c3bcdc",
"b4 c #c3bed6",
"dh c #c3bed8",
"d8 c #c3bfd3",
"#G c #c3c0d1",
".6 c #c3c3c3",
"b5 c #c3c3c4",
"bg c #c4bfd8",
"dX c #c4c0d2",
"gF c #c4c1d1",
"do c #c4c1d2",
"bE c #c4c3c7",
"bp c #c4c3c9",
".7 c #c4c4c4",
"f9 c #c5bfdb",
"dq c #c5c1d2",
"dd c #c5c2ce",
"f0 c #c5c2d0",
"ax c #c5c4c9",
"#d c #c5c5c5",
"#8 c #c6c4cb",
"aX c #c6c4cd",
"f6 c #c6c4cf",
"dp c #c6c4d1",
"cs c #c6c5c8",
"g7 c #c6c5c9",
"dU c #c6c5cc",
"ai c #c6c6c6",
"bo c #c6c6c7",
"c9 c #c7c3da",
"am c #c7c5d0",
"gr c #c7c5d1",
"bz c #c7c6cc",
"#1 c #c7c7c7",
"#3 c #c7c7ca",
"ga c #c8c4da",
"bX c #c8c6cf",
"ds c #c8c6d0",
"gx c #c8c7ce",
"cf c #c8c8c8",
"cL c #c9c4dc",
"g. c #c9c5d9",
"#O c #c9c7cf",
"aW c #c9c7d1",
"aC c #c9c8cf",
"#2 c #c9c9c9",
"d6 c #c9c9ca",
"#V c #cac9cf",
"#y c #cacaca",
"fr c #cbc7d8",
"di c #cbc8d4",
"bu c #cbcace",
"#n c #cbcbcb",
"gl c #cbcbcc",
"dL c #cbcbce",
"g# c #cccad8",
"#9 c #cccccc",
"aD c #cccccd",
"bD c #ccccce",
"#u c #cdcccf",
"fD c #cdccd0",
"#z c #cdcdcd",
"fP c #cdcdcf",
"f8 c #ceccd7",
"cQ c #cecdd0",
"#o c #cecece",
"dg c #cfced2",
"cT c #cfcfcf",
"c4 c #d0ced9",
"ce c #d0d0d0",
"gv c #d0d0d3",
"cZ c #d1d0d5",
"cq c #d1d1d1",
"d. c #d1d1d5",
"cd c #d2d1d6",
"da c #d2d2d2",
"bJ c #d3d2d5",
"cK c #d3d3d3",
"b0 c #d3d3d4",
"fT c #d3d3d5",
"cV c #d4d3d7",
"bn c #d4d4d4",
"a8 c #d5d5d5",
"cp c #d6d6d6",
"QtQtQt.#.a.b.b.b.b.b.b.b.b.b.b.b.b.b.b.b.c.d.e.eQt.f.f.fQtQtQtQtQt.g.h.b.b.b.b.b.b.i.j.b.b.k.l.m.f.f.f.f.f.f.f.f.n.b.b.b.oQtQtQt",
"QtQtQtQt.p.q.b.b.b.b.b.b.b.b.b.r.k.b.s.t.u.e.e.eQt.f.f.fQtQtQtQtQtQt.v.b.b.b.b.b.w.w.w.w.w.b.i.x.f.f.f.f.f.f.f.f.y.b.b.z.AQtQtQt",
"QtQtQtQtQt.B.b.b.b.b.b.b.b.b.C.D.E.F.G.H.I.e.e.eQt.f.f.fQtQtQtQtQtQt.n.J.b.b.b.b.b.w.w.w.w.b.j.K.f.f.f.f.f.f.L.M.c.b.b.b.k.NQtQt",
"QtQtQtQt.f.O.P.b.b.b.b.b.b.b.Q.R.K.S.T.T.U.VQtQt.f.m.m.m.f.f.f.f.f.f.W.X.b.b.b.b.b.w.w.w.w.b.b.Y.Z.0.1.m.m.2.3.b.b.b.b.b.b.4QtQt",
".5.5.5.5.6.7.8.9.b.b.b.b.b.z#.##.b#a.b.b.b#b#c#d.7.7.7.7.7.7.7.7.7.7#e#f.b.b.b.b.w.w.w.w.w#g.b.b.b.k#h#i#j#k.b.b.b.b.b.b.b#l.5.5",
"#m#m#m#m#n#o#o#p.b.b.b.b#q#a#r#s.b.b.b.b.b.b#t#u#o#o#o#o#o#o#o#o#o#o#o#v.b.b.b.b.w.w.w.w.w.w#g.b.b.b.b.w#q#t.b.b.b.b.b.b#w#x#m#m",
"#m#m#m#m#y#z#z#A#B.b#C#D#E#F#G#H#a.b.b.b.b.b#I#J#z#z#z#z#z#z#z#z#z#z#z#K.b.b.b.b#g.w.w.w.w.w.w#g.b.b.w.w#g.w.w.b.b.b.b.b#L#m#m#m",
"#m#m#m#m#y#z#z#z#M.b#N#O#P#Q#R#S#T.b.b.b.b.b.b#U#z#z#z#z#z#z#z#z#z#z#V#W.b.b.b.b.b.b.w.w.w.w.w.w#g#g.w.w.w.w#q.b.b.b#X#Y#Z#m#m#0",
".5.5.5.5#1#2#2#3#4.z.b#5#6.b.b.b.b.b.b.b.b.b.b#7#8#y#y#y#9#z#z#z#z#z#z#Oa..b.b.b.b.b.w.w.w.w.w.w.w.w.w.w.w.ba#.baaabacadaeafagah",
"QtQtQtQt.7aiaiajak.b.b.b.b.b.b.b.b.b.b.b.b.b.b#wal#1#1#1#9#z#z#z#z#z#zaman.b.b.b#g.w.w.w.w.w.w.w.w.w.w.w.waoapaqarasat#f.k.b.z.b",
"QtQtQtQt.7aiaiau.b.b.b.b.b.b.b.b.b.b.b.b.b.b.b#aav#1#1#1#9#z#z#z#z#z#zaw.k.b.b.b.w.w.w.w.w.w.w.w.w.w.w.w.zajaiai#1#1axay.b.b.b.b",
"QtQtQtQt.7aiaiazaA.b.b.b.b.b.b.b.b.b.b.b.b.b.b.baBaiaiai#9#z#z#zaCaD#zaE.b.b.b#g.w.w.w.w.w.w.w.w.w.w.w.w.zaF#d#d#1#1#1aG.b.b.b.b",
"aHaHaHaH#1#2#2#2aIaJaK.b.baLaMaNaNaNaNaNaNaNaNaNaO#o#o#o#n#y#yaP#BaQ#9aR.b.b.k.waSaMaNaNaNaNaNaNaNaNaNaT.waUaVaW#9#y#yaXaY.b.b.b",
"aZaZaZaZ#y#9#9#9ai#da0a1#ga2a3a4a4a4a4a4a4a5a5a6a7a8a8a8#y#1#1a9.bb.b#ba.b#q#b#gbba3a5a5bcbcbcbcbcbca5bd.b.wbebfbg#z#z#zbh.r.b.b",
"aZaZaZaZ#y#9#9#9ai#d#dbibjbkblblblblblblblblblblbmbnbnbn#ybobpbq.b.w#q.b.w.w.b#gbrblblblblblblblblblblbs.b.w.w#gbtbu#z#zbv#w.b.b",
"aZaZaZaZ#y#9#9#9ai#d#d#dbwbxblblblblblblblblblblbybnbnbnbzbA#7.k.b.w.w.w.w.w.w.wbBblblblblblblblblblblbC.b.w.w.w#g#Q#sbDbEbFbGbH",
"#m#m#m#m#y#9#9#9.7.6.6.6bIbxblblblblblblblblblblbybnbnbJbKaa.b.b.b.w.w.w.w.w.w.wbBblblblblblblblblblblbL.b.w.w.w.w#gbM#9#d#m#mbN",
"#m#m#m#m#y#9#9#9.6aZaZaZbObPblblblblblblblblblblbybnbnbnbQ.b.b.b.b.b.w.w.w.w.w.wbBblblblblblblblblblblbR.b.w.w.w.w.zbS#9#d#m#m#m",
"#m#m#m#m#y#9#9#9.6aZaZaZbTbPblblblblblblblblblblbybnbnbnbU.z.b.b.b.b.b.w.w.w.w.wbBblblblblblblblblblblbR.b.w.w.wbVbWbX#9#d#m#m#m",
"#m#m#m#m#y#9#9#9.6aZaZaZbYbPblblblblblblblblblblbybZb0bnb1.b.b.b.b.b#f.w.w.w.w.wbBblblblblblblblblblblbR.b.wb2b3b4#9#9#9#d#m#m#m",
"#m#m#m#m#y#9#9#9#d.7.7b5b6b7blblblblblblblblblblbyb8b9bnb1.b.b.b.b.bc.c##g#g#g.wbBblblblblblblblblblblcacbcccda8ce#9#9#9#d#m#m#m",
"aZaZaZaZ#n#z#z#zcf#1#1cgchb7blblblblblblblblblblby.bcicjck.b.b.b.b.b.zcl.b#g#g.wcmblblblblblblblblblblcncocpcpcpcq#z#z#zaiaZaZaZ",
"aZaZaZaZ#n#z#z#zcf#1#1#1crb7blblblblblblblblblblby.b.b.b.b.b.b.b.b.b.b#g.w.w.w.wcmblblblblblblblblblblcncocpcpcpcq#z#z#zaiaZaZaZ",
"aZaZaZaZ#n#z#z#zcf#1#1csctcublblblblblblblblblblcv.b.b.b.b.b.b.b.b.b.b.w.w.w.w.wcwblblblblblblblblblblcxcycpcpcpcq#z#z#zaiaZaZaZ",
"aHaHaHaH#y#9#9#9cf#1#1#1czcAcBcBcBcBcBcBcBcBcBcBcC.b.bcDcE#a.b.b.b.b.w.w.w.w.w.wcFcGcBcBcGcHcHcHcHcHcHcIcJa8a8a8ce#9#9#z.7.5aHaH",
"QtQtQtQt#2#9#9#9cf#1#1#1cKcpcLcMcNcNcNcNcNcNcNcN#g.bcOcPcQcR.b.b.b#g.w.w.w.w.w.w.w.w.w.w.w.w.w#g.bcSbnbnbnbnbnbncT#9#9#zcU.fQtQt",
"QtQtQtQt#2#9#9#9cf#1#1#1cKcpcVcWcNcNcNcNcNcNcNcN#gcXcYcZcTc0aa#g#g.w.w.w.w.w.w.w.w.wc1#g#g.b.b.bc2c3bnbnbnbnbnbncT#9#9#zcU.fQtQt",
"QtQtQtQt#2#9#9#9cf#1#1#1cKcpcpc4c5c6c7cN#g#gcNcNc8c9d.bncTaw.b.w.w.w.w.w.w.w.w.w.w.w#gcN#g.b.b.bd#bnbnbnbnbnbnbncT#9#9#zcU.fQtQt",
".5.5.5.5#2#9#9#9#y#y#y#ycedadadadadbaa.w.w.w.w#gdccqcqcq#9ddc##a.w.w.w.w.w.w.w.w.w.w#gde#a#a.bdfcqcqcqcqcqdgdhdi#o#9#9#z.6.e.5.5",
"#m#m#m#m#y#z#z#z#z#z#z#z#z#zdjdkdl.b.w.w.w.w.w.wdm#z#z#zcf#1#1dn.w.w.w.w.w.w.w.w.w.w#Wdodpdqdr#z#z#zaC#zdsaE#adt#z#z#z#z#d#m#m#m",
"#m#m#m#m#y#z#z#z#z#z#z#zdudv.b.b.b.b#g.w.w.w.w.w#Q#z#z#zcf#1#1dwcE.w.w.w.w.w.w.w.w.wdxdt#z#z#z#zdsbKdydzdA.b.b#E#z#z#z#z#d#mdBdC",
"#m#m#m#m#y#z#z#z#z#z#z#AdD.w#g#g.w.w.b.w.w.w.w.w#YdsdEdFdGbo#1#1bS.w.w.w.w.w.w.w.w.w.bdHdI#z#z#zdJ#a.baa.b.b.bdKdL#zdLdL#ddMdN.b",
"#m#m#m#m#y#zaw#sdOdPdQdR.w.w.w.w.w.w.b.b.b#g.w.wdS#Q.b.b#qdT#ydUdV#g.w.w.w.w.w.w.w.w#g.bdWdX#z#VdY.b.b.b.b.b.bdZdXd0d1d2d3d4.b.b",
"#m#m#md5d6bM#g.z.b.bcR.b#g.b.w.w.waadY.b.b.b#g.w.b.b.b#g.w.bd7d8d9#g.w.w.w.w.w.w.w.w.w.b.zdu#AdK#C.b.b.b.b.b.b.b#CcE.baa.b.b.w.w",
"#m#mdBbH#g.w.w.w#g.b#Q.b.b.b.b.w.w#qe.#g.b.b.b.b.b.b.w.w.w.w.w#ae#.z.w.w.w.w.w.w.w.w.w.b.bea#q.w.w#g.w.w.b.b.b.b.b.b.b.b.b#g.w.w",
"#mebec.w.w.w.w.w.w#g#a.b.b.b#g.w.w.w.w.w.w#g.b.b.b.w.w.w.w.w.w.b.w.w.w.w.w.w.w.w.w.w.w.b#g.w.w.w.w.w.w#g.b.b.b.b.b.b.b.w.w.w.w.w",
"edeeah.b#g.w.w.w.w.w.w.b.b.w.w.w.w.w.w.w.w.w.b#g.w.w.w.w.w.w#g.b.w.w.w.w.w.w.w.w.w.w.w.w.w.w.w.w.w.w.w.b#Qci.b.b.b.b.b.w.w.w.w.w",
".b#g.w#g.b#g.w.w.w.w.b.b#g.w.w.w.w.w.w.w.w.w.w.w.w.w.w.w.w#g.b.b.b.w.w.w.w#g.w.w.w.w.w.w.w.w.w.w.w.w.w.wefegdH.b.b.b.b.w.w.w.w.w",
".b.w.w.w.b.b.b#g#g.b.b#g.w.w.w.w.w.w.w.w.w.w.w.w.w.w.w.w.w.w.w.w.b.w.w.w.w.b.w.w.w.w.w#g#g.w.w.w.w.w.w.w.w#ab.#C.w.w#q#q.w.w.w.b",
"#g.w.w.w.b.b.b.b.b.b#g.w.w.w.w.w.w.w.w.w.w.w.w.w.w.w.w.w.w.w.w.w.b.w.w.w.w#g#g.b.b.w.w#g#g.w.w#g.w.w.w.w.w.w#g.b#g#g.b.b#g.w.b.b",
"eh.w.w.w.b.b.b.b.b.w.w.w.weiejekekekekekelelelemen.w.w.w.w.w.w#g.b.b.w.w.w.zeoepeqejekekeresesesekelemet.w.w.w#g.b.b.b.b.b.beuee",
"ev.b#g#g.b.b.b#g.w.w.w.w.wewblblblblblblblblblblex.w.w.w.w.w.w.w.b.b.w.w.w#geybvezblblblblblblblblblbleA.w.w.w#g.b.b.b.b.b.beBeC",
"eD.b.b.beEdZea#g.w.w.w.w.wb7blblblblblblblblblblby.w.w.w.w.w.w.w#g.w.w.w.w#geFbvcmblblblblblblblblblblcn#g.wc1cN.b.b.b.b.b.beGeH",
".b.b.b.b#adFeI.z.w.w.w.w.weJblblblblblblblblblblby.w.w.w.w.b.b.b.b.b.b.wdDeK#aeLcmblblblblblblblblblbleM.z.wc1cN.b.b.b.b#aeNeO.b",
".b.b.b.b.bcieP.w.w.w.w.w.weQblblblblblblblblblbleR.w.w.w#g.b.b.b.b.b.b.b.aeSeTeUeVblblblblblblblblblblbReWeX#g.b.b.b.b.b.beYaHeZ",
".b.b.b.z#qe0#f.b#g.b.b#g.we1blblblblblblblblblble2.w.w.w.b.b#g.b.b.b.b.b.be3e4e5e6blblblblblblblblblblcae7dpbM.b.b.b.b.b.be8QtQt",
".be9.#f.aAeD#q.b.b.b.b.b.be1blblblblblblblblblble2.w.w#g.b.w.w.w.w.w.w#g#g.b.b.we6blblblblblblblblblblcaf##zbDfa.b.b.b.b.b.jfbQt",
"fcfd.z.b.b.w.w#g.b.b.b.b.wfeblblblblblblblblblble2.w.w.b#g.w.w.w.w.w.w.w.w.w#g.we6blblblblblblblblblblbCff#z#z#Q.b.b.b.b.b.bfgQt",
"fh.b.b.b.b.w.w.w.b.b.b.w.wfiblblblblblblblblblblfjfk.bbVfl#g#g.w.w.w.w.w.w.w.w.wfmblblblblblblblblblblfnfo#o#ofp.b.b.b.b.b.bfq.5",
".b.b.b.b#g.w.w.w.b.b.b.w.wfeblblblblblblblblblblbyfrfsft.b.b.b#g.w.w.w.w.w#g.w.wcmblblblblblblblblblblfnfucTcTfv.b.b.b.b.b.b.zfw",
".w#g.b.b.b#g.w.w.b.b.b.b.wfxblblblblblblblblblblfybJfz#g.w#g#g#g.w.w.w.w.w#g.w.wfAblblblblblblblblblblfBfCcTcTfDdW.z.b.b.b.bfEfF",
".w.w#g.b.b.b#g#g.b.b.b#g.wfGfHfHfHfHfHfHfHfIfIfIfJfKci.w.w.w.w.w#g.w.w.w.w#g.w.wfLfMfIfIfIfIfIfIfIfIfIfNfOcTcTcTfPfQd1#q.b.bfRaZ",
"#g.w.z.z.b#aba#a.b.b.b.w.w.w.w#g#g#g#g.w.w.wc1c1#g.w.w.w.w.w.w.w.w.w.w.w#g.w.w.w.w.w.w.w#gfSa8a8a8a8a8fTcecqcqcq#o#z#zfUfVakfWfX",
".b.b.zfYfZf0f1#q.b.b.b.w.w.w#gc1.w#gc1.w.w.wcN#g.w.w.w.w.w.w.w.w.w.w.w.w.b.w.w.w.w#gc1.w.wf2bnbnbnbnbnbnbnbnbnbncT#9#9#9#df3aZaZ",
".b.bf4f5#y#9f6dY.b.b#g.w.wc1c1.w.w#gc1.wc1#gcNc1.w.w.w.w.w.w.w.w.w.w.w.w#Qci.w.w.wcNcNcN.wf7f8f9g.g#gagbd.bnbnbncT#9#9#9#daZaZaZ",
".w.zgcaZ#y#9#9gdfl.b.b.w.wc1.w.wc1cNc1c1#g.z#g.w.w.w.w.w.w.w.w.w.w.w.waogegf.w.w.bcNcNcN#aggghgicO#I#agjg.bnbnbncT#9#9#9#daZaZaZ",
".wgkaZaZ#y#9#9glgm#a.b.w.w.w.w.w.w#C#agngogpbV.w.w.w.w.w.w.w.w.w.w.waagq#9graa#I.w#g.b.b#agsgt.b.b.b.zgugvdadada#o#9#9#9#daZaZaZ",
".zgwaZaZ#n#z#z#zgxgy.b#q#g.b.w.w.w#gc0#9#z#z#B#g.w.w.w.w.waa#q.w.w.w.wgzeIgA.z.b.bdx.b.baa#UgB.b.b.b#qgC#z#z#z#z#z#z#z#zaiaZaZaZ",
"ahgDfXaZ#n#z#z#z#9f0gE#Q#g#g.w#g.b#qgF#9#zbDgG.b#g.b.w.w#adm#q.b.w.w.wdu#f.b.b.b.bgHdV.baagIgJd1.b.b#B#O#z#z#z#z#z#z#z#zaiaZaZaZ",
"gKgLaZaZ#n#o#o#o#z#z#zc0fl.w.b.b.bfabu#z#ogM#g.wdWgN#a#g#WgO.z.b.b.wcEgP.b.b.b.b.bgQgRgS.zgT#ogRea.bgUgVgWaW#o#o#o#o#o#oaiaZaZaZ",
"gXaHaHaH#1cfcfcf#1#1#1#1gY.b.bgZg0g1#1#1cfg2aa.bg3g4g5dDg6g7g8.b.b.bg9gQ.b.b.b.b.beFh.h#hag6cfcfhb.khc.b.zhdcfcfcfcfcfcf.6aHaHaH",
"hehfQtQtQtQtQtQtQtQtQtQthghhhi.eQt.f.f.f.fhjhk.b.qhlhm.bhkhnho.w.b.bhpf..b.b.b.b.bhqhrQthsht.f.fhu.J.b.b.bhv.f.f.f.f.f.fQtQtQtQt",
".rhwQtQtQtQtQtQtQtQtQtQt.e.e.e.eQt.f.f.f.f.f.X.b.b.whx.w.w.b.b.w.we9hyhz.b.b.b.b.JhAQthBhvhChD.fhE.k.b.b.b.jhF.H.f.f.f.fQtQtQtQt",
"hGhHQtQtQtQtQtQtQtQtQtQt.e.e.e.eQt.f.f.f.fhI.Y.b.w.w.w.w.w.w.b.w.w.bhJ.G.b.b.bhxhKQthBhL.b.zhMhNhk.b.b.b.b.b.shO.f.f.f.fQtQtQtQt"};
