/* XPM */
static char *dummy[]={
"64 64 660 2",
"bV c None",
"by c #c1c1c1",
"bz c #c4c4c4",
"bB c #c5c5c5",
"bA c #c6c6c6",
"bK c #c7c7c7",
"dl c #c0c0c0",
"gN c #c6c6c6",
"fD c #cdcdcd",
"gH c #d0d0d0",
"dh c #d9d9d9",
"fz c #e6e6e6",
"b5 c #c5c5c5",
"ct c #c1c1c1",
"cX c #c3c3c3",
"cm c #c4c4c4",
"ce c #c5c5c5",
"fX c #c6c6c6",
"c9 c #c7c7c7",
"gy c #cacaca",
"bU c #dddddd",
"f0 c #cfcfcf",
"f7 c #d0d0d0",
"gk c #d1d1d1",
"gs c #d2d2d2",
"fN c #d7d7d7",
"cr c #d8d8d8",
"cO c #d9d9d9",
"c. c #dadada",
"bL c #c5c5c5",
"bx c #d5d5d5",
"dk c #d2d2d2",
"gM c #d2d2d2",
"fC c #d5d5d5",
"b4 c #d4d4d4",
"g# c #cfcfcf",
"gx c #d0d0d0",
"f5 c #d1d1d1",
"c8 c #d2d2d2",
"cd c #d3d3d3",
"gS c #d4d4d4",
"gT c #d6d6d6",
"g0 c #d7d7d7",
"bJ c #d2d2d2",
"g1 c #d2d2d2",
"gR c #d3d3d3",
"dv c #dcdcdc",
"du c #dddddd",
"dp c #dedede",
"dw c #d9d9d9",
"do c #dcdcdc",
"gZ c #d1d1d1",
"dt c #d7d7d7",
"fm c #cbcbcb",
"fp c #cdcdcd",
"fv c #c8c8c8",
"fu c #c9c9c9",
"fn c #cbcbcb",
"fo c #cdcdcd",
"fw c #cccccc",
"fl c #cccccc",
"di c #d8d8d8",
"gI c #d8d8d8",
"fA c #d9d9d9",
"bW c #d8d8d8",
"f8 c #d4d4d4",
"gt c #d6d6d6",
"f1 c #d7d7d7",
"c# c #d8d8d8",
"bC c #d8d8d8",
"ft c #cbcbcb",
"gU c #d7d7d7",
"dq c #d8d8d8",
"fq c #d0d0d0",
"gO c #cccccc",
"dm c #d1d1d1",
"ga c #c9c9c9",
"gp c #cacaca",
"gz c #cbcbcb",
"gB c #cccccc",
"cu c #cdcdcd",
"cn c #cfcfcf",
"bM c #d0d0d0",
"d. c #d1d1d1",
"ck c #cfcdd4",
"b9 c #d0ced5",
"cq c #d0d0d0",
"g2 c #cccccc",
"cB c #bfb9d9",
"cN c #b8afde",
"cw c #bbb3db",
"dx c #d3d3d3",
"dn c #d3d3d3",
"dg c #a493ea",
"fx c #cdcdcd",
"bT c #9a85ef",
"bj c #a596e3",
"db c #8466f9",
"bi c #7a58fe",
"c1 c #8061fb",
"bo c #8d74f1",
".b c #7957fe",
"bw c #7957ff",
".z c #7958fe",
"bN c #7958ff",
"az c #7a58fe",
".q c #7a59fd",
"#a c #7a59fe",
".a c #7a5afd",
".r c #7b5afc",
"#r c #7b5afd",
"hn c #7b5afe",
".p c #7b5bfc",
"dN c #7b5bfd",
"hD c #7b5bfe",
"aN c #7c5bfc",
"bO c #7c5bfd",
".v c #7c5cfb",
"aX c #7c5cfc",
"#K c #7c5cfd",
"fE c #7d5cfc",
"d1 c #7d5cfd",
"#F c #7d5dfb",
"#Q c #7d5dfc",
"aJ c #7d5efa",
"dc c #7d5efb",
"aO c #7e5efa",
"aj c #7e5efb",
"fH c #7e5efc",
".Z c #7e5ff9",
"gl c #7e5ffb",
"fM c #7f5ffb",
"fb c #7f60f9",
"#b c #7f60fa",
"ai c #7f60fb",
"dB c #7f60fc",
"gb c #7f61f8",
"a7 c #7f61f9",
"bv c #8061f9",
"ag c #8061fa",
"im c #8062f7",
"af c #8062f9",
"c3 c #8062fa",
"ig c #8063f6",
"aw c #8162f9",
"cc c #8162fa",
"ik c #8163f6",
"aG c #8163f7",
"c4 c #8163f8",
"fZ c #8163f9",
"eH c #8163fa",
"gi c #8164f6",
"eG c #8164f7",
"#8 c #8263f9",
"aq c #8264f8",
"#J c #8264f9",
"dV c #8264fa",
".o c #8265f5",
"hR c #8365f8",
"hX c #8365f9",
"hc c #8365fa",
"cj c #8366f6",
"cF c #8366f8",
"av c #8367f6",
"d5 c #8466f8",
"cP c #8466fa",
"eO c #8467f5",
"cG c #8467f8",
".c c #8468f3",
"bI c #8468f6",
"hM c #8468f7",
"dJ c #8567f9",
"fe c #8568f5",
"eS c #8568f7",
"#x c #8568f8",
"eK c #8569f7",
"iq c #856af1",
"fO c #8669f7",
"dr c #8669f9",
"il c #866af2",
"#2 c #866af5",
"aA c #866af6",
"#U c #866af7",
".u c #866bf1",
"h4 c #876af7",
"cI c #876af8",
"dA c #876af9",
"ci c #876bf3",
"#7 c #876bf6",
"h. c #876bf8",
"bF c #886cf5",
"fG c #886cf6",
"ba c #886df1",
"e6 c #886df3",
"ar c #886df4",
"e# c #886df5",
".s c #886eef",
"bt c #886ef2",
"dj c #886ef3",
"eA c #896df5",
"gX c #896df7",
"g3 c #896ef1",
"ax c #896ef4",
"ec c #896ef5",
"e1 c #896ff2",
"hE c #896ff3",
".w c #8970ed",
"a1 c #8970f0",
"ab c #8a6ef5",
"eC c #8a6ff4",
"fK c #8a70f2",
"fI c #8a70f4",
"fV c #8b71f1",
"e5 c #8c72f0",
"cH c #8c72f1",
"fF c #8c72f3",
"#C c #8c73f1",
"fJ c #8c73f3",
"a. c #8d73f2",
"h2 c #8d73f3",
"fy c #8d74ed",
"hb c #8d74f1",
"hG c #8d75ed",
".F c #8d76ea",
"dW c #8e73f5",
"el c #8e75f1",
"h0 c #8e75f2",
".B c #8e77e9",
"eD c #8f76f1",
"ap c #8f77ee",
"a5 c #8f77ef",
"e8 c #8f78eb",
"hk c #9077f4",
"c5 c #9078ee",
"cR c #9078f0",
"bh c #9079ec",
"eW c #9079ef",
".C c #907ae6",
".O c #907ae8",
"dE c #9179f0",
"cs c #9179f1",
"b6 c #9179f2",
".# c #917be7",
".9 c #917beb",
".h c #917ce5",
"in c #917ce6",
"ek c #927af0",
"hI c #927af1",
"bR c #927bec",
"ay c #927bed",
"gr c #927bee",
".3 c #927de4",
"hr c #937af3",
"gK c #937cf0",
"ir c #937ee4",
".Q c #937fe4",
"b1 c #947eee",
".t c #9480e4",
"hL c #957ef1",
"c2 c #957ef2",
"dd c #957fe9",
"e0 c #957feb",
"hQ c #957fed",
"ei c #957fee",
"#m c #9580e4",
"fs c #9580e9",
".W c #9581e3",
".N c #9582e1",
".A c #9582e2",
"#u c #967fee",
"b3 c #9680eb",
"eh c #9680ed",
"aY c #9681e9",
"hm c #9780f2",
"ah c #9781ed",
"b0 c #9782e9",
"ey c #9782eb",
"aM c #9783e4",
"gC c #9783e5",
"gw c #9783e6",
"e9 c #9783e7",
"gm c #9882ed",
"f6 c #9883e8",
"#L c #9883eb",
"#f c #9884e6",
"eu c #9984eb",
"gY c #9985e6",
"hv c #9985e8",
"aF c #9987e0",
"ch c #9987e3",
".R c #9988dc",
"dI c #9a84f0",
"#4 c #9a85eb",
"bP c #9a85f1",
"#3 c #9a86ea",
"ak c #9a86eb",
"co c #9b87ea",
"bd c #9b88e6",
"#9 c #9b88ea",
"cb c #9b89e6",
"fi c #9b8ae1",
".L c #9b8bdb",
"gd c #9b8bdc",
"hu c #9c88ef",
"ev c #9c89ea",
"hz c #9c8ae1",
"id c #9c8cdb",
".m c #9c8cdc",
"#1 c #9d89e9",
"h7 c #9d89ea",
"aE c #9d8cdd",
"fk c #9d8cdf",
"#. c #9d8ce1",
".E c #9d8dda",
"gc c #9d8eda",
"d4 c #9e8be7",
"#V c #9e8be9",
"cy c #9e8bea",
"ac c #9e8ce9",
".G c #9e8fd9",
"aP c #9e8fdd",
"g8 c #9f8bee",
"dO c #9f8ce8",
"fU c #9f8ee3",
"b# c #9f8fde",
"au c #9f8fe1",
"ij c #9f90d9",
".K c #9f91d7",
"eP c #a08ee5",
"ez c #a08ee8",
"eY c #a090dc",
"g. c #a090de",
"#k c #a090df",
"fc c #a090e1",
"hU c #a18fe6",
".X c #a193d7",
".V c #a194d4",
"ew c #a290e6",
"dM c #a291e6",
"#Z c #a293e1",
".i c #a295d4",
"hx c #a390ec",
"ef c #a392e6",
"eo c #a393e5",
"#g c #a394dd",
"h5 c #a493e6",
"cx c #a493e7",
"ao c #a495e0",
"a8 c #a496dd",
"a2 c #a497d8",
"fh c #a497da",
"aD c #a497db",
".4 c #a498d4",
"dK c #a594ea",
"#s c #a595e5",
"h# c #a596e3",
"aZ c #a597dd",
".T c #a59ad0",
".y c #a59ad2",
"dQ c #a696e4",
"cE c #a696e6",
"eV c #a697e1",
"gP c #a699d8",
"bb c #a69ad6",
"cJ c #a796e9",
"gu c #a797e7",
"#q c #a798e4",
"hH c #a799e0",
"gj c #a79cd1",
"fL c #a899e3",
"bp c #a899e4",
"cv c #a89ae2",
".g c #a89ece",
".0 c #a89fcb",
"hW c #a99ae2",
"ha c #a99bde",
"gQ c #a99be2",
"fW c #a99cdb",
"eF c #a99fd4",
"g5 c #aa9ce1",
"dF c #aa9ce2",
"#0 c #aa9de0",
"bu c #aa9fd9",
".U c #aaa2cb",
"eM c #ab9de1",
"c6 c #ab9fd9",
"fB c #aba0d9",
".n c #aba2cd",
"dU c #ac9ce8",
"a# c #ac9ee1",
"#M c #ac9fe0",
"gg c #ac9fe2",
"ds c #aca0dc",
"f4 c #aca1d8",
"gq c #aca4ce",
"d2 c #ad9fe4",
"hh c #ad9fe8",
"gf c #ada2d9",
"e4 c #ada3d7",
".x c #ada6c8",
"cQ c #aea0e6",
"dP c #aea1df",
"cV c #aea3d8",
"bE c #aea3d9",
"f3 c #aea4d5",
"#G c #aea5d0",
"aI c #afa5d7",
"gD c #afa6d1",
"bg c #afa6d3",
"am c #afa7cf",
"ih c #afa9ca",
"#P c #b0a4dd",
"aU c #b0a6d7",
"bS c #b0a7d5",
"aL c #b0a8ce",
".D c #b0aac6",
"io c #b0aac8",
"ii c #b0aac9",
".P c #b0abc6",
"hj c #b1a4e6",
"#T c #b1a6dd",
"fg c #b1a9d4",
"eN c #b1aacd",
"hp c #b1aacf",
".Y c #b1adc3",
"hy c #b2a5e4",
"ho c #b2a6e4",
"eR c #b2a7da",
"et c #b2a7dc",
"hT c #b2a7dd",
"h3 c #b2a7de",
"gG c #b2a8dd",
"cU c #b2a9d5",
"al c #b2aad3",
"#j c #b2abce",
"eI c #b3a8dc",
"#6 c #b3a9db",
"#t c #b3a9dc",
"ff c #b3abd2",
"go c #b3accd",
".M c #b3aec4",
".d c #b3aec7",
"if c #b3afc3",
"fT c #b4aadb",
"ep c #b4aadc",
"aB c #b4abd8",
"c0 c #b4acd4",
"ib c #b4acd6",
"aQ c #b4afca",
"ee c #b5abdb",
"hY c #b5acdb",
"ic c #b5add5",
"ge c #b5aed0",
"ex c #b5b0ca",
"#y c #b6acdc",
"e. c #b6adda",
"eL c #b6addb",
"h1 c #b6addc",
"#c c #b6afd0",
"gW c #b7ace1",
"eb c #b7aed9",
"#E c #b7aedb",
"eg c #b7afda",
"a6 c #b7b0d1",
"aR c #b7b2ce",
"ip c #b7b5bf",
".l c #b7b5c0",
"## c #b8b3cc",
"cp c #b8b4c7",
".2 c #b8b6bc",
".S c #b8b7bc",
"hB c #b9aee3",
"hA c #b9b1d8",
"dZ c #b9b1d9",
"cT c #b9b2d3",
"bl c #b9b2d7",
"aW c #b9b3d1",
"bn c #b9b4cd",
".j c #b9b8bd",
".1 c #b9b9b9",
"eE c #bab2d8",
"bq c #bab2d9",
"ia c #bab3d2",
"cz c #bab3d7",
"f# c #bab5cd",
"hf c #bab7c7",
".k c #bababa",
".H c #bababc",
"gA c #bbb4d5",
"#D c #bbb4d6",
"ed c #bbb4d7",
"d9 c #bbb6cf",
"f2 c #bbb7cb",
"hO c #bbb8c6",
"a0 c #bbb9c6",
"ie c #bbbabd",
".f c #bbbbbb",
".J c #bbbbbd",
"gJ c #bcb3df",
"eT c #bcb6d4",
"hS c #bcb6d6",
"ae c #bcb7cf",
"aT c #bcb8cd",
"bc c #bcb9ca",
"g4 c #bcbac5",
".I c #bcbbbe",
"Qt c #bcbcbc",
"d8 c #bdb6d7",
"bk c #bdb7d3",
"#N c #bdb7d5",
"aK c #bdb9cb",
"#l c #bdbaca",
".e c #bdbdbd",
"h9 c #bdbdc1",
"gL c #beb8d6",
"bH c #beb9d1",
"gF c #beb9d3",
"b2 c #beb9d4",
"#B c #bebacf",
"fd c #bebbca",
"aV c #bebbcd",
".5 c #bebebe",
"cC c #bfb8de",
"d6 c #bfb9d5",
"bG c #bfbad4",
"cW c #bfbbcd",
"aC c #bfbbd1",
"bm c #bfbdc8",
"e7 c #bfbec1",
"fj c #bfbec2",
"gE c #bfbec3",
"be c #bfbfbf",
"a3 c #bfbfc0",
"hl c #c0b8e0",
"fP c #c0bad5",
"#R c #c0bbd4",
"eZ c #c0bdc9",
"fr c #c0bec8",
"de c #c0beca",
"#n c #c0c0c0",
"gh c #c0c0c1",
"fa c #c0c0c2",
"dC c #c1badd",
"dR c #c1bcd4",
"ad c #c1bdcf",
"i. c #c1becd",
"hN c #c1bece",
"f. c #c1c0c8",
"#i c #c1c1c1",
"dT c #c2badf",
"#I c #c2bdd4",
"cS c #c2bed1",
"hg c #c2bed2",
"ej c #c2bed3",
"b8 c #c2c0c9",
".8 c #c2c1c5",
"bf c #c2c1c6",
"e2 c #c2c1c7",
"#h c #c2c2c2",
"g9 c #c3bddd",
"h6 c #c3bed4",
"#O c #c3c0d1",
"aS c #c3c1c8",
".6 c #c3c3c3",
"cM c #c3c3c4",
"#e c #c3c3c5",
"e3 c #c3c3c6",
"g7 c #c4bdde",
"bQ c #c4bfd8",
"hZ c #c4c0d2",
"aa c #c4c0d4",
"cg c #c4c3c7",
"bZ c #c4c3c9",
".7 c #c4c4c4",
"c7 c #c4c4c5",
"cK c #c5bfdb",
"er c #c5c1d2",
"d3 c #c5c2ce",
"fS c #c5c2d0",
"eB c #c5c2d2",
"#w c #c5c2d3",
"eU c #c5c3cd",
"fQ c #c5c3d0",
"a4 c #c5c4c9",
"i# c #c5c4ca",
"#d c #c5c5c5",
"hC c #c6c0dd",
"ea c #c6c3d1",
"as c #c6c4cb",
"bs c #c6c4cd",
"hq c #c6c4cf",
"df c #c6c5c8",
"f9 c #c6c5cb",
"aH c #c6c6c6",
"bY c #c6c6c7",
"dX c #c7c3da",
"hV c #c7c5d1",
"ca c #c7c6cc",
"#Y c #c7c7c7",
"an c #c7c7ca",
"gv c #c8c5d6",
"cA c #c8c6cf",
"d7 c #c8c6d0",
"eX c #c8c7cb",
"hP c #c8c7ce",
"#A c #c8c8c8",
"dz c #c9c4dc",
"g6 c #c9c5da",
"gn c #c9c6d2",
"#5 c #c9c7cf",
"br c #c9c7d1",
"eQ c #c9c8cb",
"en c #c9c8ce",
"a9 c #c9c8cf",
"#X c #c9c9c9",
"eq c #c9c9ca",
"gV c #cac6d9",
"es c #cac9cd",
"#S c #cac9cf",
"#z c #cacaca",
"cY c #cbc7db",
"hd c #cbc8d9",
"fR c #cbcacd",
"b7 c #cbcace",
"#o c #cbcbcb",
"em c #cbcbcc",
"eJ c #cbcbce",
"#W c #cccbce",
"at c #cccccc",
"b. c #cccccd",
"cf c #ccccce",
"#v c #cdcccf",
"#H c #cdcdcd",
"h8 c #cdcdcf",
"hw c #cecbda",
"hJ c #ceccd5",
"dD c #cecdd0",
"#p c #cecece",
"cL c #ceced0",
"ht c #cfcdd9",
"hK c #cfced5",
"dG c #cfcfcf",
"dS c #d0ced9",
"cZ c #d0d0d0",
"dL c #d1d0d5",
"da c #d1d1d1",
"dY c #d1d1d5",
"d0 c #d2d2d2",
"hF c #d2d2d6",
"cl c #d3d2d5",
"dy c #d3d3d3",
"cD c #d3d3d4",
"he c #d3d3d5",
"dH c #d4d3d7",
"bX c #d4d4d4",
"hs c #d5d4d6",
"bD c #d5d5d5",
"hi c #d6d5d6",
"d# c #d6d6d6",
"fY c #d7d7d7",
"QtQtQt.#.a.b.b.b.b.b.b.b.b.b.b.b.b.b.b.b.c.d.e.eQt.f.f.fQtQtQtQtQtQtQtQtQtQtQtQt.g.h.i.j.k.k.k.k.f.f.f.f.f.f.f.f.l.b.b.b.mQtQtQt",
"QtQtQtQt.n.o.b.b.b.b.b.b.b.b.b.p.q.b.r.s.t.e.e.eQt.f.f.fQtQtQtQtQtQtQtQtQtQtQtQt.u.b.v.c.w.x.k.k.f.f.f.f.f.f.f.f.y.b.b.z.AQtQtQt",
"QtQtQtQtQt.B.b.b.b.b.b.b.b.b.C.D.E.F.G.H.I.e.e.eQt.f.f.fQtQtQtQtQtQtQtQtQtQtQt.J.K.b.b.b.b.L.k.k.f.f.f.f.f.f.M.N.c.b.b.b.q.OQtQt",
"QtQtQtQt.f.P.Q.b.b.b.b.b.b.b.R.S.T.U.V.V.W.XQtQt.f.k.k.k.f.f.f.f.f.f.f.f.f.f.f.f.Y.Z.b.b.q.0.1.1.k.k.k.k.k.2.3.b.b.b.b.b.b.4QtQt",
".5.5.5.5.6.7.8.9.b.b.b.b.b.z#.##.b#a.b.b.b#b#c#d.7.7.7.7.7.7.7.7.7.7.7.7.7.7.7#e#f.z.b.b.b#g.6.6#h#i#i#j#k#l.b.b.b.b.b.b.b#m.5.5",
"#n#n#n#n#o#p#p#q.b.b.b.b#r#a#s#t.b.b.b.b.b.b#u#v#p#p#p#p#p#p#p#p#p#p#p#p#p#p#p#w#a.b.b.b.b#x#y#p#z#A#B#C#D#E.b.b.b.b.b.b#F#G#n#n",
"#n#n#n#n#z#H#H#I#J.b#K#L#M#N#O#P#a.b.b.b.b.b#Q#R#H#H#H#H#H#H#H#H#H#H#H#H#H#H#H#S#T#U.b.b.b.z#V#W#X#Y#Z.z#0#1.b.b.b.b.b.b#2#n#n#n",
"#n#n#n#n#z#H#H#H#3.b#4#5#6#7#8#9a..b.b.b.b.b.ba##H#H#H#H#H#H#H#H#H#H#H#H#H#p#p#p#paaab.b.b.b#Jacadaeaf.bagahai.b.b.bajakal#n#nam",
".5.5.5.5#Y#X#Xanao.z.bapaq.b.b.b.b.b.b.b.b.b.baras#z#z#zat#H#H#H#H#H#H#H#X#Y#Y#Y#Y#Yar.b.b.b.b.bauav.z.bawaxay.bazaAaBaCaDaEaFaG",
"QtQtQtQt.7aHaHaIaJ.b.b.b.b.b.b.b.b.b.b.b.b.b.b#FaK#Y#Y#Yat#H#H#H#H#H#H#H#d#n#n#naLaMaN.b.b.b.b.b.baOaPaQaRaHaSaTaUaVaWaX.q.b.z.b",
"QtQtQtQt.7aHaHaY.b.b.b.b.b.b.b.b.b.b.b.b.b.b.b#aaZ#Y#Y#Yat#H#H#H#H#H#H#H#d#i#ia0a1.b.b.b.b.b.b.b.ba2a3#n.7aHaHaH#Y#Ya4a5.b.b.b.b",
"QtQtQtQt.7aHaHa6a7.b.b.b.b.b.b.b.b.b.b.b.b.b.b.ba8aHaHaHat#H#H#Ha9b.#H#H#d#i#ib##r.b.b.b.b.b.b.b.bbabbambc#d#d#d#Y#Y#Ybd.b.b.b.b",
"bebebebe#Y#X#X#Xbfbgbh.b.b.b.b.b.b.b.b.b.b.b.bbibj#p#p#p#o#z#zbk#Jblatat#Ybmbn.p.b.b.b.b.b.b.b.b.b.b.b.bbobpbqbrat#z#zbsbt.b.b.b",
"#i#i#i#i#zatatataH#dbubvbwbxbybzbzbzbzbzbzbAbAbBbCbDbDbD#z#Y#YbE.bbFbGatbHawbI.bbJbybAbAbKbKbKbKbKbKbAbLbMbNbObPbQ#H#H#HbR.p.b.b",
"#i#i#i#i#zatatataH#d#dbSbTbUbVbVbVbVbVbVbVbVbVbVbWbXbXbX#zbYbZb0.b.bb1b2b3.b.b.bb4bVbVbVbVbVbVbVbVbVbVb5bMbNbNbNb6b7#H#Hb8#F.b.b",
"#i#i#i#i#zatatataH#d#d#db9c.bVbVbVbVbVbVbVbVbVbVc#bXbXbXcacbar.q.b.b.bcc.b.b.b.bcdbVbVbVbVbVbVbVbVbVbVcebMbNbNbN.z#7#tcfcgchcicj",
"#n#n#n#n#zatatat.7.6.6.6ckc.bVbVbVbVbVbVbVbVbVbVc#bXbXcl#Vaz.b.b.b.b.b.b.b.b.b.bcdbVbVbVbVbVbVbVbVbVbVcmcnbwbwbw.b.bcoat#d#n#ncp",
"#n#n#n#n#zatatat.6#i#i#icqcrbVbVbVbVbVbVbVbVbVbVc#bXbXbXcs.b.b.b.b.b.b.b.b.b.b.bcdbVbVbVbVbVbVbVbVbVbVctcubw.b.b.b#rcvat#d#n#n#n",
"#n#n#n#n#zatatat.6#i#i#icwcrbVbVbVbVbVbVbVbVbVbVc#bXbXbXcx.z.b.b.b.b.b.b.b.b.b.bcdbVbVbVbVbVbVbVbVbVbVctcubw.bbOcyczcAat#d#n#n#n",
"#n#n#n#n#zatatat.6#i#i#icBcrbVbVbVbVbVbVbVbVbVbVc#cCcDbXcE.b.b.b.b.bcFcGcF.b.zcHcdbVbVbVbVbVbVbVbVbVbVctcucIcJcKcLatatat#d#n#n#n",
"#n#n#n#n#zatatat#d.7.7cMcNcObVbVbVbVbVbVbVbVbVbVc#cPcQbXcE.b.b.b.b.bcRcScTcUcVcWcdbVbVbVbVbVbVbVbVbVbVcXcncYbDbDcZatatat#d#n#n#n",
"#i#i#i#i#o#H#H#H#A#Y#Yc0c1cObVbVbVbVbVbVbVbVbVbVc#.bbOc2c3.b.b.b.b.b.zc4c5c6c7aHc8bVbVbVbVbVbVbVbVbVbVc9d.d#d#d#da#H#H#HaH#i#i#i",
"#i#i#i#i#o#H#H#H#A#Y#Y#YdbcObVbVbVbVbVbVbVbVbVbVc#.b.b.b.b.b.b.b.b.b.b.b.bdcdddec8bVbVbVbVbVbVbVbVbVbVc9d.d#d#d#da#H#H#HaH#i#i#i",
"#i#i#i#i#o#H#H#H#A#Y#YdfdgdhbVbVbVbVbVbVbVbVbVbVdi.b.b.b.b.b.b.b.b.b.b.b.b.bdjb8dkbVbVbVbVbVbVbVbVbVbVdldmd#d#d#da#H#H#HaH#i#i#i",
"bebebebe#zatatat#A#Y#Y#Ydndodpdpdpdpdpdpdpdpdpdpdq.b.bdrai#a.b.b.b.b.b.b.b.b#adsdtdudpdpdudvdvdvdvdvdvdwdxbDbDbDcZatat#H.7.5bebe",
"QtQtQtQt#Xatatat#A#Y#Y#Ydyd#dzdAbNbNbNbNbNbNbNbNbw.bdBdCdDdE.b.b.b.b.b.b#a.b.bdFdyd#d#d#bDbXbXbXbXbXbXbXbXbXbXbXdGatat#H#h.fQtQt",
"QtQtQtQt#Xatatat#A#Y#Y#Ydyd#dHdIbNbNbNbNbNbNbNbNbwdJdKdLdGdMaz.b.b.b.bdNdOdPdQdRdyd#d#d#bDbXbXbXbXbXbXbXbXbXbXbXdGatat#H#h.fQtQt",
"QtQtQtQt#Xatatat#A#Y#Y#Ydyd#d#dSdTdUdVbNbNbNbNbNdWdXdYbXdGdZ.b.b.b.b.b#Qcf#Hcf#Hdyd#d#d#bDbXbXbXbXbXbXbXbXbXbXbXdGatat#H#h.fQtQt",
".5.5.5.5#Xatatat#z#z#z#zcZd0d0d0d0d0d1.b.b.b.b.bd2dadadaatd3d4c3.z.b.bd5d6#H#H#HcZd0d0d0dadadadadadadadadadadada#patat#H.6.e.5.5",
"#n#n#n#n#z#H#H#H#H#H#H#H#H#H#H#H#Hd7#7.b.b.b.bdNd8#H#H#H#A#Y#Yd9#3.b.baz#1#H#H#H#H#H#H#H#H#H#H#H#H#H#H#H#H#H#H#H#H#H#H#H#d#n#n#n",
"#n#n#n#n#z#H#H#H#H#H#H#H#H#Hb.#H#S#He..b.b.b.be#ea#H#H#H#A#Y#Y#Yeb#Q.beced#H#H#H#H#H#H#H#H#H#H#H#H#H#H#H#H#H#H#H#H#H#H#H#d#n#n#n",
"#n#n#n#n#z#H#H#H#H#H#H#Seeahefegeheiejekel#K.bazej#H#H#H#A#Y#Y#YemdF#Vd6#H#H#H#H#H#H#H#H#H#H#H#H#H#H#H#H#H#H#H#H#H#H#H#H#d#n#n#n",
"#n#n#n#n#z#H#H#H#H#Hejeh#r.baz.z.b#Ud7#Heneoaz#aep#H#H#Heq#z#z#zat#H#H#H#H#H#H#H#H#H#H#H#H#H#H#H#H#H#H#H#H#H#H#H#H#H#H#H#d#n#n#n",
"#n#n#n#n#z#RdZee#H#H#s.b.b.b.b.b.b#Ker#Hateseteu#R#HdRdQevdEewea#H#H#H#H#H#H#H#H#H#H#H#H#H#H#H#H#H#H#H#H#H#H#H#H#H#H#H#H#d#n#n#n",
"#n#n#nexey#J.bagdF#Hez.b.b.b.b.b.beAeB#Hatatatat#Hb7eC.b.b.baz#KeDeE#H#H#H#H#H#H#H#H#H#H#H#H#H#H#H#H#H#H#H#H#H#H#H#H#H#H#d#n#n#n",
"#n#neFeG.z.b.b.beHeI#7.b.b.b.b.b.b#7#H#HatatatateJdM.z.b.b.b.b.b.beKeL#H#H#H#H#H#W#ReM#H#H#H#H#H#H#H#H#H#H#H#H#H#H#H#H#H#d#n#n#n",
"#neNeO.b.b.b.b.b.b#r.b.b.b.b.b.b.beP#z#z#z#zeQeRcRaz.b.b.b.b.b.b.b.beSeT#z#z#zeUeVbOeWeX#X#X#X#X#z#o#o#oat#H#H#H#H#H#H#H#d#n#n#n",
"#neY.b.b.b.b.b.b.b.b.b.b.b.b.b.b.baK#deZd9aee0dN.b.b.b.b.b.b.b.b.b.b.be1e2e3e4e5.b.be6#d#h#i#i#i#d#Y#Y#Y#zatatatatatatat#d#n#n#n",
"e7e8.b.b.b.b.b.b.b.b.b.b.b.b.b.b#be2#ddcaf#b.b.b.b.b.b.b.b.b.b.b.b.b.b.ze9f.bI.b.b.bc4f##hfa#i#i#d#Y#Y#Y#zatatatatatatat#d#n#n#n",
"#Gfb.b.b.b.b.b.b.b.b.b.b.b.b.b.bfcc7fdfe.b.b.b.b.b.b.b.b.b.b.b.b.b.b.b.b#Fffau#a.b.b#afgfhfifj#i#d#Y#Y#Y#zatatatatatatat#d#n#n#n",
"fk.b.b.b.b.b.b.b.b.b.b.b.bflfmfnfnfnfnfnfofofofpfq.b.b.b.b.b.b.b.b.b.b.b.bapfrfsftfmfnfnfufvfvfvfnfofpfwfxdGdGdG#patatat#d#n#n#n",
"fy.b.b.b.b.b.b.b.b.b.b.bbwfzbVbVbVbVbVbVbVbVbVbVfA.b.b.b.b.b.b.b.b.b.b.b.b#rfBb8fCbVbVbVbVbVbVbVbVbVbVfDdmd#d#d#da#H#H#H#d#n#n#n",
"aN.b.b.bfEfFfG.z.b.b.b.bbwcObVbVbVbVbVbVbVbVbVbVc#.b.b.b.bfFfFfHfId5fJ#r.b.bfKb8c8bVbVbVbVbVbVbVbVbVbVc9d.d#d#d#da#H#H#H#d#n#n#n",
".b.b.b.b#afLedfM.b.b.b.b.bfNbVbVbVbVbVbVbVbVbVbVc#.b.b.bfOfPeBcffQfRfSfTfUfV#afWc8bVbVbVbVbVbVbVbVbVbVfXd.fYd#d#da#H#H#H#d#n#n#n",
".b.b.b.b.bbOfZ.b.b.b.b.b.bf0bVbVbVbVbVbVbVbVbVbVf1.b.b.bdQ#o#o#oatatatataHf2f3f4f5bVbVbVbVbVbVbVbVbVbVctcudydydy#p#z#z#z.6bebebe",
".b.b.b.zaNf6aX.b.b.b.b.b.bf7bVbVbVbVbVbVbVbVbVbVf8.b.bdVf9#Y#Y#Y#oatatat#d#ifag.g#bVbVbVbVbVbVbVbVbVbVcXga#H#H#H#XaHaHaH#nQtQtQt",
".bgbgcgdgegf#F.b.b.b.b.b.bf7bVbVbVbVbVbVbVbVbVbVf8.b.bgg#X#Y#Y#Y#oatatat#d#igh.pg#bVbVbVbVbVbVbVbVbVbVcXga#H#H#H#XaHaHaH#nQtQtQt",
"gigjQtQt.7bd.b.b.b.b.b.b.bgkbVbVbVbVbVbVbVbVbVbVf8glgmgn#X#Y#Y#Y#oatatat#d#igoaOg#bVbVbVbVbVbVbVbVbVbVcegp#H#H#H#XaHaHaH#nQtQtQt",
"gq.5.5.5aHgr.b.b.b.b.b.b.bgsbVbVbVbVbVbVbVbVbVbVgtgugvda#o#X#X#XatatatataH.6gw.bgxbVbVbVbVbVbVbVbVbVbVgygz#p#p#p#o#X#X#X#h.5.5.5",
"#i#i#i#igAcG.b.b.b.b.b.b.bgkbVbVbVbVbVbVbVbVbVbVc#bXbXbXdG#H#H#H#H#H#H#H#Afr#Q.bc8bVbVbVbVbVbVbVbVbVbVgygBdGdGdG#p#H#H#HaH#i#i#i",
"gCgDgE#igFgGb1.z.b.b.b.b.bgHbVbVbVbVbVbVbVbVbVbVgIbXbXgJgKfLeIgL#H#H#H#H#Af4#r.bgMbVbVbVbVbVbVbVbVbVbVgNgOdGdGdG#p#H#H#HaH#i#i#i",
".baOgP#i#o#HgQ.b.b.b.b.b.bgRgSgSgSgSgSgSgSgTgTgTgUgVgWgX.b.b.bfOa##H#H#H#Ae2gY.bgZg0gTgTgTgTgTgTgTgTgTg1g2dGdGdG#p#H#H#HaH#i#i#i",
".b.bg3g4#o#Hg5#a.b.b.b.b.bbwd1g6bDbDbDbDbDd#g7g8g9h.#a.b.b.b.b.b#Kh##o#o#X#AhahbgXhcbNbNh.hdbDbDbDbDbDhecZdadada#p#H#H#H#d#i#i#i",
".b.b.zhf#zathg#r.b.b.b.b.b#Khhhid#d#d#d#d#d#dHhjhk.b.b.b.b.b.b.b.bagd9#Y#o#H#H#SdyhlhmhnbwhobXbXbXbXbXbXbXbXbXbXdGatatat#d#i#i#i",
".b.bc4hp#zathqec.b.b.b.b.bhrhsd#d#d#d#d#d#d#hthubw.b.b.b.b.b.b.b.b.bhv#Y#o#H#H#Hdyd#d#hwhxhybXbXbXbXbXbXbXbXbXbXdGatatat#d#i#i#i",
".b.zhz#i#zatathAgl.b.b.b.bhBd#d#d#d#d#d#d#d#hChDbw.b.b.b.b.b.b.b.b.bhEbY#o#H#H#Hdyd#d#d#hFbXbXbXbXbXbXbXbXbXbXbXdGatatat#d#i#i#i",
".bhG#i#i#zatatemhH#a.b.bhIhJdydydydydydydydyhKhL.b.b.b.b.b.z.b.b.b.bhMhNat#H#H#Hdadydydydyd0d0d0d0d0d0d0d0d0d0d0#patatat#d#i#i#i",
"hzhO#i#i#o#H#H#HhPhQ.bhRhSatatatatatatat#H#H#HgLai.b.b.b.bfGhTd5.b.bcG#H#H#H#H#Hatatatat#H#H#H#H#H#H#H#H#H#H#H#H#H#H#H#HaH#i#i#i",
"#i#i#i#i#o#H#H#HatfSeDhUatatatatatatatat#Hb.hVb.hWaz.b.bhXhY#HhZh0.bfOb7#H#H#H#Hatatatat#H#H#H#H#H#H#H#H#H#H#H#H#H#H#H#HaH#i#i#i",
"#i#i#i#i#o#p#p#p#H#H#Hd7atatatat#H#H#H#H#ph1h2fGh3dFh4#ah5#p#p#ph6csh7h8#p#p#p#p#H#H#H#H#p#p#p#p#p#p#p#p#p#p#p#p#p#p#p#paH#i#i#i",
"h9bebebe#Y#A#A#A#Y#Y#Y#Y#A#A#A#A#Y#Y#Y#Y#Ai.#r.bafi#iaaXib#A#A#A#A#Bic#A#A#A#A#A#Y#Y#Y#Y#A#A#A#A#Y#Y#Y#Y#A#A#A#A#A#A#A#A.6bebebe",
"idieQtQtQtQtQtQtQtQtQtQt.e.e.e.eQt.f.f.f.fifig.b.oihii.qgd.f.f.fQtQtQtQtQtQtQtQtQtQtQtQt.f.f.f.f.k.k.k.k.f.f.f.f.f.f.f.fQtQtQtQt",
".pijQtQtQtQtQtQtQtQtQtQt.e.e.e.eQt.f.f.f.f.fik.b.b.zil.bim.P.f.fQtQtQtQtQtQtQtQtQtQtQtQt.f.f.f.f.k.k.k.k.f.f.f.f.f.f.f.fQtQtQtQt",
"inioQtQtQtQtQtQtQtQtQtQt.e.e.e.eQt.f.f.f.fipiq.b.b.b.b.b.bir.f.fQtQtQtQtQtQtQtQtQtQtQtQt.f.f.f.f.k.k.k.k.f.f.f.f.f.f.f.fQtQtQtQt"};
