/* XPM */
static char *d2ec83ea515946debe9df654a9a72ff0qixp631xldFVmavM[] = {
/* columns rows colors chars-per-pixel */
"64 64 148 2 ",
"   c #030303",
".  c #050907",
"X  c #080906",
"o  c #06060B",
"O  c #08070C",
"+  c #07090B",
"@  c #0A090D",
"#  c #10100E",
"$  c #070712",
"%  c #080710",
"&  c #070813",
"*  c #0E0E15",
"=  c #0F0F19",
"-  c #100F14",
";  c #100F1C",
":  c #0F1015",
">  c #0F1019",
",  c #101015",
"<  c #111119",
"1  c #100F22",
"2  c #0F1023",
"3  c #151322",
"4  c #191625",
"5  c #1B1826",
"6  c #1B1729",
"7  c #1D192B",
"8  c #1F1830",
"9  c #211C2E",
"0  c #231E32",
"q  c #271F39",
"w  c #261F38",
"e  c #251D38",
"r  c #271F38",
"t  c #262037",
"y  c #252033",
"u  c #282336",
"i  c #262038",
"p  c #26203B",
"a  c #272138",
"s  c #282038",
"d  c #282039",
"f  c #28223A",
"g  c #29213C",
"h  c #2A203F",
"j  c #2B233E",
"k  c #2A233D",
"l  c #2A223B",
"z  c #2B1F42",
"x  c #2E2443",
"c  c #2F2545",
"v  c #2E2542",
"b  c #2E2248",
"n  c #302546",
"m  c #312846",
"M  c #332A46",
"N  c #312748",
"B  c #312649",
"V  c #322649",
"C  c #31254C",
"Z  c #33284C",
"A  c #352A4C",
"S  c #34294E",
"D  c #342A4E",
"F  c #372C4F",
"G  c #352B4C",
"H  c #382C4E",
"J  c #3A314D",
"K  c #342652",
"L  c #362A50",
"P  c #362A51",
"I  c #372A51",
"U  c #372B51",
"Y  c #382B53",
"T  c #382D51",
"R  c #382E51",
"E  c #392E51",
"W  c #382C53",
"Q  c #392D53",
"!  c #392E52",
"~  c #3A2F53",
"^  c #3A2C55",
"/  c #3A2E54",
"(  c #3A2E55",
")  c #3B2E55",
"_  c #3B2F55",
"`  c #3A2D57",
"'  c #3B2D57",
"]  c #3B2F56",
"[  c #3C2F57",
"{  c #3A2E53",
"}  c #3B2E58",
"|  c #3C2F59",
" . c #3D2F5B",
".. c #3E2F5B",
"X. c #392A58",
"o. c #3C3056",
"O. c #3C3057",
"+. c #3D3157",
"@. c #3C3056",
"#. c #3C3058",
"$. c #3D3058",
"%. c #3D3158",
"&. c #3D3059",
"*. c #3D3159",
"=. c #3E3059",
"-. c #3E3159",
";. c #3E305A",
":. c #3E315A",
">. c #3F315A",
",. c #3F315B",
"<. c #3E305C",
"1. c #3F305C",
"2. c #3F315E",
"3. c #3E325A",
"4. c #40335B",
"5. c #40325C",
"6. c #40335C",
"7. c #41335D",
"8. c #40315F",
"9. c #42335E",
"0. c #41345C",
"q. c #41345D",
"w. c #42355E",
"e. c #42355F",
"r. c #41345D",
"t. c #44395E",
"y. c #413260",
"u. c #423460",
"i. c #443562",
"p. c #443662",
"a. c #453763",
"s. c #443465",
"d. c #473765",
"f. c #443662",
"g. c #463864",
"h. c #473865",
"j. c #473866",
"k. c #473964",
"l. c #493967",
"z. c #493B66",
"x. c #47376A",
"c. c #4B3B6B",
"v. c #4D3D6F",
"b. c #4B3C6A",
"n. c #4F416D",
"m. c #51436F",
"M. c #534472",
"N. c #5A4A7C",
/* pixels */
"< < < < < - @ - @ - - * @ * @ - @ * - # - # - = = = ; < < - < * @ O o % V ' Y 5.t + > > < : , < = < ; = ; - O o     z x...s.S * ",
", < < < - O O @ O O O O O O O O @ @ # # # # , 1 1 1 ; > < - < * O O   O Z | ^ ..a + > < > < < < , > 1 1 1 = O O O   e ..P | c * ",
"< , < < - @ @ O @ O @ @ O * O @ @ @ , # # # - ; ; = ; < - < - - O O . . b | P ..t + : < , , < * > < ; ; 3 = o       e 8.^ | V * ",
"< , < < - o o o   o   o             @ , # # , ; 1 1 1 < < < 3 *         V 8.^ y.f @ < < < > > < < = < 1 1 - O O %   0 } S Y c * ",
"< , - < - - - - ; - < - ; ; ; 4 3 4 , @ * : * > = = ; * * * O < s w w w w w w g 7 : < < - = * * = % % % O - S ) R +.s 7 7 9 6 < ",
"- # O o - [ [ [ [ [ 5.+.5.5.4.5.2.h.7 @ * * = * * * , % O O   9 v.h.h.z.9 < 4 4 3 , < < < * * * * *   .   % 5.a.q.h.j < 4 7 4 , ",
"- O O   ; | 5.[ 5.[ [ [ ) ) 4.Y | 2.7 X * * * : = * * % + O   5 q.=.=.=.0 4 7 9 5 : < < < = * * = * . O   % [ 5.o.q.g 3 6 7 7 - ",
"- O O O - Y 5.Y { { ) ) ) ) ) ) | y.7 @ = * * * * = > O   .   ; h.q.q.q.0 4 7 7 5 < 3 < < * & * * % O O   * 9.l.f.c.G 4 7 0 7 < ",
"- @ @ O - 5.w.5.5.| 5.4.[ | 5.=.=.p.8 X > * * * : : : : * # + 5 +.H { R 9 4 7 7 4 : , < < : * * < % O @ + % a g t a 7 < < 3 < < ",
"- O O O * r j l r s l u s u 4 4 4 4 < # : : : # , # X M z.t.n.J 4 7 7 5 7 7 7 9 4 : : : * < < < < * O % @ % + + + X * * * * * < ",
"* O O O O 3 4 ; 4 4 5 5 7 4 + + @ + @ # # # # # # # X J M.z.n.@.3 5 4 6 5 7 7 9 4 @ : : : , * < < * O O @ % * < = : = * < * - = ",
"* O O O O 9 9 7 7 9 9 9 9 7 = * : : , # # # : # # # X M m.t.n.@.4 6 7 7 7 7 7 9 4 : : : : < < > < * O O O O * > = = * > * = - = ",
"O O * O @ 9 7 7 7 9 y 0 y 9 : * * = : # # # # # # # X J N.n.M.t.7 7 9 9 9 9 9 9 5 : : : > > > < < * @ % @ @ = = < * : = < * < * ",
"@ O O O @ 5 9 6 7 5 5 5 7 5 * * = * : # # : : : : @ + 9 x a k y < < < < < < < < : : < < > * + * % < 7 6 7 7 - = = = = = = = = = ",
"# o @ X + 5 7 7 7 3 * * * * < < = < > < : > : * @ : < + . + + + @ # X X # @ @ + : > > > < * O % O < 0 7 7 8 < * = = = = = = > = ",
"@ O @ O + 5 9 7 9 3 * < < : < : < < - > , > : : : : # < < = < , # # # # - - : * * > > < < % & % $ = 7 7 7 7 3 * = = = = > = - = ",
"@ @ + X @ 5 9 5 7 4 : > : < < < > < , - < < < = , * # : < < < < # # @ # @ * * * * = < < < * $ % o = 0 7 9 9 < = = = > = = = = = ",
"@ o X o o 5 9 9 0 4 : > < : , < < > , < < - - * @ - * * - - * - # , # : , * * < = = = = * & * * % = 4 3 4 3 < - > = > * = * = - ",
"- - * * - < < ; < < % * * % @ @ @ + @ @ @ @ @ @ @ O @ @ % @ @ @ : > < > < < < < * O @ @ O * < < < < * * * * < - < < : * * : * , ",
"< < < < < - - < : * & & $ & @ + + O + + X + O + + @ X @ @ @ O * : < : < < , < < < % @ % @ = < < < : < > < - < < < = : * : * : - ",
"< , > < < < - < < * % & % & @ X + O + O + O + + + + X + @ @ @ % < > - < - < - < = O . O O * - - , > < < < < < < < < , - : : : , ",
"= > < < < < - > < * & % & $                                   X = < = < < < < < * @ O % O * ; < : < : = > , , , < * - - * @ * : ",
", > , , , > < > < : % * * % 4 9 9 6 9 9 0 0 0 0 w r s s g g x s , , - , * O % . - S F S [ 5 + * : * O @ @ O @ + @ X X O @ @ + * ",
", , # , , < - < > < < < > : o.c.w.a.a.a.a.a.a.a.a.a.a.a.a.d.z.4., @ - , @ O O   - q.d.q.z.9 . * : * O O O O + O + @ + @ X + X * ",
", # # , # < < , , < < , * * G q.4.) ) ) +.) +.+.+.+.+.@.+.+.5.{ < # < # - O O . - [ 5.+.w.9 . - * * O o @ + + + + + X + @ @ X * ",
", , , # , < < < < < < < : * G f.4.4.5.4.5.5.=.=.3.4.3.3.4.5.a.+.< @ # < # O O   - 5.a.5.c.y . - - *                   o X o X @ ",
", # # # # , < < < < - < * * m q.@.[ H ) { Y { ^ F F F F S Z { S < , < < # o O O @ n m j Z 4 . * @ * 9 e 0 9 w j l x u 3 3 3 4 < ",
"< < < < < @ X @ + @ * * * * < 3 < < < 7 6 6 4 6 7 7 7 5 4 4 3 3 < < < < - o @ O @ 3 5 4 5 *   o   * X.X.K K 2.z.a.z.| 7 9 8 0 4 ",
"< < > 3 2 @   X . o * * * @ * * * * - 6 4 3 4 4 5 5 7 4 4 4 4 3 < < < < # o o o @ 6 9 7 0 ;   O   * C K C b P =.+.4.F 5 5 7 7 3 ",
"3 < > 2 < %   .   + * - : * - < , * < 7 6 6 6 6 7 7 7 7 4 4 6 6 5 < < 4 * o X   @ 7 9 7 0 1   O   * C K C b ` q.=.t.@.7 7 9 9 4 ",
"> 2 < > 3 .         # # @ * , < , , < 7 6 6 6 6 7 7 5 4 6 4 6 4 < < < < - O @ X O 7 9 9 9 - . O   % z C b z G H F F m 4 3 4 4 3 ",
"> = > = = 3 4 4 9 < < ; < < < , < * < 3 3 3 < 9 9 9 9 9 6 6 6 7 < < < < , - - < - ; ; < ; ; O % O % 4 6 4 4 4 7 5 5 3 : : * * , ",
"- O O O   v n.p.c.+.7 7 8 0 < * : : < : : : : 9 u y y 9 6 7 7 7 < < < , , < < < < = = = 2 * O O . * 4 4 4 4 6 7 7 7 5 * : : : , ",
"- * O @   a a.3.5.F 7 5 7 7 3 * > : : < < : : 7 y 9 y 9 7 7 7 7 < < < , , < < < = < 3 = 3 & O @ O % 4 6 4 4 7 7 7 7 6 * : : : , ",
"* @ O @   w k.3.q.{ 7 6 7 9 < * : > < < < < : 9 u y u y 6 6 6 7 < , < < < < < < < > < < 3 & @ O O O 4 6 4 4 9 9 7 0 7 < * : : , ",
", @ O O   w k.3.=.{ 7 6 7 7 3 = : : : < < < : 5 9 9 9 7 7 7 7 7 < < < < : : < < = < > - = * O % O % 6 6 5 7 4 < < < < - : < , < ",
"* * * * : > 3 < < < 3 < 3 ; - - < , > < > , < > : : # > y 7 y y < * * < : : > : = , - - - * $ $ % % 6 9 7 9 < @ : @ * : < < > < ",
": : : : : + . # @ * > 3 ; ; < < < > * < < : > : : : : < y y 7 y < * < * : : : > - - - - , % $ $ $ $ 6 7 7 9 3 @ : : * < > , < * ",
"* # * : : : : * * * 2 < 1 1 - > , = < < < < < : < < : < 0 7 0 0 3 * > = * > > = * - - - , * $ $ o $ 6 9 7 0 3 * : : * < < : < , ",
": * : * : : @ : : * 1 3 2 3 < , < < > , : < : < > > > < y y 7 0 < * - * < = , * - - - - - * & & & & 4 6 4 6 < * * @ * < * < = < ",
": @ : # # : : : , < < < < > < = * = * = : = * < - = = < 3 < > 3 < > < < - @ % * O * - * * = 2 2 2 2 - * - - * $ & + & : < < < : ",
", # : # # : < < < < : : * = , * < * < * - = * = = = > = * = * * < > > < - O @ @ O * - * = = 2 2 2 2 < > ; - * % % % & = < , > < ",
"# # : # # < < < < < = = < - > < * < * = * > < = > = = = = = = = < < < < * + @ + % * - = * = 2 2 2 2 < < - ; * o & + O * < : * , ",
"# # # # # : < < < < = - = * = * < * = , < * < * * = = = = = = = < < < < *         % - = * > 2 2 2 2 < < < < * . X & $ * < < > < ",
"# , , - # < < < < < < - > * * = = > * * * * , = = = = = = * : > : * - % - r 0 r s < * * * > < > = > * % %   4 ) G H G 9 4 5 7 3 ",
"< @ + @ @ @ # + @ % , < < < < : : , , : , : : < < > : < < < < < % X O   ; z.h.a.v.0 + * * = * : = , @ . .   9 v.z.z.h.w 4 7 9 4 ",
"3 % O @ @ @ @ @ @ O * < , < , : : : : : : : : , - < = < > , < < * + @   - 4.4.[ q.7 @ = > : = * - - * O O   5 z.4.4.q.0 4 6 9 4 ",
"1 * @ @ % @ @ @ @ @ : < < = , : : : : : : : : < < : < , = < < < * + @ . ; 5.4.) f.7 X = * * * > - < %   .   5 m.z.z.c.u 4 9 9 4 ",
"3 .                 * : : * : : : : : : : : : < < - < < : : , < * @ @   * o.=.o.q.9 * < < < * = ; - * % * . < S m x v 6 < 3 4 < ",
"; 6 9 6 8 8 7 0 0 0 5 4 4 5 < * = , * , < * = - ; ; ; ; : : * > @ X X X * o.o.@.=.s 3 7 7 6 > - < < < < < < - % @ @ X : > : : , ",
"@ H c.a.p.p.e.p.f.f.a 7 y y 7 * < * - * * - > ; ; 1 1 - : * : : # o X   * { +.o.=.g 4 7 9 6 : < : < < < < > < * : > , < : < < > ",
"* n u.[ o.o.~ ~ ` o.w 5 7 y 3 * * = = = < * * < ; ; 1 ; * : * : @ o @   @ { =.o.5.g 4 7 7 6 > : < > < , - , < > > : < > < > , < ",
"* m h.3.2.3.*.*.*.*.u 7 7 y 4 : - - - = - ; - - ; ; ; ; - - * : @ X X   @ +.p.3.f.v 3 7 9 4 - * * * < < < < , < = < = < < > , < ",
"@ v 2.o.R @.P P R R t 7 y 9 3 : - < < = * * & = 1 4 3 1 - - : < # X @ X # u v j x 0 4 7 7 6 4 4 4 7 < * , < = < , : < , : < > < ",
"3 < < < : < 8 7 6 7 7 6 7 7 4 > ; 1 1 % . o   = 0 9 9 9 - ; ; < * O @ O @ 9 9 7 7 7 7 7 7 7 9 7 7 0 3 = < < > > < = < < < , - < ",
"2 : * : # : 7 5 5 6 7 7 7 7 6 > 3 ; 1 %   O   = 9 9 6 6 - - < < * O * O + 9 y 9 y 7 5 7 7 7 6 7 7 7 < - < - - < < , * < > > < < ",
"1 > , > < < 7 7 6 7 7 7 7 7 6 < 3 > 3 & X .   = 0 7 7 7 < * < < * O * O O 9 9 9 0 9 6 7 7 7 5 7 7 7 < * : * * > = < : < = = , < ",
"1 ; , < > < 9 9 7 7 7 7 7 7 4 3 3 < 3 +   O   * 0 7 7 7 < * < < * O % O * 9 9 9 9 9 7 7 7 6 7 7 7 9 6 < < 4 < < < : < = , < < < ",
"3 = > - : < < 4 3 < 7 7 7 7 6 > < < < < = = = < * * * : < > * < * O O O % 4 7 5 3 6 9 6 7 7 7 7 7 7 7 7 9 0 7 : * , < < > < , = ",
": = , < < > * * : * 4 7 7 7 4 > < , < < < < < < + * @ * * * = < * O * O O 3 5 4 4 5 7 9 7 5 7 7 7 7 7 7 7 7 6 < > < = , < , < = ",
"> - < > < > < < > * 6 7 7 7 7 < , < < < < < < < * * @ * * = * < * @ % % % 4 6 4 4 6 9 6 7 7 7 9 7 7 7 7 7 7 7 : : > < < : = < = ",
"> < < - - > * < > * 4 0 7 9 7 > , < < , < < < : @ * * + * = - < * @ @ % O 4 6 6 6 6 9 6 9 6 9 9 7 7 7 6 7 9 7 < : < , , < , < * ",
"- > > < , < < < > * 3 6 6 6 4 : < < < < < < < < : : : : , < < < * * - - - 3 1 3 3 < < < - < < < < < < < < < < < < < < < < < < < ",
"< < , = = < : > , < = 1 = = = , < < < < < < < < < < < > < < < < < < < < < ; - - < , # @ - - < < < < < < < , < < < < < < < < < < "
};
