/* XPM */
static char *_b3456beaf0c40cb9706754ee836986dSjkPZBwhkjO4MPyl[] = {
/* columns rows colors chars-per-pixel */
"64 64 60 1 ",
"  c #686868",
". c DimGray",
"X c #6A6A6A",
"o c gray42",
"O c #6C6C6C",
"+ c #6D6D6D",
"@ c gray43",
"# c #6F6F6F",
"$ c gray44",
"% c #717171",
"& c #727272",
"* c gray45",
"= c #747474",
"- c gray46",
"; c #767676",
": c #777777",
"> c gray47",
", c #797979",
"< c gray48",
"1 c #7B7B7B",
"2 c #7C7C7C",
"3 c gray49",
"4 c #7E7E7E",
"5 c gray50",
"6 c #808080",
"7 c #818181",
"8 c gray51",
"9 c #838383",
"0 c #848484",
"q c gray52",
"w c #868686",
"e c gray53",
"r c #888888",
"t c #898989",
"y c gray54",
"u c #8B8B8B",
"i c gray55",
"p c #8D8D8D",
"a c #8E8E8E",
"s c gray56",
"d c #909090",
"f c gray57",
"g c #929292",
"h c #939393",
"j c gray58",
"k c #959595",
"l c gray59",
"z c #979797",
"x c #989898",
"c c gray60",
"v c #9A9A9A",
"b c #9B9B9B",
"n c gray61",
"m c #9D9D9D",
"M c gray62",
"N c #9F9F9F",
"B c #A0A0A0",
"V c gray63",
"C c #A2A2A2",
"Z c #A4A4A4",
/* pixels */
"$$$$#$#=<<<=<<<$####$$$$$$#$=<<<$$$$<<=<66663<<=<<<=<66666666=<<",
"#######=<=<==<<=####$######$<<<=$$$$=<<=36663=<=<=<=366666663<<=",
"#######$=======$#$###$######<==<$##$=<<=3333<====<<=<66666663===",
"wwwpddpdzddzzdzp6ww6<33333333663<===3633wuuuuwuuw36366636uuwudzd",
"pppcBMMMMMMMMMMzppdu66w6666w66w63=<<6w66upuppppdw36666636puupMMM",
"upuzMcMcccccccMdwupu663666666666<<=<3663upuupuppu3666666wpuupcMc",
"pppcMMMccMcMMcMduupw6636666666w6<=<<6666udpdpppdw3666666wpppdMMM",
"3336666wwwwpppppuuuuwuu63<3<====$=$$<3<3<=<=<3333666666633333663",
"====$$$<33<6puwuuuuupppu=<<=####$$$#=<==#X#X$<==366666663=======",
"<<<=<<<3633wpuuuuuuuuupw==<<####$$$$<<<<$$##=<<=366366663<<<<==<",
"=<<====363<wuuuwuuuuuupw$$$$  X XXXX$$$=###X$=$$=33336663===<===",
"<336ww6wuwwpzdzddzdpuuuuupuuwwwuwwwwupuu6333wpuppdpdu666633336ww",
"666pdpdpppuzMcMcMcMzwuudBBMMBMBBBBBBBBMMddppcBMMMMMBz<363w666pdp",
"663uppuuuuudccccccczuuudccccccccccccccccpuuudMcccccMd36666666ppp",
"w66pdppppppzMMMcMcMzwuupMcMccMcMcccccMcMduuwzMMMMMMZd36w66666ppp",
"=<<66w6w666uddzddzdpuuppdzddzdddcccczddzpuuupppppwuuw<3336666www",
"###==$==$=$6puwuwwwuuuuuwuwuuwwuccMcuwwuuupp6<33=$=$$<==<6666633",
"$#$=<<<<<<=wpuuuupuuuuuuuuuuuuuuccccpuupuuupw3663=<<<<<=36666666",
"$$$<<<=<==$6duuupupuuuuuuuuuppppMMBBdudppppdu36w3<<=<<<<3w66w6w6",
"$$$=<=<<633wpupuwuwuuuuuuuuuwwwuppppw66w6www6<33<=====$==33<<<33",
"$$#<<<=udppuuuuw3636puuuuuuu6366=$============<==###############",
"$$#==<=wppppuupw363wpuuuuupu6666<=<<<=<<<<<<<<<<$#$#$$$##$#$$$##",
"$$$<<<=udppppppu363wppppuppu6666===<<<=<<<<<<<<3=#####X##X#X#$##",
"$$$=<==6uwwwwwu66666uwuwuwuu63663<<<=<<<==========$===<=<==<==$$",
"$$$####=<=<====366663636633666666666<=<<$#######<w63wdpppppdp<<<",
"$$$$###=<==<<<<<66666666666666666666<<=<$#$$$$$#=w63wpppppppu=<=",
"X##X###$======$366663336666666666666=$=<$#####XX=6636puwuuupu===",
"======$<3333<333w666w6w666666663666633<3==$$$==$3w66wppppuupu<<<",
"cccccccccccccccduuupMcMd3666<==<uuuwccccpupuzccccccccccMzwuuuuuu",
"cMcMMccMcMcMMcMzuupdMcBd3666<<=<upuucMMcpuuuzMcMMcMccccMzuuuuupu",
"ccccccccMcMccMMdwpudMcBz3666==<<uuuuzMccpuuudMccMccMcMMBzuuppuup",
"ccccczcczzzcczcdwuwpczcd3666<<=3upuuzcccpuuudcczzzzzzzzcdwuuuuuu",
"uupuuupw666<<<<<<<<<<<<3uuuuuuuuuuuupuuuuuuuuppp6<<<<$$#=6666666",
"uuuuuuu6336<$==<<=====$3puuuupppuuuuuuuuuuuuuuup6$==$##X=6666666",
"uupuuppw3663=<<==<<<<==3ppuuuupuuupuupuupuppuuudw=<<=$##=w666666",
"pppupup63663=<<==<=<=<$3puuuupppuuuuuuuuupuppppd6$<<=###=w66666w",
"===33<<66663=<=<6336uwuwuuuu66666666666w3<33<$===$$$$$$#$$=$==$=",
"#X#=<==36663=<<3w66wppppuuuu336666666336<$==$X###$##$$$$$###$###",
"###=<==36363=<=<663wuuuuuuuu666366666666<<=<=#$$$###$###$$#$##$$",
"###$===3633<$==<33<6uuuuuuuw636336636666<=<<$#$$##X####X#$######",
"6wwpddpdddddddpddzdduuuuzdzduwwuuwuwuwwu6336<===366w6www3===<<3<",
"dppcMMMBMMMBMMMMMMMzuuupMcMcpuppppppppppw3663<<=wzddddpdu<<=<w6w",
"uuuzcccccccccccczcczwuupccczuuuuuuuupuupw3663=<=6ppupuupw=<<<666",
"ppucMMcMcMcMMMMMMMBcwuupMcMcuuuupppppppdw6ww3=<<6zpppppdw$<=<666",
"wwwpddddpddpuuuuwwwupuuudddpuupuw6ww6666<$====$$<6666w6ww<333666",
"333wuuuuuup6=<<<#$#<ppuuwuuuuuuu6333====#####$#X$===<6633w666666",
"363upuuuuup63663=<=6ppuuuuuuuupp6666<=<<$$$#####=<<=<66666666666",
"666pddpuuppw333<<<=3zddpddpddpdd6666<==<$#######$<==<666666666w6",
"3336666uuuuwwwu3$$==6336666w66w666663<<3=$======<3<3366666666333",
"<=<==$=wpuupppd3 #$#X#X#=====$$=66666w6w3<<<<<<<3w66666666666=<=",
"<==<<<=wppupuud3##$$#$#$<=<=<<<<666666663=<=<=<=3666666666666<=<",
"=<=<=<=uddppppz6X$$$$$#$<<<<=<==36633333<=<=====<636633363663===",
"333<3<36wwwwwww<X$$$$$$$====<<=<6ww6w6ww633333336w6ww66www6ww333",
"6666666=$=====<$##$$$$$$$$##<=<<pdpppppppppdpupdppuupppppppuppdp",
"6366666<=<=<=<<$##$$$$$$$##$<<=<uupuuuuuuupuuuuuuuuupuuuuuuuuupu",
"3333333<===<<<<=######$$####====wuuuuuuuuuuuuuuuuuwuuuwuuuuuuuwu",
"wuwwwwu6333<<<<=$$$$=$$$====33<3pppdpuuuuuuuupdpdddpddpppuuuuppd",
"ccMMMcMdppd6$<<=<<<<<<<3w66wppppcMMcpuuuuuuudMcccccMcccMzuuuucMc",
"cccccccpuup6$<<==<<<<<=<6666puuuzcccpuuuuuuuzccccccccMcMduuupccc",
"ccccMcMduud6==<<<<===<=<6633upuucMMcpwuuuuuuzMcMcMcMMcMMcwuupcMc",
"cccczzzuwup3=<<=<<=<<<<36666uuuuzzzzpuuuuwuudczzzzdzdzzzduuupzcz",
"ccMpuup3=<=3w663=<<<6336ppppuuuuuuuuuuuuw33666363=<=<<==<uuupuuu",
"cMcpwup3===3w663<==3666wpuupuuuuuuuuuuuu636636663==<==<$3puuuuuu",
"cccpuup3=<<36663=<<36636puuuuuuuuuuuuuuuw36666663=<=<<==3puuuuuu"
};
