/* XPM */
static char *dummy[]={
"45 45 15 1",
". c None",
"# c #000000",
"e c #158968",
"g c #222a5c",
"d c #2c5b6d",
"c c #341e1a",
"j c #37446e",
"i c #566a89",
"b c #683c34",
"a c #a36d3e",
"f c #cce2e1",
"k c #f4b03c",
"l c #ff8142",
"m c #ffda45",
"h c #ffffff",
".............................................",
".............................................",
".............................................",
".............................................",
".....................####....................",
"....................#aaab#...................",
"...................#aaaaa#...................",
"...................#aaaaa#...................",
"...................#aaaaa#...................",
"...................#aaccc#...................",
".................###accaa#...................",
"...............##dddacccc#...................",
"..............#eedffbccccg#..................",
".............#eeeaffhbcccdg#.................",
".............#eeaaahhabccddb#................",
".............#ddaaahhhaaeedb#................",
"..............#aaaahhhhheehb#................",
"..............#aaaahhhheeehb#................",
"..............#aaaafhheeehf#.................",
".............#aaagfffeeefff#.................",
".............#aaaggfeeeffff#.................",
".............#aagggdeefffffb#................",
".............#aa#gdddfffijjb#................",
".............#aa#gdjiiiiijjbb#...............",
".............#aa##jjiiiklllbb#...............",
".............#aa##kkmmkklllbb#...............",
"..............##.#kmmmmllll###...............",
".................#kmmmm#lll#.................",
".................#kmmmm#lll#.................",
"..................#mmmmllll#.................",
"..................#mmmmllll#.................",
"..................#mmmmllll#.................",
"..................#kmmkllll#.................",
"..................#kkkkllll#.................",
"...................#kkklll#..................",
"...................#kkklll#..................",
"...................#kkkii#...................",
"...................#fffii#...................",
"...................#fff###...................",
".............................................",
".............................................",
".............................................",
".............................................",
".............................................",
"............................................."};
