/* XPM */
static char *_876db72b992400b9335185c38c690cfaPjbE7fykdKYkyxz[] = {
/* columns rows colors chars-per-pixel */
"45 45 6 1 ",
"  c None",
". c black",
"X c #C11D28",
"o c #CD1F2A",
"O c #CF1F2A",
"+ c #DC212D",
/* pixels */
"                                             ",
"                   .......                   ",
"                .............                ",
"              .................              ",
"             ...................             ",
"            .....................            ",
"           .......................           ",
"          .........................          ",
"         ...........................         ",
"         ...........................         ",
"        .............................        ",
"        .......XOOX.......XOOX.......        ",
"        .......O++O.......O++O.......        ",
"       ........O++O.......O++O........       ",
"       ........XOOX.......XOOX........       ",
"       ...............................       ",
"       ...............................       ",
"       ...............................       ",
"       ...............................       ",
"       ...............................       ",
"        .............................        ",
"        .............................        ",
"        .............................        ",
"         ...........................         ",
"         ...........................         ",
"          .........................          ",
"           .......................           ",
"            .....................            ",
"             ...................             ",
"              .................              ",
"                .............                ",
"                 ............                ",
"                 ............                ",
"                 ............                ",
"                 ............                ",
"                 ............                ",
"                 ............                ",
"                 ............                ",
"                 ............                ",
"                 ............                ",
"                 ............                ",
"                 ............                ",
"                 ............                ",
"                 ............                ",
"                                             "
};
