/* XPM */
static char *dummy[]={
"45 45 11 1",
". c None",
"a c None",
"# c #000000",
"e c #222a5c",
"g c #38002c",
"d c #566a89",
"f c #8babbf",
"h c #ab1f65",
"c c #d22f1e",
"i c #ff8142",
"b c #fff6ae",
".............................................",
".............................................",
".............................................",
".............................................",
".............................................",
".............................................",
".............................................",
".............................................",
".............................................",
"......................###aaa.................",
".....................#bc#....................",
".....................#bc#....................",
".....................#dd#....................",
".....................#dd#....................",
"................######ee######...............",
"...............#dffffffdddeeed#..............",
"..............#dfffffffdddeeeed#aaaa.........",
".............#dffffffffdddeeeeed#............",
"....#########eeeeeeeeeeeeggggggge##########..",
"...#chhhchhhciiiciiiiiiiiciiiiccchhhchhhhc#..",
"...#chhhchhhciiiciiiiiiiiciiiiccchhhchhhhc#..",
"...##########eeeeeeeeeeeeeeeeeeee#########a..",
"............#edddddddddddddeeeeee#...........",
"............#edddddddddddddeeeeee#...........",
"............#ggeeeeeeeeeeeggggggg#...........",
".............#ggeeeeeeeeeggggggg#............",
".............#gggeeeeeeegggggggg#............",
"..............#dfffffffdddeeeed#aaaa.........",
"...............#####eeeeee#####..............",
"..................#dffddeed#.................",
"..................#dffddeed#.................",
"..................#de####eg#.................",
"..................#de####eg#.................",
"..................#gggggggg#.................",
"..................#ggcccccg#.................",
"..................#gggggggg#.................",
"...................########a.................",
".............................................",
".............................................",
".............................................",
".............................................",
".............................................",
".............................................",
".............................................",
"............................................."};
