/* XPM */
static char *dummy[]={
"45 45 10 1",
". c None",
"# c #000000",
"f c #222a5c",
"c c #38002c",
"d c #566a89",
"e c #8babbf",
"g c #ab1f65",
"a c #d22f1e",
"h c #ff8142",
"b c #fff6ae",
".............................................",
".............................................",
".............................................",
".............................................",
".............................................",
".............................................",
".............................................",
".............................................",
".............................................",
".....................###.....................",
".....................#ab#....................",
".....................#ca#....................",
".....................#dd#....................",
"..................####dd#####................",
"................##eeeeffeeeed#...............",
"...............#dfffdddeeeeeed#..............",
"............###dffffdddeeeeeeed############..",
"......######aadfffffdddfffffffffaaaaaaagaa#..",
"...###aaahhhhhhhhhhhhhhhhhhhhhhhhaaaagggaa#..",
"...#aagggggagggaaahhhhhahhhhhhhggaaaaggg##...",
"...#aagggggagggaaahhhhhahhhhhhhgga######.....",
"....#########ffffffffffffffffffff#...........",
"............#ffffffdddddddddddddf#...........",
"............#ffffffddddddffffffcc#...........",
"............#cccccccffffffffffcc#............",
".............#cccccccffffffffccc#............",
"..............#cccccccfffffeeed#.............",
"...............#dfffdddeeeef###..............",
"................####ffffffff#................",
"...................#dffddeed#................",
"...................#dffddeed#................",
"....................#c##fdd#.................",
"...................##c##fdd##................",
"..................#cccfffddff#...............",
"..................#cacfffddff#...............",
"..................#cccfffddff#...............",
"...................##########................",
".............................................",
".............................................",
".............................................",
".............................................",
".............................................",
".............................................",
".............................................",
"............................................."};
