/* XPM */
static char *dummy[]={
"45 45 11 1",
". c None",
"a c None",
"# c #000000",
"g c #222a5c",
"d c #38002c",
"e c #566a89",
"f c #8babbf",
"h c #ab1f65",
"c c #d22f1e",
"i c #ff8142",
"b c #fff6ae",
".............................................",
".............................................",
".............................................",
".............................................",
".............................................",
".............................................",
".............................................",
".............................................",
".............................................",
"......................###aaa.................",
"....................a#bc#....................",
"....................a#cd#....................",
"....................a#ee#....................",
"..............aaa#####ee####.................",
"................#effffggffff##...............",
"...............#effffffeeeggge#aaaaa.........",
"...############efffffffeeegggge###...........",
"...#cchcccccccgggggggggeeegggggecc######aaa..",
"...#cchhhcccciiiiiiiiiiiiiiiiiiiiiiiiccc###..",
"....##hhhcccchhiiiiiiiciiiiiccchhhchhhhhcc#..",
"......######chhiiiiiiiciiiiiccchhhchhhhhcc#..",
"............#gggggggggggggggggggg#########a..",
"............#geeeeeeeeeeeeegggggg#...........",
"............#ddggggggeeeeeegggggg#...........",
"............a#ddggggggggggddddddd#...........",
"............a#dddggggggggddddddd#............",
"..............#efffgggggddddddd#.............",
"...............###gffffeeeggge#aaaaa.........",
".................#gggggggg####...............",
".................#effeegge#..................",
".................#effeegge#..................",
"..................#eeg##d#...................",
".................##eeg##d##..................",
"................#ggeegggddd#.................",
"................#ggeegggdcd#.................",
"................#ggeegggddd#.................",
"..............aaa##########a.................",
".............................................",
".............................................",
".............................................",
".............................................",
".............................................",
".............................................",
".............................................",
"............................................."};
