/* XPM */
static char *dummy[]={
"45 45 469 2",
"Qt c None",
"fo c #000000",
"eq c #000000",
".h c #000000",
"cS c #000000",
"eM c #000000",
".D c #000000",
"ei c #000000",
"d2 c #000000",
".I c #000000",
"b0 c #000000",
"dG c #000000",
".d c #000000",
"d. c #000000",
"#G c #000000",
".# c #000000",
"f. c #000000",
"dl c #000000",
"#m c #000000",
".C c #000000",
"aD c #000000",
"aC c #000000",
".u c #000000",
".5 c #000000",
".4 c #000000",
".g c #000000",
"ap c #000000",
"ep c #000000",
"dk c #000000",
".e c #000000",
"eZ c #000000",
"#W c #000000",
".f c #000000",
"dR c #000000",
"dH c #000000",
"d3 c #000000",
"eI c #000000",
"eW c #000000",
".i c #000000",
"ew c #000000",
"bZ c #000000",
"er c #000000",
"d5 c #000000",
"eS c #000000",
"d4 c #000000",
"bo c #000000",
"cT c #000000",
"d6 c #000000",
"fs c #000000",
"aS c #000000",
".H c #000000",
"aR c #000000",
"#F c #000000",
"eY c #000000",
"#l c #000000",
"e9 c #000000",
".t c #000000",
".a c #000000",
"cG c #000000",
"#V c #000000",
".c c #000000",
"eC c #000000",
"ex c #000000",
"ba c #000000",
".E c #000000",
".J c #000000",
"b1 c #000000",
"eR c #000000",
"fm c #000000",
"dv c #000000",
"fr c #000000",
"fq c #000000",
"fp c #000000",
"ej c #000000",
"bp c #000000",
".B c #000000",
".3 c #000000",
"aa c #000000",
".Y c #000000",
"#k c #000000",
".F c #000000",
".Z c #000000",
".G c #000000",
".X c #000000",
".b c #000000",
".n c #000000",
"d7 c #000000",
"fn c #000000",
"b# c #000000",
".s c #000000",
"bq c #000000",
"eh c #000000",
"fh c #000000",
".0 c #000000",
"f# c #000000",
".o c #000000",
"dF c #000000",
".j c #000000",
"#E c #000000",
".W c #000000",
"dm c #000000",
"#j c #000000",
".r c #000000",
"cl c #000000",
".p c #000000",
"ao c #000000",
".q c #000000",
"aq c #000000",
".v c #000000",
"cR c #000000",
"dQ c #000000",
"aB c #000000",
"bF c #000000",
".6 c #000000",
"dj c #000000",
"bY c #000000",
"dS c #000000",
".2 c #000000",
"#U c #000000",
"#D c #000000",
"a# c #000000",
".A c #000000",
".m c #000000",
".k c #000000",
"cF c #000000",
"br c #000000",
"dI c #000000",
"d1 c #000000",
"aT c #000000",
"ee c #00476e",
".1 c #000000",
"eH c #000000",
"e8 c #000000",
"du c #000407",
"fg c #000000",
"eo c #000d14",
"eV c #00304a",
"en c #005b8d",
"c9 c #000000",
"eL c #000000",
"ez c #005786",
"dM c #0094e0",
"b. c #000000",
"eE c #006fab",
"d8 c #000000",
"dw c #002b42",
"eQ c #00304a",
"aK c #005380",
".N c #005684",
"dX c #0084cc",
"eg c #000000",
"ev c #002133",
"cB c #006398",
"## c #00afff",
"#t c #000000",
"dE c #000406",
"#R c #005d8f",
"#C c #000000",
"aX c #004d77",
"e5 c #005584",
"aJ c #005c88",
"#L c #005c8e",
".V c #000000",
"fa c #001826",
"bE c #003a5a",
"#B c #004469",
"dZ c #004d77",
"dY c #00507d",
"eu c #00649b",
"dV c #00659c",
"ed c #00659d",
"eU c #0067a0",
"a4 c #00b2ff",
"bX c #000000",
"ey c #000e17",
"eD c #001622",
"ef c #001724",
"eX c #002e46",
"dN c #003b5a",
"cD c #004e74",
"eP c #0068a1",
"em c #006ba6",
"ec c #0074b4",
"be c #007bc0",
"aA c #000000",
"aw c #000203",
"dq c #001b2a",
"aQ c #003654",
"ck c #003a59",
"#s c #004367",
"bk c #004469",
"ai c #004a71",
"ak c #005b8c",
"cA c #00649b",
".M c #00659c",
"az c #0085cd",
"aP c #0092e3",
"aW c #009aec",
"#Q c #009cf1",
"#K c #009df2",
"dL c #00a7ff",
"#. c #00adff",
"a8 c #00aeff",
"#5 c #00b2ff",
"dW c #00b5ff",
"#i c #000000",
"cc c #000102",
"eb c #00111b",
"d# c #001320",
"eT c #001723",
"eN c #001724",
"bQ c #001a27",
"cw c #001b29",
"bm c #002031",
"a7 c #002032",
"e4 c #002133",
"cQ c #002539",
"bv c #002b44",
"e3 c #002e46",
"eB c #00314c",
"aI c #00324e",
"cx c #003450",
"eK c #003552",
"c8 c #003755",
"cE c #003756",
"bB c #003d5f",
"cb c #004367",
"aj c #004b74",
"ah c #004c75",
"cy c #00517a",
"e1 c #005a8b",
"cC c #005b8e",
"c3 c #005f93",
"e2 c #00659b",
"cV c #006897",
"eA c #0068a0",
"eF c #0069a2",
"fd c #006ba5",
"et c #006ba7",
"cn c #0070a3",
"eO c #0070ad",
"dg c #0071af",
"ag c #0085ce",
"bu c #0086d0",
"dp c #008ad6",
"#A c #008bd4",
"bD c #0094e1",
"a3 c #0095e2",
"cj c #009ced",
"bd c #00aaff",
"#4 c #00b0ff",
".l c #000000",
"bs c #000001",
".y c #000102",
"bL c #000203",
".z c #000306",
"eG c #000406",
".x c #000507",
"aM c #000508",
".w c #000509",
"cM c #000608",
"bw c #000609",
"cY c #00070b",
"aE c #00080c",
"dr c #00080d",
"ff c #00080e",
"a1 c #00090e",
"dT c #000a0f",
"cU c #000a10",
"#H c #000b12",
".7 c #000c12",
"d0 c #000d14",
"b7 c #000e15",
"fl c #000e16",
"aY c #000f17",
"aU c #001018",
"e0 c #001019",
"aZ c #00111a",
"b8 c #00121b",
"bl c #00121c",
"#X c #00131d",
"dn c #00131e",
"cH c #00141f",
"#u c #001420",
"dc c #001520",
"cZ c #001622",
"cm c #001722",
"eJ c #001724",
"#n c #001826",
".K c #001926",
"bR c #001927",
"cq c #001b29",
"cN c #001c2c",
"aN c #001d2c",
"bh c #001e2e",
"a6 c #001e2f",
"ek c #001f30",
"#f c #002031",
"di c #002134",
".U c #002438",
"bz c #00273c",
"bG c #00273d",
"dD c #00283e",
"ar c #002940",
"fk c #002b43",
"bb c #002c43",
"#h c #002c46",
"a0 c #002f48",
"bV c #002f49",
"dt c #00314c",
"aL c #00324e",
"bC c #00334f",
"es c #003450",
"c6 c #003451",
"c7 c #003552",
"ab c #003553",
"fi c #003652",
"#e c #003654",
"c5 c #003655",
"b2 c #003755",
"fj c #003756",
"#g c #003856",
"c4 c #003857",
"#v c #003958",
"bM c #003b5a",
"ea c #003b5b",
"cd c #003e61",
"fe c #004063",
"a. c #004368",
"a2 c #004369",
"bU c #004468",
"dz c #004469",
"an c #00466c",
"b9 c #004870",
"aF c #004b75",
"bt c #004c75",
"fb c #004c76",
"e. c #004d77",
"av c #004e73",
"au c #004e75",
"ax c #004e77",
"ds c #004e79",
"#w c #004f7a",
"e# c #005077",
"cp c #00507c",
"d9 c #005377",
".T c #00537f",
"by c #005380",
"dJ c #005479",
"cL c #005482",
"b6 c #005483",
"dU c #005579",
"cr c #005583",
"bf c #005786",
"bg c #005989",
"c0 c #00598a",
"cO c #00598b",
".O c #005a8a",
"#T c #005b8b",
"#S c #005b8c",
"bP c #005b8e",
"cz c #005c8e",
"ae c #005d8f",
".8 c #005d91",
"cv c #005e90",
"b3 c #005f8f",
".P c #005f93",
".Q c #005f94",
"dC c #006297",
"#x c #006397",
".R c #00639a",
"dK c #00649b",
"dh c #00649c",
"cX c #00659b",
"dP c #00659e",
"bH c #006698",
".S c #00669d",
"e7 c #00669e",
"bN c #00679f",
"e6 c #0067a0",
"ca c #0067a1",
"dB c #0068a0",
"bK c #0068a1",
"c# c #0068a2",
"ct c #0069a2",
"aH c #0069a3",
"c. c #006aa4",
"bO c #006aa5",
"cu c #006ba5",
"c2 c #006ba6",
"de c #006ca6",
"df c #006ca7",
".L c #006d9f",
"dO c #006da8",
"c1 c #006da9",
"cP c #006daa",
"dd c #006eaa",
"db c #006eab",
"do c #006fa1",
"el c #006fab",
"cs c #006fac",
"fc c #0070ad",
"dA c #0070ae",
"aV c #0071af",
"#I c #0072a5",
"bx c #0072b0",
"#Y c #0073a7",
"cI c #0074a9",
"#M c #0074b3",
"a9 c #0079bc",
"cg c #007cc0",
"#y c #007ec2",
"bW c #0081c2",
"#d c #0081c7",
"b4 c #0084cc",
"dy c #0086ce",
"bn c #0089d5",
"a5 c #008ad5",
"at c #008cd7",
"ch c #0091e0",
"#z c #0092e2",
"#r c #0093e0",
"#N c #0093e4",
"bI c #0094e5",
"bT c #0095e7",
"bS c #0096e0",
"#9 c #0096e3",
"ad c #0096e8",
"ce c #0097e5",
"bA c #0097e6",
"as c #0098e3",
"bi c #009ae5",
"bj c #009aec",
"al c #009bf0",
"am c #009ef0",
"#o c #00a0ed",
"cK c #00a0f4",
"co c #00a0f5",
"cf c #00a0f8",
"b5 c #00a1f6",
"da c #00a1f7",
"cW c #00a3fa",
"bJ c #00a3fb",
"ay c #00a4fc",
"aG c #00a4fd",
"#0 c #00a4ff",
"#q c #00a5ff",
"#p c #00a6ff",
"#1 c #00a7ff",
"#P c #00a8ff",
"#3 c #00a9ff",
"aO c #00aafd",
"#c c #00aaff",
"#O c #00abff",
"#2 c #00acff",
"#J c #00adff",
"#b c #00aeff",
"#a c #00afff",
"bc c #00b0ff",
"#8 c #00b1ff",
"#Z c #00b3ff",
"af c #00b4ff",
".9 c #00b5ff",
"ci c #00b7ff",
"cJ c #00b8ff",
"#7 c #00b9ff",
"#6 c #00baff",
"ac c #00bcff",
"dx c #00c5ff",
"QtQtQtQtQtQtQtQtQtQtQtQtQtQtQtQtQtQtQtQtQtQtQtQtQtQtQtQtQtQtQtQtQtQtQtQtQtQtQtQtQtQtQtQtQt",
"QtQtQtQtQtQtQtQtQtQtQtQtQtQtQtQtQtQtQtQtQtQtQtQtQtQtQtQtQtQtQtQtQtQtQtQtQtQtQtQtQtQtQtQtQt",
"QtQtQtQtQtQtQtQtQtQtQtQtQtQtQtQtQtQtQtQtQtQtQtQtQtQtQtQtQtQtQtQtQtQtQtQtQtQtQtQtQtQtQtQtQt",
"QtQtQtQtQtQtQtQtQtQtQtQtQtQtQtQtQtQtQtQtQtQtQtQtQtQtQtQtQtQtQtQtQtQtQtQtQtQtQtQtQtQtQtQtQt",
"QtQtQtQtQtQtQtQtQtQtQt.#.a.b.cQt.d.e.f.gQtQtQtQtQtQtQtQtQtQtQtQtQtQtQtQtQtQtQtQtQtQtQtQtQt",
"QtQtQtQtQtQtQtQtQt.h.i.j.k.l.m.n.o.p.q.r.s.tQtQtQtQtQtQtQtQtQtQtQtQtQtQtQtQtQtQtQtQtQtQtQt",
"QtQtQtQtQtQtQtQtQt.u.v.l.w.x.l.l.l.l.y.z.l.A.B.CQtQtQt.D.E.F.n.G.HQtQtQtQtQtQtQtQtQtQtQtQt",
"QtQtQtQtQtQtQtQt.I.J.l.K.L.M.N.O.P.Q.R.S.T.U.V.W.X.Y.Z.0.1.l.l.l.2.3.4QtQtQtQtQtQtQtQtQtQt",
"QtQtQtQtQtQtQtQt.5.6.7.8.9#.###a#b#b#b#b#c#d#e.l.l.l.l.l.l#f#g#h.l#i#j#k#l#mQtQtQtQtQtQtQt",
"QtQtQtQtQtQtQt.#.0.l#n#o#p#q#q#q#q#q#q#q#p#c#r#s#t#u#v#w#x#y#z#A#B#C.l.l#D#E#FQtQtQtQtQtQt",
"QtQtQtQtQtQt#G.Y.l#H#I#J#q#q#q#q#q#q#q#q#q#q#c#K#L#M#N#p#a#O#P#O#Q#R#S#T#v.l#U#VQtQtQtQtQt",
"QtQtQtQtQtQt#W.k#X#Y#Z#0#q#q#q#q#q#q#q#q#q#q#q#1#a#2#P#3#b#q#c#4#5#6#7#8#9a..la##FQtQtQtQt",
"QtQtQtQtQt#Gaa.yabac#0#q#q#q#q#q#q#q#q#q#q#q#q#q#q#3#Zadaeafagahaiajakal#Jaman.laoQtQtQtQt",
"QtQtQtQtQtapaq.yaras#3#q#q#q#q#q#q#q#q#q#q#q#q#1#Oatauab.xav#f.l.l#iawaxay#JazaAaBaCQtQtQt",
"QtQtQtQtQtaD.o.laEaF#3#p#q#q#q#q#q#q#q#q#q#q#3aGaHar.l.l.l.laIaJaKaLaMaNaO#PaPaQa#aRQtQtQt",
"QtQtQtQtQt.DaSaT.laUaV#O#q#q#q#q#q#q#q#q#q#PaWaXaYaZa0.la1a2a3a4##a5a6a7a8#p#Pa9b.b#QtQtQt",
"QtQtQtQtQtQtQtba.m.lbbbc#q#q#q#q#q#q#q#q#pbdbe.VaZbfbg.lbhbi#O#cbjbkblbma8#q#Jbn.l.rQtQtQt",
"QtQtQtQtQtbobpbqbrbsbt#b#q#q#q#q#q#q#q#1#Obubvbwanbxby.lbz#7#pbAbBaA.lbC#8#PbDbE.V.oQtQtQt",
"QtQtQt#G.GbF.l.lbGbHbI#1#q#q#q#q#q#q#PbJbKbzbLbMbNbObPbQbRbS#JbTbU#XbVbW#3#JbubXbYbZQtQtQt",
"QtQtb0b1.l.lb2b3b4bc#P#q#q#q#q#q#q#Pb5b6b7b8b9.Sc.c#cacbcccdce#Zcfcgchci#Zcjck#iclQtQtQtQt",
"QtQtaC.Wcmcn#z#8#c#q#q#q#q#q#q#q#PcocpbwcqcrcsctbKbKcucvcw.lcxcyczcAcBcCcDcEaAcFcGQtQtQtQt",
"QtQt.#.scHcIcJ#0#q#q#q#q#q#q#q#PcKcLcMcNcOcPbKbKbKbKbKbNbfcQ#i#i.laA#t.lbX.l.lcR.dQtQtQtQt",
"QtQtcScT.mcUcV#O#q#q#q#q#q#q#1cWcXcYcZc0c1bKbKbKbKbKbKbKc2c3c4c4c5c6c7c8c7bhc9.nQtQtQtQtQt",
"QtQtQtd..s.ld##Z#q#q#q#q#q#pdadbdc.7b6c1bKbKbKbKbKbKbKbKbKc.ddddc1dedfdgdhdidjdkQtQtQtQtQt",
"QtQtQtdldmdndo#O#q#q#q#q#q#3dpdqdrdsdbbKbKbKbKbKbKbKbKbKbKbKbKbKbKbKcu.RdtdudvQtQtQtQtQtQt",
"QtQt.ddv.ldwdx#J#0#q#q#q#q#bdyaAdzdAdBbKbKbKbKbKbKbKbKbKbKbKbKbKbKbOdCdDdEdFdGQtQtQtQtQtQt",
"QtQtdHdI.lb8dJdKci#b#0#qdLdMdNdcdObKbKbKbKbKbKbKbKbKbKbKbKbKbKbKaHdPbM.ldQdRQtQtQtQtQtQtQt",
"QtQt.f.vbFaBdSdTdUdVcibcdWdX.VdYc2bKbKbKbKbKbKbKbKbKbKbKbKbKbKaHbOdZd0d1#lQtQtQtQtQtQtQtQt",
"QtQtd2d3d4d5d6d7d8dTd9e.e#eaebecdBbKbKbKbKbKbKbKbKbKbKbKbKbKctedeeefegeh.hQtQtQtQtQtQtQtQt",
"QtQtQtQtQtQtQteiejcR.6.k.l.lekelbKbKbKbKbKbKbKbKbKbKbKbKbKbKemeneo#iaoepQtQtQtQtQtQtQtQtQt",
"QtQtQtQtQtQtQtQteqerd4ej.laMesc1bKbKbKbKbKbKbKbKbKbKbKbKbKeteuev.lbFewQtQtQtQtQtQtQtQtQtQt",
"QtQtQtQtQtQtQtQtQtQtQtex.leyezbObKbKbKbKbKbKbKbKbKbKbKbKcueAeB.l.kd6QtQtQtQtQtQtQtQtQtQtQt",
"QtQtQtQtQtQtQtQtQtQtd2eC.leDeEc#bKbKbKbKbKbKbKbKbKbKbKcueFabeGeHb1QtQtQtQtQtQtQtQtQtQtQtQt",
"QtQtQtQtQtQtQtQtQtQtQteI.leJdAbKbKbKbKbKbKbKbKbKbKbKcubNeKbweL.3eMQtQtQtQtQtQtQtQtQtQtQtQt",
"QtQtQtQtQtQtQtQtQtQtQtbo.leNeObKbKbKbKbKbKbKbKbKbKcuePeQeGaTeRb0QtQtQtQtQtQtQtQtQtQtQtQtQt",
"QtQtQtQtQtQtQtQtQtQtQteS.leTcsbKbKbKbKbKbKbKbKbKcueUeV#idIcGQtQtQtQtQtQtQtQtQtQtQtQtQtQtQt",
"QtQtQtQtQtQtQtQtQtQtQteW.leJdAbKbKbKbKbKbKbKbKc2eAeXbXcFeYQtQtQtQtQtQtQtQtQtQtQtQtQtQtQtQt",
"QtQtQtQtQtQtQtQtQtQtQteZbFe0e1ddbKbKbKbKbKbKcue2e3.ld1aRQtQtQtQtQtQtQtQtQtQtQtQtQtQtQtQtQt",
"QtQtQtQtQtQtQtQtQtQtQtb0eReGe4e5cse6bKbKbKc.e7c8.le8e9QtQtQtQtQtQtQtQtQtQtQtQtQtQtQtQtQtQt",
"QtQtQtQtQtQtQtQtQtQtQtQtf.f#.lfafb#MdbddfcfdfefffgbaQtQtQtQtQtQtQtQtQtQtQtQtQtQtQtQtQtQtQt",
"QtQtQtQtQtQtQtQtQtQtQtQtQtdlfh.le0fi#efjc7fkfleLfmQtQtQtQtQtQtQtQtQtQtQtQtQtQtQtQtQtQtQtQt",
"QtQtQtQtQtQtQtQtQtQtQtQtQtQtb0fnb..l.l.l.l.la#.JfoQtQtQtQtQtQtQtQtQtQtQtQtQtQtQtQtQtQtQtQt",
"QtQtQtQtQtQtQtQtQtQtQtQtQtQtQteM.cfpfpfpfqfrfsQtQtQtQtQtQtQtQtQtQtQtQtQtQtQtQtQtQtQtQtQtQt",
"QtQtQtQtQtQtQtQtQtQtQtQtQtQtQtQtQtQtQtQtQtQtQtQtQtQtQtQtQtQtQtQtQtQtQtQtQtQtQtQtQtQtQtQtQt",
"QtQtQtQtQtQtQtQtQtQtQtQtQtQtQtQtQtQtQtQtQtQtQtQtQtQtQtQtQtQtQtQtQtQtQtQtQtQtQtQtQtQtQtQtQt"};
