/* XPM */
static char *dummy[]={
"45 45 470 2",
"Qt c None",
"#V c #000000",
"e2 c #000000",
"es c #000000",
".# c #000000",
"fp c #000000",
"#g c #000000",
".3 c #000000",
"cX c #000000",
"ai c #000000",
"ft c #000000",
"aU c #000000",
"cq c #000000",
"#J c #000000",
"cL c #000000",
".g c #000000",
"#I c #000000",
"#x c #000000",
".A c #000000",
"#w c #000000",
".l c #000000",
".r c #000000",
"bk c #000000",
".d c #000000",
".f c #000000",
".z c #000000",
"dz c #000000",
"cr c #000000",
".c c #000000",
"e9 c #000000",
".K c #000000",
"ba c #000000",
".M c #000000",
".2 c #000000",
"bV c #000000",
"bM c #000000",
"bl c #000000",
"bw c #000000",
"a. c #000000",
".e c #000000",
"bG c #000000",
"c8 c #000000",
"fo c #000000",
"ff c #000000",
"fe c #000000",
"ec c #000000",
".a c #000000",
"eE c #000000",
".L c #000000",
".q c #000000",
"#W c #000000",
"b7 c #000000",
"aT c #000000",
"#f c #000000",
".k c #000000",
"fq c #000000",
"fs c #000000",
"e1 c #000000",
"#H c #000000",
"fr c #000000",
"#h c #000000",
".m c #000000",
"et c #000000",
"fn c #000000",
"#b c #000000",
".X c #000000",
"#X c #000000",
"fg c #000000",
".b c #000000",
".1 c #000000",
"eR c #000000",
".J c #000000",
"ch c #000000",
"f. c #000000",
"ed c #000000",
"er c #000000",
"#Y c #000000",
"aV c #000000",
".4 c #000000",
"fk c #000000",
"#Z c #000000",
"a# c #000000",
"cY c #000000",
"#1 c #000000",
"cM c #000000",
"fm c #000000",
"ah c #000000",
"dZ c #000000",
"dk c #000000",
"aC c #000000",
"b8 c #000000",
"cB c #000000",
"eQ c #000000",
"aj c #000000",
"eF c #000000",
".h c #000000",
"cs c #000000",
"#0 c #000000",
".u c #000000",
".p c #000000",
".W c #000000",
".n c #000000",
"cA c #000000",
".j c #000000",
"dA c #000000",
"cW c #000000",
"dy c #000000",
".Y c #000000",
".0 c #000000",
"dL c #000000",
"#e c #000000",
"b# c #000000",
".y c #000000",
"aB c #000000",
"eD c #000000",
".o c #000000",
"cp c #000000",
"bj c #000000",
"eu c #000000",
".Z c #000000",
"aa c #000000",
"bv c #000000",
".N c #000000",
"#9 c #000000",
"#v c #000000",
".t c #000000",
"eS c #000001",
"eb c #000000",
"#2 c #000000",
"b6 c #000000",
"e0 c #000000",
".v c #000000",
"#q c #000000",
"dO c #005e90",
"#U c #000000",
"d0 c #00283e",
"fl c #000000",
"#c c #000000",
"ee c #000000",
"dN c #003857",
".I c #000000",
"aw c #006297",
"dV c #0087d1",
"bb c #000000",
"cN c #00111a",
"ar c #002a41",
"cD c #00507c",
"aJ c #00659c",
"dD c #0071af",
"az c #0083c9",
"#i c #000000",
"ea c #003a5a",
"cO c #00517c",
"ei c #004063",
"d9 c #006eab",
"aS c #007ec3",
"ad c #00adff",
"#p c #000000",
"cZ c #00121c",
"co c #003857",
".C c #00648d",
"#G c #000000",
"cm c #001e2f",
"aD c #002031",
"ex c #004266",
"fd c #004f78",
"fb c #006399",
"ce c #0075b3",
"dj c #000000",
"#j c #001f31",
"aN c #002337",
"eg c #002d45",
"dC c #004468",
"aX c #005989",
"d1 c #0068a0",
"#y c #0072a6",
"eP c #000000",
"aO c #00090e",
"cC c #001119",
"eo c #001d2d",
"eW c #002538",
"aq c #003754",
"av c #004c6c",
"a4 c #00659e",
"aI c #006eaa",
"dU c #00abff",
"a7 c #000000",
"el c #00121c",
"dq c #002133",
"eI c #00324d",
"cd c #00466d",
"eM c #00517e",
"eC c #005888",
"aQ c #005989",
"d8 c #006798",
"e6 c #006897",
"dn c #0073b3",
"eq c #0080c6",
"cz c #0084cd",
"cn c #0095e3",
"ay c #00aaff",
"eX c #00acff",
"dW c #00b1ff",
"e# c #00b3ff",
"ac c #00bdff",
".s c #000000",
"eB c #000406",
"dM c #000507",
"f# c #00080d",
"c5 c #000e16",
"aW c #001521",
"d7 c #001621",
"da c #001723",
"a6 c #001927",
"dF c #001c2b",
"e. c #002336",
"dY c #002940",
"c4 c #002c43",
"dQ c #002d46",
"aM c #003754",
"ao c #003857",
"cj c #004b75",
"aP c #004e6f",
"cu c #004e79",
"ew c #004f79",
"cP c #00517d",
"c0 c #00517e",
"fa c #005276",
"dm c #00527e",
"c3 c #005482",
"eL c #005787",
"d# c #005b8e",
"bX c #005d8f",
"aE c #005d90",
"dI c #00649a",
".S c #006da7",
"c. c #006fad",
"a3 c #0070ad",
"d. c #0071ad",
"c1 c #0071ae",
"ck c #0072b0",
"bO c #0073b2",
"fc c #008bd7",
".G c #0098eb",
"b3 c #00a9ff",
"dv c #00aeff",
".i c #000000",
"bx c #000001",
"at c #000101",
"#d c #000102",
"bs c #000203",
"ak c #000204",
"cc c #000304",
"b1 c #000405",
"#8 c #000406",
"ef c #000407",
"cy c #000507",
"bR c #000508",
"#r c #000608",
"dr c #000609",
"bC c #00070b",
"aA c #00080c",
"bI c #00080d",
"cH c #00090d",
"bF c #000a0f",
"au c #000b10",
".E c #000c12",
"eA c #000c13",
"e3 c #000d14",
"#a c #000e15",
"ag c #000e16",
".w c #000e17",
"ct c #001018",
"bW c #00101a",
"e5 c #001119",
"as c #00111a",
"di c #00121c",
"df c #00121d",
"dB c #00131d",
".B c #00141f",
"eT c #001520",
"c9 c #001623",
"dl c #001724",
"e4 c #001926",
"ci c #001927",
"bN c #001b2a",
"bm c #001c2b",
"ev c #001c2c",
"cb c #001d2c",
"#C c #001d2d",
"ek c #001e2d",
".H c #001e2e",
"#B c #001e2f",
"de c #001f2f",
".O c #001f30",
"cS c #001f31",
"al c #002032",
"bH c #002132",
"by c #002133",
"b9 c #002234",
"bt c #002337",
"bJ c #00253a",
"#3 c #00263a",
"#K c #00283d",
"#T c #002840",
"ab c #00293e",
"cR c #002a41",
"be c #002b42",
"fj c #002c43",
"cg c #002e48",
"br c #002f48",
"cK c #002f49",
"eZ c #00324d",
"bf c #00334f",
"b0 c #003350",
"cQ c #003552",
"en c #003653",
"am c #003755",
"an c #003756",
"db c #003757",
"bB c #003856",
"ap c #003857",
"bS c #003959",
"dx c #003a59",
"a5 c #003a5a",
"bQ c #003c5d",
"d4 c #003d5e",
"a8 c #003d5f",
"aL c #003e60",
"#s c #004265",
".D c #004266",
"#u c #004368",
"d6 c #004569",
"eV c #00466c",
"ds c #00466d",
".x c #004a71",
"fi c #004a72",
"eU c #004a73",
"#7 c #004c75",
"aK c #004c76",
"eG c #004d78",
"d3 c #004e7a",
"dd c #00507d",
"dE c #00517c",
"dP c #00517e",
"fh c #005275",
"bc c #00527f",
"dJ c #005281",
"#S c #005482",
"#o c #005483",
"b2 c #005584",
"cl c #005685",
"eh c #005889",
".R c #005989",
"#O c #00598a",
"c6 c #005a84",
"cI c #005a8b",
"cx c #005c8f",
"dc c #005d89",
"dp c #005d8f",
"cV c #005d90",
"bd c #005e91",
"ez c #005f92",
"#D c #006094",
"ca c #006095",
".V c #00649b",
"bq c #00659c",
"eK c #00669e",
"bZ c #00679e",
"bA c #00679f",
"bP c #0067a0",
"bo c #0068a0",
"aZ c #0068a1",
"cF c #0068a2",
"c2 c #0069a1",
"cw c #0069a2",
"a0 c #0069a3",
"#t c #006a9c",
"do c #006aa3",
"bz c #006aa4",
"d2 c #006aa5",
"dg c #006b9c",
"c# c #006ba5",
"bp c #006ba6",
"cG c #006ca6",
"a1 c #006ca7",
"aY c #006da8",
"a2 c #006da9",
"bY c #006ea9",
"aG c #006eaa",
"aF c #006eab",
"aH c #006fac",
".5 c #0071a4",
"dT c #0071ae",
"cv c #0071af",
"cE c #0072b0",
"eH c #0072b1",
"du c #0073b1",
"em c #0074b0",
"bn c #0075b4",
".F c #0078ab",
"c7 c #0079bb",
"#P c #007bbf",
"#N c #007cc1",
"bu c #007fbe",
"bD c #0080bf",
"eO c #0080c5",
"bg c #0082c4",
"b. c #0082ca",
"bi c #0083cb",
"bE c #0087d0",
"bL c #0087d1",
"#6 c #0088cf",
"b5 c #0088d3",
"## c #0089d4",
"bK c #008acf",
"dh c #008ad5",
"af c #008fde",
"a9 c #0090db",
"dS c #0090de",
"#A c #0090df",
"cJ c #0092e2",
"aR c #0093e2",
"dw c #0095e6",
"dX c #0097e9",
"dt c #0098e7",
"ej c #0098ec",
"#E c #0099ea",
"cf c #0099ed",
"eY c #0099ee",
".Q c #009bf0",
"dG c #009de7",
"e8 c #009def",
"#R c #009df0",
"#n c #009ef0",
"eN c #009ef2",
"dK c #009ef5",
"eJ c #009ff5",
"cU c #009ff6",
"d5 c #00a1f4",
"#M c #00a1f8",
".U c #00a2f5",
"#. c #00a4ff",
"bU c #00a5fb",
"#l c #00a5ff",
"dH c #00a6fc",
"#m c #00a6ff",
"bT c #00a7fc",
".7 c #00a7ff",
"ey c #00a8f8",
"#5 c #00a8ff",
"#Q c #00a9ff",
".6 c #00aaff",
"#z c #00abff",
".9 c #00acff",
"b4 c #00adff",
"ae c #00aeff",
".8 c #00afff",
"bh c #00b0ff",
"#4 c #00b1ff",
"#F c #00b2ff",
".T c #00b3ff",
"dR c #00b4ff",
"ep c #00b6ff",
"e7 c #00b7ff",
"ax c #00b8ff",
"#L c #00b9ff",
"#k c #00baff",
"cT c #00bbff",
".P c #00beff",
"QtQtQtQtQtQtQtQtQtQtQtQtQtQtQtQtQtQtQtQtQtQtQtQtQtQtQtQtQtQtQtQtQtQtQtQtQtQtQtQtQtQtQtQtQt",
"QtQtQtQtQtQtQtQtQtQtQtQtQtQtQtQtQtQtQtQtQtQtQtQtQtQtQtQtQtQtQtQtQtQtQtQtQtQtQtQtQtQtQtQtQt",
"QtQtQtQtQtQtQtQtQtQtQtQtQtQtQtQtQtQtQtQtQtQtQtQtQtQtQtQtQtQtQtQtQtQtQtQtQtQtQtQtQtQtQtQtQt",
"QtQtQtQtQtQtQtQtQtQtQtQtQtQtQtQt.#.a.b.cQtQtQt.d.e.fQtQtQtQtQtQtQtQtQtQtQtQtQtQtQtQtQtQtQt",
"QtQtQtQtQtQtQtQtQtQtQtQtQtQtQtQt.g.h.i.j.k.l.m.n.o.p.qQtQtQtQtQtQtQtQtQtQtQtQtQtQtQtQtQtQt",
"QtQtQtQtQtQtQtQtQtQtQtQtQtQtQtQt.r.j.i.s.t.u.v.w.x.i.y.zQtQtQtQtQtQtQtQtQtQtQtQtQtQtQtQtQt",
"QtQtQtQtQtQtQtQtQtQtQtQtQtQtQtQt.A.p.B.C.D.i.E.F.G.H.I.JQtQt.K.L.MQtQtQtQtQtQtQtQtQtQtQtQt",
"QtQtQtQtQtQtQtQtQtQtQtQtQtQtQtQt.l.N.O.P.Q.R.S.T.U.V.i.WQt.X.Y.Z.0.1.2QtQtQtQtQtQtQtQtQtQt",
"QtQtQtQtQtQtQtQtQtQtQtQtQtQtQt.3.4.B.5.6.7.8.9#..6###a.Z#b#c.i.i#d.i#e#fQtQtQtQtQtQtQtQtQt",
"QtQtQtQtQtQtQtQtQtQtQtQtQtQt#g#h#i#j#k#.#l#l#l#l#m#n#o#p#q.i#r#s#t#u.i#v.X#wQtQtQtQtQtQtQt",
"QtQtQtQtQtQtQtQtQtQtQtQtQtQt#x.W.B#y#z#l#l#l#l#l#l.6#A#B.i#C#D#E#F#n#u.i#G.p#H#gQtQtQtQtQt",
"QtQtQtQtQtQtQtQtQtQtQtQtQt#I#J.0#K#L#.#l#l#l#l#l#l#m#M#N#O#P.7#Q#..6#R#S#T.i#U.bQtQtQtQtQt",
"QtQtQtQtQtQt#V#W#X#Y#Z#Y#Z#0#1#2#3#4#m#l#l#l#l#l#l#l#m#z.8#z#m#l#l#l#5.6#6#7#8#9a.QtQtQtQt",
"QtQtQtQtQt#Ja#aa.i.i.i.i.i.i.i.iabacad#l#l#l#l#l#l#l#l#l#l#l#l#l#l#l#l#maeafag#pahQtQtQtQt",
"QtQtQtQtaiajakalamanaoapaqarasatauavawax.8#5#l#l#l#l#l#l#l#l#l#l#l#l#l#layazaA.iaBQtQtQtQt",
"QtQtQtaiaCataDaEaFaGaFaHaIaJaKaLaMaNaOaPaQaR.9#l#l#l#l#l#l#l#l#l#l#l#l#layaS.i#9aTQtQtQtQt",
"QtQtaUaV.iaWaXaYaZaZaZaZaZa0a1a2a3a4a5a6a7a8a9ae#.#l#l#l#l#l#l#l#l#l#l#l.6b..ib#QtQtQtQtQt",
"QtQtbabb#abcaGaZaZaZaZaZaZaZaZaZaZa0a2bdbe.ibfbgbh#.#l#l#l#l#l#l#l#l#l#l#Qbi.ibjbkQtQtQtQt",
"QtQtbl.ibmbnboaZaZaZaZaZaZaZaZaZaZaZaZbpbqbrbsbtbubh#.#l#l#l#l#l#l#l#l#l#Qbi.ibvbwQtQtQtQt",
"QtQtblbxbyaFaZaZaZaZaZaZaZaZaZaZaZaZaZaZbzbAbBbCalbDae#l#l#l#l#l#l#l#l#l#QbEbF.NbGQtQtQtQt",
"QtQtblbxbHaFaZaZaZaZaZaZaZaZaZaZaZaZaZaZaZbzboa8bIbJbK.6#l#l#l#l#l#l#l#l#zbLbCbj#xQtQtQtQt",
"QtQtbM.ibNbOaZaZaZaZaZaZaZaZaZaZaZaZaZaZaZaZbzbPbQbRbSbT.7#l#l#l#l#l#l#mbUbz.i#eQtQtQtQtQt",
"QtQtbV.ibWbXbYboaZaZaZaZaZaZaZaZaZaZaZaZaZaZaZbzbZb0b1b2b3b4#.#l#l#l#l#5b5byb6b7QtQtQtQtQt",
"QtQt#Jb8#8b9b2c.bPaZaZaZaZaZaZaZaZaZaZaZaZaZaZaZc#cacbcccdce.8#l#l#l#zcfcg#qchQtQtQtQtQtQt",
"QtQtQtbk.u.icicjckboaZaZaZaZaZaZaZaZaZaZaZaZaZaZaZaZclal.scmbK#Q#l.7cnco.icpcqQtQtQtQtQtQt",
"QtQtQtQtcrcs.ictcucvbPaZaZaZaZaZaZaZaZaZaZaZaZaZaZcwcwcxb0cya5#z#l#Qcz#G.icAQtQtQtQtQtQtQt",
"QtQtQtQtQt.rcB.icCcDcEboaZaZaZaZaZaZaZaZaZaZaZaZaZcFcGcvbYamcHcIb4#5cJcK.i.pQtQtQtQtQtQtQt",
"QtQtQtQtQtQtcLcM.icNcOa3bPaZaZaZaZaZaZaZaZaZaZaZa1bpcPapcQcR.icScT#mcUcV.icWQtQtQtQtQtQtQt",
"QtQtQtQtQtQtQtcXcY.icZc0c1bPaZaZaZaZaZaZaZaZc2boc3c4c5.i.i.i.iagc6b4.7c7.ibvc8QtQtQtQtQtQt",
"QtQtQtQtQtQtQtQt.3b8.ic9c3d.bPaZaZaZaZaZaZaZc#d#da.sdbdcddde.idfdg#z#QdhdidjdkQtQtQtQtQtQt",
"QtQtQtQtQtQtQtQtQt#x.h.idldmdnaZaZaZaZaZaZdodpdqdrdsdt#F#QdubN.Odv#l.7dwdx.idyQtQtQtQtQtQt",
"QtQtQtQtQtQtQtQtQtQtdzdA.idBdCdDbpaZaZaZaZc#dE.idFdGae.9#mdHdIbIdJb4#mdKcI.idLQtQtQtQtQtQt",
"QtQtQtQtQtQtQtQtQtQtQt.M.p.idMdNdOcGaZaZaZc#dP.idQdRdSdT.TdUdV.i#CdW#zdXdY.i.jQtQtQtQtQtQt",
"QtQtQtQtQtQtQtQtQtQtQtQtdzdZ.i.id0d1a1aZaZd2d3.id4d5d6d7d8dWd9.ie.e#cnea.iebecQtQtQtQtQtQt",
"QtQtQtQtQtQtQtQtQtQtQtQtQtcqedeeefegehaHaZdoaKa7eiejek.selemen.seoepeq#G#cerQtQtQtQtQtQtQt",
"QtQtQtQtQtQtQtQtQtQtQtQtQtQteseteu.ievdsbYbzew.sexeyez#8.ieA.ieBeC#4b..ieD#IQtQtQtQtQtQtQt",
"QtQtQtQtQtQtQtQtQtQtQtQtQtQtQtQteEeF.iageGeHcP.ieI#FeJeKeLeMclcxeN#zeOePeQQtQtQtQtQtQtQtQt",
"QtQtQtQtQtQtQtQtQtQtQtQtQtQtQtQtQt.leReSeTeUeV.seW#k#mb4dveXb4#lb4eYeZe0e1QtQtQtQtQtQtQtQt",
"QtQtQtQtQtQtQtQtQtQtQtQtQtQtQtQtQtQte2.k.je3e4.ie5e6e7ae#.#m#Q.Te8ap.ib#cqQtQtQtQtQtQtQtQt",
"QtQtQtQtQtQtQtQtQtQtQtQtQtQtQtQtQtQtQtQte9f.bj.i.if#fafbe7aefcfdap.i.tfeQtQtQtQtQtQtQtQtQt",
"QtQtQtQtQtQtQtQtQtQtQtQtQtQtQtQtQtQtQtQtQtQtfffg.neP.if#fhfifj.i.ibjaTQtQtQtQtQtQtQtQtQtQt",
"QtQtQtQtQtQtQtQtQtQtQtQtQtQtQtQtQtQtQtQtQtQtQtQtcre1fk#U.iflb#fmfnfoQtQtQtQtQtQtQtQtQtQtQt",
"QtQtQtQtQtQtQtQtQtQtQtQtQtQtQtQtQtQtQtQtQtQtQtQtQtQtfpfqfrfsbVftQtQtQtQtQtQtQtQtQtQtQtQtQt",
"QtQtQtQtQtQtQtQtQtQtQtQtQtQtQtQtQtQtQtQtQtQtQtQtQtQtQtQtQtQtQtQtQtQtQtQtQtQtQtQtQtQtQtQtQt",
"QtQtQtQtQtQtQtQtQtQtQtQtQtQtQtQtQtQtQtQtQtQtQtQtQtQtQtQtQtQtQtQtQtQtQtQtQtQtQtQtQtQtQtQtQt"};
