/* XPM */
static char *dummy[]={
"45 45 457 2",
"Qt c None",
"ej c #000000",
"#f c #000000",
"eK c #000000",
"ca c #000000",
"ao c #000000",
".M c #000000",
"cO c #000000",
"#z c #000000",
".e c #000000",
".L c #000000",
"fa c #000000",
"aJ c #000000",
"bs c #000000",
"c0 c #000000",
".y c #000000",
"eY c #000000",
"#9 c #000000",
".o c #000000",
"fg c #000000",
".2 c #000000",
"dy c #000000",
"eZ c #000000",
".x c #000000",
"#y c #000000",
"eB c #000000",
"cm c #000000",
"dX c #000000",
"#g c #000000",
".# c #000000",
"bc c #000000",
"bG c #000000",
"b3 c #000000",
".1 c #000000",
"eO c #000000",
"bU c #000000",
"a0 c #000000",
"ap c #000000",
"fb c #000000",
"aK c #000000",
"dx c #000000",
"dM c #000000",
"#Q c #000000",
"eu c #000000",
".d c #000000",
"eX c #000000",
"dL c #000000",
".a c #000000",
"dW c #000000",
".n c #000000",
"#8 c #000000",
".N c #000000",
"ea c #000000",
"cb c #000000",
"bF c #000000",
"#A c #000000",
"br c #000000",
"ff c #000000",
"et c #000000",
"bT c #000000",
"e7 c #000000",
".K c #000000",
"b2 c #000000",
".w c #000000",
"f# c #000000",
"eF c #000000",
".c c #000000",
"e# c #000000",
".b c #000000",
"c# c #000000",
".f c #000000",
"cl c #000000",
"bt c #000000",
"fc c #000000",
"aI c #000000",
".m c #000000",
"aZ c #000000",
"ek c #000000",
"d. c #000000",
"#x c #000000",
"eC c #000000",
"c1 c #000000",
"eW c #000000",
".g c #000000",
".0 c #000000",
"ev c #000000",
"eN c #000000",
"a. c #000000",
".p c #000000",
".v c #000000",
".z c #000000",
"e. c #000000",
"cx c #000000",
"e9 c #000000",
"#P c #000000",
"d3 c #000000",
".J c #000000",
"eE c #000000",
"eb c #000000",
"d9 c #000000",
".h c #000000",
"#e c #000000",
"cN c #000000",
"cZ c #000000",
"c9 c #000000",
"e0 c #000000",
"eM c #000000",
"#7 c #000000",
".l c #000000",
"el c #000000",
"#R c #000000",
"eL c #000000",
"eJ c #000000",
"dw c #000000",
".i c #000000",
"fd c #000000",
".u c #000000",
"#w c #000000",
"eD c #000000",
"bE c #000000",
"bd c #000000",
"bS c #000000",
"f. c #000000",
"aF c #004f7a",
"bq c #000000",
"ei c #000000",
"an c #000f17",
"aH c #000000",
"d2 c #000000",
"fe c #000000",
"dQ c #005783",
"#h c #000000",
"bQ c #003654",
"ck c #000000",
".Z c #000306",
"dI c #006da9",
"aG c #00263a",
"dS c #002d45",
"b1 c #003451",
"av c #00b8ff",
"am c #00517d",
"aW c #006398",
"dO c #00afff",
"dA c #00b1ff",
".I c #000000",
"#T c #001e2f",
"e6 c #003d5f",
"ad c #00a6f7",
"d0 c #00b4ff",
"#1 c #000a0e",
"#I c #000b11",
"b4 c #002d47",
"aa c #0072a6",
"bR c #000000",
"cq c #005e92",
"cd c #0074a8",
"dE c #000407",
"du c #003655",
".G c #005c8a",
"aE c #00679f",
".C c #0068a2",
"dr c #0074b3",
".k c #000000",
"bD c #000101",
"a# c #000d14",
"dR c #001927",
"au c #00283d",
"dF c #002b42",
"bC c #003856",
"dH c #005584",
"bP c #0067a0",
"b0 c #0069a2",
"dP c #009cf2",
"#S c #000000",
"#r c #00090d",
"cc c #000c12",
"#6 c #001b2a",
"ac c #002032",
"dz c #002133",
"#D c #002438",
"aX c #00314b",
"dN c #00324e",
"c. c #003450",
"dK c #003f63",
"a9 c #004368",
".W c #004469",
"af c #00456a",
"#n c #00466d",
"dD c #005a86",
".B c #005e87",
"cf c #006095",
"ba c #006aa4",
"at c #007cc0",
"ab c #007ec3",
"#H c #008cd7",
"#0 c #008fdd",
"cp c #009ef3",
"dZ c #00a7ff",
".7 c #00acff",
"#O c #000000",
"aB c #000001",
"dp c #001d2c",
"by c #002438",
"aO c #002e47",
"dU c #00304a",
"dT c #00304b",
"cr c #00314b",
"ci c #003452",
"bb c #003958",
"bl c #003959",
"bp c #003b5c",
"es c #003c5d",
"cE c #003f61",
"bz c #004368",
"#5 c #00486e",
"e2 c #004870",
"dq c #004971",
"#m c #004b74",
"eS c #004d77",
"e5 c #005577",
"cM c #005583",
"#X c #005d91",
"bN c #006196",
"aS c #00659c",
"dt c #00669d",
"b9 c #00679f",
"bB c #0068a1",
"bo c #0068a2",
"al c #006ba5",
"aV c #006ca8",
"#J c #006da8",
"bm c #006eab",
"dJ c #0070ad",
"#t c #0072b0",
"a3 c #007cc1",
"dC c #007dc1",
"#q c #0084cb",
"aA c #0086ce",
"## c #0086cf",
"eA c #0088d2",
"cA c #008cd9",
"#C c #008dda",
"aQ c #0094dc",
"er c #0095e2",
".F c #009bef",
"ae c #009ced",
".V c #009df0",
"as c #00aaff",
".6 c #00afff",
".j c #000000",
"d4 c #000001",
"dv c #000102",
"cP c #000203",
"cY c #000204",
"a4 c #000304",
"eG c #000305",
"bh c #000405",
"aY c #000406",
"#Y c #000407",
"#d c #000507",
"cg c #000509",
"c5 c #000609",
"e1 c #00070a",
".q c #00070b",
"cC c #00080c",
"dc c #00080d",
".X c #00090d",
"e4 c #00090e",
"cj c #00090f",
"bX c #000a0f",
"cy c #000a11",
".A c #000b12",
".O c #000c12",
"#E c #000c13",
"aq c #000e15",
"bK c #000e16",
"#N c #000f16",
"dd c #000f17",
"a1 c #001018",
".3 c #00111a",
"ey c #00111b",
"cw c #00121a",
"b6 c #00121b",
"cI c #00121c",
"aT c #00131d",
"cJ c #00141e",
"#2 c #001520",
"#a c #001521",
"c6 c #001622",
"#s c #001623",
"aP c #001723",
"aC c #001724",
"eP c #001825",
"cU c #001927",
"aL c #001a27",
"ag c #001a28",
"d5 c #001b29",
"a8 c #001c2b",
"cF c #001d2e",
".Y c #001e2f",
"bu c #002235",
"#F c #002437",
"#i c #00263a",
"#B c #00263b",
"dV c #00293f",
"dn c #002a41",
"dm c #002d46",
"cB c #00304a",
"d# c #00304b",
"#v c #00324d",
"dG c #00324e",
"bi c #003350",
"cQ c #003450",
"#M c #003451",
"#c c #003553",
"ep c #003653",
"bg c #003654",
"eH c #003756",
"c2 c #00395a",
"e3 c #003b5a",
"bL c #003b5b",
"bx c #003b5c",
"cs c #003c5c",
"a5 c #003c5d",
"be c #003e5f",
"cv c #003f62",
".t c #004063",
"e8 c #004064",
".H c #004165",
"bk c #004369",
"dl c #00446a",
"#l c #00466d",
"bM c #00486f",
"de c #004870",
"eq c #004971",
"b7 c #004972",
".r c #004e78",
"c7 c #004f7b",
"cz c #00507d",
"bj c #005178",
"cD c #00527e",
"#o c #00527f",
"#Z c #005380",
"cX c #005481",
"ex c #005482",
"cV c #005584",
"cK c #005686",
"bY c #005787",
"di c #005887",
"ef c #005888",
"c4 c #00588a",
"ew c #00597e",
"db c #005989",
".s c #005b86",
"ee c #005b8d",
"#b c #005c8e",
"bV c #005d8f",
"#W c #006096",
"dk c #006196",
"#L c #006297",
"eT c #006398",
"cT c #00639a",
"bA c #00649b",
"#u c #00659d",
"b8 c #00659e",
"ec c #00669a",
"ch c #00669c",
"cn c #00669d",
"cu c #0068a0",
".4 c #0068a1",
"dg c #0068a2",
"d6 c #00699a",
"a2 c #0069a1",
"#4 c #0069a2",
"ak c #0069a3",
"em c #006a9a",
"bn c #006aa4",
"#K c #006aa5",
"#3 c #006ba5",
"ds c #006ba6",
"b# c #006ca6",
"b. c #006ca7",
"dh c #006da8",
"aj c #006da9",
"cL c #006daa",
"a7 c #006eaa",
"cW c #006eab",
"bO c #006fab",
"aD c #006fac",
"aU c #006fad",
"c8 c #0070ad",
"ct c #0071ae",
"df c #0071af",
".P c #0072a5",
"ay c #0074b4",
"bZ c #0075b5",
"#p c #0078b9",
"eo c #0079bb",
"ah c #007cc0",
"#V c #007dc2",
"#k c #007ec3",
"cH c #0080c6",
"d8 c #0081c7",
"ez c #0082c2",
"b5 c #0083cb",
"bJ c #0084cd",
"#G c #0087c9",
"eV c #0087d2",
"d1 c #0089d3",
"aM c #0089d4",
"eh c #008ad4",
"ai c #008bd5",
"bH c #008bd8",
"aN c #0090df",
"bf c #0091dd",
"eg c #0091e1",
"bW c #0092e2",
"eQ c #0093d9",
"bw c #0093e0",
"eI c #0094e1",
"ed c #0095e6",
"a6 c #0096e2",
"d7 c #009aee",
"eR c #009bef",
"ax c #009ef4",
"cG c #009fed",
"ce c #00a1f5",
"cS c #00a1f6",
"da c #00a2f7",
"dj c #00a2f9",
"#j c #00a3fb",
"dB c #00a4fe",
"co c #00a4ff",
"do c #00a5fe",
".T c #00a5ff",
".S c #00a6ff",
"bv c #00a7fa",
"aR c #00a7fe",
".D c #00a7ff",
".5 c #00a8ff",
"aw c #00a9ff",
"az c #00aaff",
".9 c #00abff",
"#. c #00acff",
"bI c #00adff",
".R c #00aeff",
"c3 c #00afff",
".8 c #00b0ff",
".U c #00b1ff",
".E c #00b2ff",
"cR c #00b3ff",
"ar c #00b4ff",
".Q c #00b5ff",
"#U c #00b6ff",
"en c #00b7ff",
"dY c #00b8ff",
"eU c #00bcff",
"QtQtQtQtQtQtQtQtQtQtQtQtQtQtQtQtQtQtQtQtQtQtQtQtQtQtQtQtQtQtQtQtQtQtQtQtQtQtQtQtQtQtQtQtQt",
"QtQtQtQtQtQtQtQtQtQtQtQtQtQtQtQtQtQtQtQtQtQtQtQtQtQtQtQtQtQtQtQtQtQtQtQtQtQtQtQtQtQtQtQtQt",
"QtQtQtQtQtQtQtQtQtQtQtQtQtQtQtQtQtQtQtQtQtQtQtQtQtQtQtQtQtQtQtQtQtQtQtQtQtQtQtQtQtQtQtQtQt",
"QtQtQtQtQtQtQtQtQtQtQtQtQt.#.a.b.c.dQtQtQtQtQtQtQtQtQtQtQtQtQtQtQtQtQtQtQtQtQtQtQtQtQtQtQt",
"QtQtQtQtQtQtQtQtQtQt.e.f.g.h.i.j.k.l.m.n.eQtQtQtQtQtQtQtQtQtQtQtQtQtQtQtQtQtQtQtQtQtQtQtQt",
"QtQtQtQtQtQtQtQtQt.o.p.j.j.q.r.s.t.j.j.u.v.w.xQtQtQtQtQtQtQtQtQtQtQtQtQtQtQtQtQtQtQtQtQtQt",
"QtQtQtQtQtQtQtQt.y.z.j.A.B.C.D.E.F.G.H.j.j.I.J.K.LQtQtQtQtQtQtQtQtQtQtQtQtQtQtQtQtQtQtQtQt",
"QtQtQtQtQtQtQt.M.N.j.O.P.Q.R.S.T.D.U.V.W.j.X.Y.Z.0.1QtQtQtQtQtQtQtQtQtQtQtQtQtQtQtQtQtQtQt",
"QtQtQtQtQtQtQt.2.J.3.4.Q.D.5.6.7.8.9#.##.k#a#b#c#d#e.N#fQtQtQtQtQtQtQtQtQtQtQtQtQtQtQtQtQt",
"QtQtQtQtQtQtQt#g#h#i.U#j#k#l#m#n#o#p.E#q#r#s#t#u#v.j#w#x#yQtQtQtQtQtQtQtQtQtQtQtQtQtQtQtQt",
"QtQtQtQtQtQt#z#A.j#B.Q#C#D.j.q#E.j#F#G#H#I#a#J#K#L#M#N#O#P#QQtQtQtQtQtQtQtQtQtQtQtQtQtQtQt",
"QtQtQtQtQtQt.2#R#S#T#U#V.k.3#W#X#S#Y#Z#0#1#2#3.4#K#4#5#6.j#7#8QtQtQtQtQtQtQtQtQtQtQtQtQtQt",
"QtQtQtQtQt#9a..ja#aa.6ab.jacadaeafagahai.q#aaj.4.4akalaman.j.u.KaoQtQtQtQtQtQtQtQtQtQtQtQt",
"QtQtQtQtQtap.jaq#Xarasat.jauavawaxayazaAaBaCaD.4.4.4#4aEaFaG.jaHaIaJQtQtQtQtQtQtQtQtQtQtQt",
"QtQtQtQtQtaK.jaLaM.5.5aNaOaPaQ#..S.RaRaS#OaTaU.4.4.4.4#4aVaWaXaY#haZQtQtQtQtQtQtQtQtQtQtQt",
"QtQtQtQtQta0.ja1a2.9.Taza3a4a5a6arawa7a8.qa9b..4.4.4.4.4.4b#babb.qaH.wQtQtQtQtQtQtQtQtQtQt",
"QtQtQtQtQtbcbdaYbe.8.5bfbg.jbhbibjbk#2#Oblbm.4.4.4.4.4.4.4.4bnbobp#dbqbrQtQtQtQtQtQtQtQtQt",
"QtQtQtQtQtbsbt.jbubvawbwbx.j.j.j.ja4bybzbAak.4.4.4.4.4.4.4.4.4#KbBbCbDbEbFQtQtQtQtQtQtQtQt",
"QtQtQtQtQtQtbG.jagbH.5bIbJ.jbK.tbLbMbNbOak.4.4.4.4.4.4.4.4.4.4.4bnbPbQbRbSbTQtQtQtQtQtQtQt",
"QtQtQtQtQtQtbU#O.ObV#..5bW#MbXbYbZajak.4.4.4.4.4.4.4.4.4.4.4.4.4.4#Kb0b1.jaHb2QtQtQtQtQtQt",
"QtQtQtQtQtQtb3#O#Sb4.8.T.5b5aTb6b7b8bn.4.4.4.4.4.4.4.4.4.4.4.4.4.4.4#Kb9c..j#hc##fQtQtQtQt",
"QtQtQtQtQtcacb.jcccdaz.T.DcecfbRcgbgch#4.4.4.4.4.4.4.4.4.4.4.4.4.4.4.4#Kb9cicjckclQtQtQtQt",
"QtQtQtQtQtcm#7bXcnarco.T.T.5cpcqcr.jcsctcu.4.4.4.4.4.4.4.4.4.4.4.4.4.4.4bnbBcvcwaH#AQtQtQt",
"QtQtQtQt#9cxcycz.9.T.T.T.T.T.DbIcAcBcCcDa7.4.4.4.4.4.4.4.4.4.4.4.4.4.4.4.4akakcE.j.hQtQtQt",
"QtQtQtQt#Q.jcFcG.5.T.T.T.T.T.T.S.5cHcIcJcKcL.4.4.4.4.4.4.4.4.4.4.4.4.4.4.4.4b.cM.jcNQtQtQt",
"QtQtQtcOb2cPcQcR.T.T.T.T.T.T.T.T.DcScT.qcUcVcWcu.4.4.4.4.4.4.4.4.4.4.4.4.4.4#KcXcYcZQtQtQt",
"QtQtQtc0c1cPc2c3.T.T.T.T.T.T.T.T.T.5cSc4c5c6c7c8cu.4.4.4.4.4.4.4.4.4.4.4.4.4#KcXcPc9QtQtQt",
"QtQtQtbsd..jd#.8.T.T.T.T.T.T.T.T.T.T.5dadbdcdddedfdg.4.4.4.4.4.4.4.4.4.4.4.4dhdi.jc9QtQtQt",
"QtQtQtcO.K.jcB.8.T.T.T.T.T.T.T.T.T.T.T.5djdkaC.qdl#3ajcu.4.4.4.4.4.4.4.4.4bnbAdm#ScxQtQtQt",
"QtQtQtQtaK.jdn.U.T.T.T.T.T.T.T.T.T.T.T.T.Ddoc8dp#S#idqdrbOajds#4.4.4.4.4bndtdudvdwdxQtQtQt",
"QtQtQtdy.v.jdzdA.S.T.T.T.T.T.T.T.T.T.T.T.T.DdBdCdDcEdEdFdG.tdHdIc8dJaDaD.4dKcCbddLQtQtQtQt",
"QtQtQtdM.jcPdNdO.S.T.T.T.T.T.T.T.T.T.T.T.T.T.S.9.UdPdQcv.j.qdRdSd#dTdUcBdVbKbddWQtQtQtQtQt",
"QtQtQtdX.ua4.HdY.D.T.T.T.T.T.T.T.T.T.T.T.T.T.T.T.TdZd0d1.j.j.j.j.j.j.j.jd2d3dWQtQtQtQtQtQt",
"QtQtQtaJaZd4d5d6d7.8co.T.T.T.5c3c3.5.T.T.T.T.T.T.T.T.9d8.Id9.me.e#cl.m.wea.xQtQtQtQtQtQtQt",
"QtQtQtQt.xeb.jcjbLec.Qco.Sazedeeefeg.D.T.T.T.T.T.T.TbIeheie#Qt.oQtQtQtQtQtQtQtQtQtQtQtQtQt",
"QtQtQtQtejdXekel.jcjemen.5eoepcP.jeq.Eco.T.T.T.T.T.5eresbqetQtQtQtQtQtQtQtQtQtQtQtQtQtQtQt",
"QtQtQtQtQtQtQteuev.jcjewex.Y.j#ObEeyezaw.T.T.T.T.TbIeA#S#eeBQtQtQtQtQtQtQtQtQtQtQtQtQtQtQt",
"QtQtQtQtQtQtQtQt.eeCeD.jcP.j.jeEeFeGeHarco.D.8.R.DeIcseJdMQtQtQtQtQtQtQtQtQtQtQtQtQtQtQtQt",
"QtQtQtQtQtQtQtQtQteKdWc1eLeMeNeO#y.kePeQbIeReSeTeUeVckeWQtQtQtQtQtQtQtQtQtQtQtQtQtQtQtQtQt",
"QtQtQtQtQtQtQtQtQtQtQt#feXaKeYQteZe0e1e2bve3.je4e5e6bSe7QtQtQtQtQtQtQtQtQtQtQtQtQtQtQtQtQt",
"QtQtQtQtQtQtQtQtQtQtQtQtQtQtQtQt#zcb.jbKe8.je0e9.j#Of.f#QtQtQtQtQtQtQtQtQtQtQtQtQtQtQtQtQt",
"QtQtQtQtQtQtQtQtQtQtQtQtQtQtQtQtQtfa.fc9d9c1fbeZfcfdfeeaQtQtQtQtQtQtQtQtQtQtQtQtQtQtQtQtQt",
"QtQtQtQtQtQtQtQtQtQtQtQtQtQtQtQtQtQtQtbUbc.eQtQtejdLfffgQtQtQtQtQtQtQtQtQtQtQtQtQtQtQtQtQt",
"QtQtQtQtQtQtQtQtQtQtQtQtQtQtQtQtQtQtQtQtQtQtQtQtQtQtQtQtQtQtQtQtQtQtQtQtQtQtQtQtQtQtQtQtQt",
"QtQtQtQtQtQtQtQtQtQtQtQtQtQtQtQtQtQtQtQtQtQtQtQtQtQtQtQtQtQtQtQtQtQtQtQtQtQtQtQtQtQtQtQtQt"};
