/* XPM */
static char *dummy[]={
"45 45 448 2",
"Qt c None",
"#i c #000000",
"aW c #000000",
"bM c #000000",
"dJ c #000000",
"e6 c #000000",
"#1 c #000000",
"aI c #000000",
"bj c #000000",
"#Q c #000000",
"d9 c #000000",
"#G c #000000",
".W c #000000",
"ar c #000000",
".L c #000000",
"#P c #000000",
"dx c #000000",
"e1 c #000000",
"e7 c #000000",
"b1 c #000000",
"a6 c #000000",
"c4 c #000000",
".5 c #000000",
".# c #000000",
"aq c #000000",
".x c #000000",
"#x c #000000",
"cy c #000000",
"#F c #000000",
"#a c #000000",
"#0 c #000000",
".m c #000000",
".g c #000000",
".V c #000000",
"cf c #000000",
"dh c #000000",
"c5 c #000000",
"#q c #000000",
"eV c #000000",
"#j c #000000",
"eW c #000000",
"eG c #000000",
".f c #000000",
"a# c #000000",
"ap c #000000",
"an c #000000",
"#Z c #000000",
"bw c #000000",
"ao c #000000",
"eu c #000000",
"bN c #000000",
"#Y c #000000",
"c3 c #000000",
"bi c #000000",
"dK c #000000",
".l c #000000",
"ce c #000000",
"ev c #000000",
".K c #000000",
"e5 c #000000",
".w c #000000",
"e9 c #000000",
"eU c #000000",
"c2 c #000000",
"e0 c #000000",
"bk c #000000",
"eI c #000000",
"eS c #000000",
"am c #000000",
"dS c #000000",
"aJ c #000000",
"eT c #000000",
"ek c #000000",
"e8 c #000000",
".e c #000000",
".a c #000000",
"eJ c #000000",
".b c #000000",
"#R c #000000",
".c c #000000",
".d c #000000",
".4 c #000000",
"e2 c #000000",
"aH c #000000",
"eH c #000000",
"e4 c #000000",
"aV c #000000",
"dy c #000000",
"e. c #000000",
"eX c #000000",
".6 c #000000",
"cM c #000000",
"#H c #000000",
".X c #000000",
"e3 c #000000",
"#b c #000000",
".h c #000000",
"bL c #000000",
"a. c #000000",
"#k c #000000",
".y c #000000",
"dw c #000000",
"c1 c #000000",
".n c #000000",
"el c #000000",
"#w c #000000",
"a7 c #000102",
"#r c #000000",
"#h c #000000",
"cx c #000000",
"#p c #000000",
"a5 c #000000",
"#O c #000000",
".k c #000000",
"#E c #000000",
"al c #000000",
"aG c #000000",
"di c #000000",
"#9 c #000000",
"#X c #000000",
"bx c #000000",
"aa c #000000",
".U c #000000",
"#8 c #000000",
"bv c #000000",
"b0 c #000000",
".v c #000000",
"bh c #000000",
"dI c #000000",
"cd c #000000",
"#4 c #002f48",
".J c #000000",
"cN c #000000",
"eZ c #000000",
"ad c #005f93",
"#2 c #000000",
"#c c #00141f",
"#D c #004e79",
"#d c #005584",
".3 c #000000",
".7 c #00121d",
"#N c #003451",
"#T c #00466c",
"dn c #00b3ff",
"ac c #00334f",
"dD c #004f75",
"#m c #005482",
"#5 c #0072b0",
"eD c #00b0ff",
"az c #00bdff",
"#7 c #000000",
"ay c #001827",
"eP c #004e78",
"aP c #00aaff",
"aF c #000000",
"em c #00090e",
"ed c #00669d",
"eh c #0068a0",
"b6 c #006eaa",
"aO c #0071a4",
"bK c #000000",
"er c #000c12",
"cz c #001d2f",
"dL c #002031",
"de c #002941",
"dA c #005a8d",
"du c #007dbc",
"#3 c #000000",
"ax c #002438",
".S c #004062",
"cO c #006fa3",
"bP c #000000",
"af c #005381",
"dX c #005887",
"b4 c #005b8d",
"aD c #005d8b",
"#M c #006399",
"au c #0068a0",
"#C c #006ba5",
"c6 c #000000",
"bQ c #000406",
"cR c #00090f",
"b2 c #000a10",
"#l c #001724",
"a1 c #001e2e",
"dC c #003d5e",
"dE c #004469",
"eO c #004c75",
"bd c #004e78",
"ec c #004f7a",
"#t c #005584",
"dZ c #005684",
"#J c #005787",
"eg c #005b8c",
"en c #006492",
"b5 c #006ba6",
"cg c #0071a5",
"da c #0071a8",
"#U c #0072b1",
"d. c #007bbe",
"dk c #007dc1",
"a4 c #0091e1",
"do c #00a8ff",
"dm c #00a9ff",
"d7 c #00aeff",
"eC c #00b0ff",
"bO c #000000",
"bc c #000001",
"#S c #00080c",
".Y c #00131d",
"a0 c #001b29",
"at c #00283e",
"dt c #00304b",
"d# c #00324d",
".H c #003653",
"c. c #003755",
"cE c #003a59",
"bR c #003b5c",
"bE c #003e60",
"dN c #004971",
"b8 c #00507b",
".Z c #00517d",
"#o c #00517e",
".8 c #00527f",
"dY c #005786",
"#A c #005787",
".N c #00598a",
"b3 c #005d85",
"cY c #005f94",
"aw c #006197",
"co c #006297",
"bS c #00649b",
".R c #0067a0",
"ae c #006ca8",
"bo c #006eaa",
".0 c #006eab",
"#K c #006fac",
"#B c #006fad",
".C c #0070ae",
"dW c #0085ce",
"aC c #009cf2",
"d1 c #00a6ff",
"c9 c #00a9ff",
"df c #00acff",
".i c #000000",
".j c #000001",
"#y c #000101",
".u c #000102",
".z c #000203",
"cD c #000204",
".o c #000304",
"dP c #000305",
"ew c #000307",
"as c #000405",
"cQ c #000407",
"d5 c #000507",
"ab c #000508",
"bU c #000509",
"ca c #00060a",
"e# c #00060b",
"by c #00070b",
"eY c #00080c",
"cX c #00080e",
".I c #00090d",
"cL c #00090f",
"bl c #000a0f",
"#I c #000b11",
"cn c #000c13",
"dr c #000d13",
"dz c #000d14",
"aN c #000e16",
"ag c #000f18",
".T c #00111a",
"#W c #00131d",
"aK c #00141e",
".M c #00141f",
"aX c #001520",
"a8 c #001724",
"#z c #001925",
"cG c #001926",
"c0 c #001927",
"#s c #001b29",
"dq c #001c2b",
"dc c #001d2c",
"cm c #001e2e",
"b9 c #001f30",
"cU c #001f31",
".A c #002132",
".p c #002234",
"eq c #002235",
"dH c #002337",
"eF c #002437",
"bV c #00253b",
"bb c #00263a",
"ey c #00263b",
"cr c #00273c",
"bz c #00283e",
"ds c #002940",
"bB c #002d46",
".t c #002e47",
"bI c #002e48",
"dd c #00304a",
"bC c #00304b",
"bA c #00314b",
"bD c #00314c",
"c# c #003450",
"bH c #003755",
"ex c #003857",
"ej c #003959",
"bT c #00395a",
".q c #003b5b",
".2 c #003c5d",
".r c #003d5e",
".s c #003e60",
"cK c #003f61",
"br c #004063",
"dO c #004164",
"aE c #004367",
"ak c #004368",
"cw c #00446a",
"aU c #00456b",
"bm c #00456c",
"eR c #00466c",
"aY c #004a73",
"ea c #004c76",
"aM c #004d77",
"bZ c #004e79",
"eb c #004f79",
"dl c #004f7b",
"#g c #00507d",
"cB c #00517c",
"## c #00517d",
"#v c #00517e",
"a9 c #00527f",
"eK c #00537d",
"#6 c #005380",
"cH c #005381",
"cF c #005481",
"eN c #005482",
"eM c #005583",
"ez c #005584",
"cq c #005786",
"dF c #005787",
"#V c #005989",
"ai c #00598a",
"aj c #005c8a",
"aL c #005c8f",
"eL c #005e92",
"dQ c #005f88",
".B c #005f92",
"ah c #00608a",
"b7 c #006193",
"aZ c #006197",
"cW c #006198",
"eQ c #006395",
"cv c #006398",
"ba c #00639a",
"d3 c #00649a",
"es c #006593",
"db c #00659b",
"d0 c #00659c",
"bq c #00659d",
"bG c #00669e",
".G c #00679f",
"#u c #0067a0",
"d6 c #006896",
".9 c #0068a0",
".P c #0068a1",
"cp c #0068a2",
"b. c #0069a1",
"#L c #0069a2",
".1 c #0069a3",
"av c #0069a4",
"dT c #006a9a",
"bF c #006aa3",
".Q c #006aa4",
"b# c #006aa5",
"#f c #006ba5",
"#. c #006ba6",
"dp c #006ba7",
"bp c #006ca7",
".O c #006da8",
".E c #006da9",
".D c #006eaa",
".F c #006fac",
"#e c #0070ad",
"#n c #0071ae",
"cV c #0072af",
"bn c #0075b5",
"cc c #0077b4",
"cj c #0077b7",
"dB c #0078b8",
"cS c #007bb3",
"bu c #007bbf",
"ef c #007fc4",
"ck c #0080c6",
"dg c #0083cb",
"ep c #0084cb",
"cb c #0085c6",
"cP c #0085cd",
"cs c #0086c9",
"bW c #0088cb",
"dM c #0088d1",
"cT c #0088d3",
"cZ c #008ad6",
"cI c #008cd7",
"dG c #008dd8",
"d4 c #0090df",
"bg c #0093e0",
"bJ c #0095de",
"eE c #0096e9",
"ei c #0097e6",
"eo c #0097ea",
"bs c #0098e5",
"cA c #0099eb",
"dv c #0099ec",
"eA c #009aed",
"d2 c #009bef",
"ee c #009bf0",
"d8 c #009cef",
"aT c #009cf0",
"cJ c #009ff7",
"cu c #00a1f9",
"et c #00a4fa",
"dR c #00a4fb",
"dV c #00a4fe",
"c8 c #00a4ff",
"aR c #00a5ff",
"bY c #00a6fb",
"cC c #00a6fd",
"aQ c #00a6ff",
"aS c #00a7ff",
"bf c #00a8ff",
"ci c #00a9ff",
"dj c #00aafe",
"cl c #00aaff",
"bt c #00abff",
"bX c #00acff",
"ct c #00adff",
"be c #00aeff",
"aA c #00afff",
"aB c #00b1ff",
"eB c #00b2ff",
"ch c #00b5ff",
"dU c #00b6ff",
"a3 c #00b7ff",
"a2 c #00baff",
"c7 c #00bbff",
"QtQtQtQtQtQtQtQtQtQtQtQtQtQtQtQtQtQtQtQtQtQtQtQtQtQtQtQtQtQtQtQtQtQtQtQtQtQtQtQtQtQtQtQtQt",
"QtQtQtQtQtQtQtQtQtQtQtQtQtQtQtQtQtQtQtQtQtQtQtQtQtQtQtQtQtQtQtQtQtQtQtQtQtQtQtQtQtQtQtQtQt",
"QtQtQtQtQtQtQtQtQtQtQtQtQtQtQtQtQtQtQtQtQtQtQtQtQtQtQtQtQtQtQtQtQtQtQtQtQtQtQtQtQtQtQtQtQt",
"QtQtQtQtQtQtQtQtQtQtQtQtQtQtQtQtQtQtQtQtQt.#.a.b.c.d.d.e.fQtQtQtQtQtQtQtQtQtQtQtQtQtQtQtQt",
"QtQtQtQtQtQtQtQtQtQtQtQtQtQtQtQtQtQtQtQt.g.h.i.i.i.j.i.i.k.lQtQtQtQtQtQtQtQtQtQtQtQtQtQtQt",
"QtQtQtQtQtQtQtQtQtQtQtQtQtQtQtQtQtQtQt.m.n.o.p.q.r.s.r.t.u.v.wQtQtQtQtQtQtQtQtQtQtQtQtQtQt",
"QtQtQtQtQtQtQtQtQtQtQtQtQtQtQtQtQtQt.x.y.z.A.B.C.D.E.F.G.H.I.J.KQtQtQtQtQtQtQtQtQtQtQtQtQt",
"QtQtQtQtQtQtQtQtQtQtQtQtQtQtQtQtQt.L.h.i.M.N.O.P.P.P.P.Q.R.S.T.U.VQtQtQtQtQtQtQtQtQtQtQtQt",
"QtQtQtQtQtQtQtQtQtQtQtQtQtQtQtQt.W.X.i.Y.Z.0.P.P.P.P.P.P.1.P.2.3.4QtQtQtQtQtQtQtQtQtQtQtQt",
"QtQtQtQtQtQtQtQtQtQtQtQtQtQtQt.5.6.i.7.8.C.9.P.P.P.P.P.P.P#.##.i.yQtQtQtQtQtQtQtQtQtQtQtQt",
"QtQtQtQtQtQtQtQtQtQtQtQtQtQt#a#b.i#c#d#e.9.P.P.P.P.P.P.P.P#f#g.i#h#iQtQtQtQtQtQtQtQtQtQtQt",
"QtQtQtQtQtQtQtQtQtQtQtQtQt#j#k.i#l#m#n.9.P.P.P.P.P.P.P.P.P#.#o.i#p#iQtQtQtQtQtQtQtQtQtQtQt",
"QtQtQtQtQtQtQtQtQtQtQtQt#q#r.i#s#t.F#u.P.P.P.P.P.P.P.P.P.P#.#v.i#wQtQtQtQtQtQtQtQtQtQtQtQt",
"QtQtQtQtQtQtQtQtQtQtQt#x.n#y#z#A#B.9.P.P.P.P.P.P.P.P.P.P.P#C#D.i#E#FQtQtQtQtQtQtQtQtQtQtQt",
"QtQtQtQtQtQtQtQtQtQt#G#H.i#I#J#K.9.P.P.P.P.P.P.P.P.P.P.P#L#M#N.i#O#PQtQtQtQtQtQtQtQtQtQtQt",
"QtQtQtQtQtQtQtQtQt#Q#R.i#S#T#U.9.P.P.P.P.P.P.P.P.P.P.P.P.Q#V#W.i#X#Y#Z#0QtQtQtQtQtQtQtQtQt",
"QtQtQtQtQtQtQtQt#1.w#2#3#4#5.P.P.P.P.P.P.P.P.P.P.P.P.P.P#f#6#y.i#7#8#9a.a#QtQtQtQtQtQtQtQt",
"QtQtQtQtQtQtQtQt#jaaabacad.Q.P.P.P.P.P.P.P.P.P.P.P.P.P.Paeafagahaiajak.ialamanaoapaqQtQtQt",
"QtQtQtQtQtQtQtar#basatau#..P.P.P.P.P.P.P.P.P.P.P.P.P.PavawaxayazaAaBaCaDaEaFaG#XaGaHQtQtQt",
"QtQtQtQtQtQtaIaJ.iaKaL#..P.P.P.P.P.P.P.P.P.P.P.P.P.P.P.QaMaNaOaPaQaRaSaBaTajaU.i.iaVQtQtQt",
"QtQtQtQtQtaWap.vaXaY.D.P.P.P.P.P.P.P.P.P.P.P.P.P.P.P#.aZa0a1a2aRaRaRaRaRaSa3a4#3a5#0QtQtQt",
"QtQtQtQtQta6a7a8a9.Eb..P.P.P.P.P.P.P.P.P.P.P.P.P.Pb#babbbcbdbeaRaRaRaRaRbfbg.qbhbiQtQtQtQt",
"QtQtQtQtbjbkblbmbnbobp.O.F.F.D.P.P.P.P.P.P.P.P.P.Qbq.t.ibrbsaSaRaRaRaRaRbtbu.ibvbwQtQtQtQt",
"QtQtQtQt#FbxbybzbA.tbBbBbCbDbE.0bF.P.P.P.P.P.P.QbGbH.ubIbJbtaRaRaRaRaRaRaSbsakbKbLarQtQtQt",
"QtQtQtbMbN.i.ibObPbQ#7#y.ibObcbRbS#L.P.P.P.P.Q.9bTbUbVbWbXaRaRaRaRaRaRaRaRbtbYbZb0apQtQtQt",
"QtQtQtb1bL.ib2b3b4b5b6.Ob7b8b9.ic..F.P.P.Pbp.Gc#cabVcbbeaRaRaRaRaRaRaRaSaAaSccaEcdceQtQtQt",
"QtQtQtcfaF#WcgchaBcicjckaAclbncmcnco.1#Lcpcqcr.zbDcsbeaRaRaRaRaRaRaQctcucvcwa8.icxcyQtQtQt",
"QtQtar.4.icza2aQcAcBaKcm#uctcCbGcDcE.O.PcFcG.ocHcIctaRaRaRaRaRaRaQcJcjcKcL.icdcM.fQtQtQtQt",
"QtQt.VcN#WcObtcicPcQbOcRcScibXcT.icUcVcWb9cXcYaQclaRaRaRaRaRaRaRcicZc0aFc1c2c3c4QtQtQtQtQt",
"QtQtc5c6crc7c8c9d..id#daaBaScCdb.idc.DddbOdedfaSaRaRaRaRaRaRaRaRcidgcDbKc1dhQtQtQtQtQtQtQt",
"QtQt#adi.pdjaRc9dk.idldmdndodpdq.idrds#ydtdubtaRaRaRaRaRaRaRaRaRaSdvaU.ibOdwb1QtQtQtQtQtQt",
"QtQtdxdydzdAbXaSdB.ia8dCdDdEaN.i.i.i#ydFdGbec8aRaRaRaRaRaRaRaRaRaRaScZdH.idIbiQtQtQtQtQtQt",
"QtQtdJdK.idLc7c8dMatbP.i.i.idNdOdPdQ#ubfclaRaRaRaRaRaRaRaRaRaRaRaRaQdR.FbU.JdSQtQtQtQtQtQt",
"QtQtQtcf.i.TdTdUdVdWdXdYdZd0d1d2d3chctaQaRaRaRaRaRaRaRaRaRaRaRaRaRaRctd4d5#XdhQtQtQtQtQtQt",
"QtQtQt#P.4.icLd6becha2a3d7ctaQaSbeaSclaActc8aRaRaRaRaRaRaRaRaRaRaRcld8.qbKdyQtQtQtQtQtQtQt",
"QtQtQtQtd9e..ie#eaebecedchbfclbecteeefegehchaQaRaRaRaRaRaRaRaRaRcieiej.iaGdhQtQtQtQtQtQtQt",
"QtQtQtQtQtarekel.3.i.iemeneoep.9ea.qeq.zeresclciaRaRaRaRaRaRaQaQetb#.ibveuQtQtQtQtQtQtQtQt",
"QtQtQtQtQtQtQtdhev.a.k.iewexeydz.i.i.i.i.ibUezeAeBbeaAaAaAeCeDeBeEeF#2.bQtQtQtQtQtQtQtQtQt",
"QtQtQtQtQtQtQtQtQtQteGeH.i.i.ibP#haJeIbkeJ#p.zejeKeLeMeNa9eOePeQeR.i#E.5QtQtQtQtQtQtQtQtQt",
"QtQtQtQtQtQtQtQtQtQtQt#1eSeTaJeUeVQtQtQtQteWeX.i.ibU.i.i.i.i.ieY#yeZe0QtQtQtQtQtQtQtQtQtQt",
"QtQtQtQtQtQtQtQtQtQtQtQtQtQtQtQtQtQtQtQtQtQte1aJe2#be3eX.be4.ic6ele5bjQtQtQtQtQtQtQtQtQtQt",
"QtQtQtQtQtQtQtQtQtQtQtQtQtQtQtQtQtQtQtQtQtQtQtQte6#Faqe7Qt#Qe8e9dhQtQtQtQtQtQtQtQtQtQtQtQt",
"QtQtQtQtQtQtQtQtQtQtQtQtQtQtQtQtQtQtQtQtQtQtQtQtQtQtQtQtQtQtQtQtQtQtQtQtQtQtQtQtQtQtQtQtQt",
"QtQtQtQtQtQtQtQtQtQtQtQtQtQtQtQtQtQtQtQtQtQtQtQtQtQtQtQtQtQtQtQtQtQtQtQtQtQtQtQtQtQtQtQtQt",
"QtQtQtQtQtQtQtQtQtQtQtQtQtQtQtQtQtQtQtQtQtQtQtQtQtQtQtQtQtQtQtQtQtQtQtQtQtQtQtQtQtQtQtQtQt"};
