/* XPM */
static char *dummy[]={
"45 45 15 1",
". c None",
"# c #000000",
"g c #158968",
"e c #222a5c",
"d c #2c5b6d",
"c c #341e1a",
"i c #37446e",
"j c #566a89",
"a c #683c34",
"b c #a36d3e",
"f c #cce2e1",
"l c #f4b03c",
"k c #ff8142",
"m c #ffda45",
"h c #ffffff",
".............................................",
".............................................",
".............................................",
".............................................",
"................####.........................",
"...............#abbb#........................",
"...............#bbbbb#.......................",
"...............#bbbbb#.......................",
"...............#bbbbb#.......................",
"...............#cccbb#.......................",
"...............#bbccb####....................",
"...............#ccccbdddd##..................",
"..............#eccccaffddgg#.................",
".............##dcccahfbbgggg#................",
"............#addccabhbbbfggg#................",
"............#adggbbhhbbbbddd#................",
"............#ahgghhhhbbbbddd#................",
".............#hggghhhbbbbddd#................",
".............#fhgghhhfbbbed#.................",
".............#ffgggfffbbbee#.................",
".............#fffggggfbbbee#.................",
".............#ffffgggdbbbe#..................",
".............#iijfffdbbbee#..................",
"............#aiijjjjjbbbe#...................",
"............#kkkkljjjbb##....................",
"............#kkkkllmmbb#.....................",
"............#kkkk#lmmml#.....................",
"............#kkkk#mmmml#.....................",
"............#kkkk#mmmml#.....................",
"............#kkkk#mmmml#.....................",
"............#kkkk#mmmm#......................",
"............#kkkk#mmml#......................",
".............#kkk#lmml#......................",
".............#kkk#lllll#.....................",
".............#kkk##llll#.....................",
".............#kkk##llll#.....................",
".............#kkk#.#fff#.....................",
"............#jjjj#.#fff#.....................",
"............#jjjj#..####.....................",
".............................................",
".............................................",
".............................................",
".............................................",
".............................................",
"............................................."};
