/* XPM */
static char *dummy[]={
"45 45 79 2",
"#f c #000600",
"#e c #000700",
"#g c #000b00",
"#k c #000c00",
"#. c #000d00",
".9 c #000e00",
".8 c #000f00",
"## c #001000",
"#j c #001100",
".3 c #001200",
".2 c #001300",
".4 c #001400",
"#l c #001500",
".1 c #001600",
"#m c #001700",
"#d c #001800",
".5 c #001900",
".7 c #001a00",
"#b c #001b00",
".0 c #001c00",
".6 c #001d00",
"#i c #001e00",
".U c #001f00",
".T c #002000",
".G c #002100",
".S c #002200",
".Z c #002300",
".V c #002400",
".F c #002500",
".C c #002600",
".B c #002700",
".D c #002800",
".A c #002900",
".v c #002a00",
".E c #002b00",
".z c #002c00",
"#a c #002d00",
".H c #002e00",
".w c #002f00",
".y c #003000",
".I c #003100",
".Q c #003200",
"#h c #003300",
"#c c #003400",
".q c #003500",
".r c #003600",
".R c #003700",
".p c #003800",
".W c #003900",
".s c #003a00",
".J c #003b00",
".Y c #003c00",
".X c #003d00",
".o c #003e00",
".O c #003f00",
".N c #004000",
".M c #004100",
".e c #004200",
".f c #004300",
".d c #004400",
".L c #004500",
".g c #004600",
".n c #004700",
".x c #004800",
".c c #004900",
"Qt c #004a00",
".# c #004b00",
".a c #004c00",
".b c #004d00",
".m c #004e00",
".t c #004f00",
".P c #005000",
".h c #005100",
".l c #005200",
".u c #005300",
".i c #005400",
".j c #005500",
".k c #005600",
".K c #005700",
"QtQt.#.a.b.b.b.a.c.d.e.f.g.#.b.h.i.j.k.k.j.i.i.l.h.h.m.aQt.c.n.g.f.o.p.q.q.r.s.o.e.n.#.t.u",
".v.w.q.s.o.f.g.x.cQt.cQt.a.t.c.y.z.A.B.C.D.v.z.z.E.v.D.F.G.G.B.z.w.H.H.I.q.J.e.x.t.u.k.K.K",
".x.x.n.L.f.M.N.O.O.O.M.f.M.dQt.b.P.i.i.i.i.u.u.l.h.P.P.tQt.g.e.J.p.q.Q.w.w.Q.R.J.N.g.b.u.k",
".v.F.S.T.U.T.V.B.A.z.Q.r.W.J.X.Y.X.o.N.M.M.e.N.o.s.p.W.s.W.Q.E.Z.0.1.2.2.3.3.3.4.5.v.R.N.x",
".D.v.y.y.w.H.E.B.Z.U.6.U.Z.y.O.a.i.k.j.l.tQt.f.s.I.D.T.7.4.8.9#..9##.3.1.0.V.v.I.W.eQt.h.j",
".r#a.F.T.6#b.0.T.F.z.q.N.#.h.i.i.i.i.j.k.k.K.k.k.k.k.k.k.k.j.j.j.j.i.i.i.j.j.j.j.j.j.k.k.K",
".R.r.W.Y.o.o.J.s.r.y.E.A.z.H.I.r.J.O.LQt.t.u.i.l.mQt.L.N.X.W.q.Q.y.w.H.z.A.F.6.6.T.C.H.q.o",
".z.E.z.w.y#c.r.p.s.J.o.o.r.E.H.Q.R.Y.N.LQt.m.l.i.i.i.i.u.h.m.a.x.f.Y.H.C.S.B.B.D#a#c.J.f.#",
".a.x.L.e.Y#c.E.U.0.6.S.A.I.R.O.g.a.h.i.k.K.K.K.K.K.k.j.u.t.#.g.N#c.v.T#d###e#f#g.3.5.S.H.W",
".k.j.j.i.u.u.u.l.h.h.t.b.#QtQt.#.a.m.l.i.k.K.k.j.i.u.h.b.c.g.f.N.o.s#a.v.D.A.z.y#h.q.p.Y.f",
".t.x.M.J.q.w#a.z#a.y.r.W.R.r.R.W.Y.f.#.h.k.K.K.K.K.K.K.K.j.h.b.x.g.d.f.L.c.a.m.h.u.j.k.K.k",
".W.W.p.p.R.R.p.W.s.J.Y.o.O.N.M.f.L.n.x.L.N.O.O.M.e.e.o.R.H.D.V.G.T.U.G.V.D.H#c.W.O.f.n.n.x",
".k.l.t.P.h.P.t.b.#.x.g.f.f.M.N.O.e.a.a.#Qt.cQt.a.t.l.j.k.K.k.k.k.k.i.m.x.n.g.L.L.g.g.n.c.a",
".h.b.#.g.O.p.Q.z.A.B.A.v#a.Q.p.Y.O.N.O.O.O.N.e.d.n.x.x.c.c.n.e.Y#h.v.V.S.V.F.D.B.C.V.V.C.D",
".K.K.k.i.h.bQt.L.N.J.q.w.E.D.C.F.F.B.A.E#a.I.r.W.Y.O.O.e.L.x.c.n.g.d.e.M.N.X.N.N.e.d.nQt.m",
".K.K.k.u.mQtQt.a.b.t.P.P.t.b.c.L.N.W.y.D.S.U#i.S.H.XQt.l.i.u.P.a.x.M.Y.W#c.y.v.C.V.S.T#i.6",
".K.K.K.K.K.K.k.i.hQt.f.W.w.B.G.U.6.6.G.F.z.q.N.#.h.i.u.l.P.m.a.c.g.f.o.Y.s.W.s.Y.o.N.M.o.J",
".b.t.h.u.j.k.k.K.j.h.a.x.L.g.g.L.e.X.s.R.y.E.A.z.H.I.r.J.o.f.nQt.m.m.a.c.n.g.g.n.x.x.n.L.e",
".N.M.N.N.M.L.c.b.m.bQt.g.d.e.M.N.N.O.O.o.o.O.o.r.E.H.Q.R.Y.N.d.c.b.P.P.m.c.e.R.z.S.U#b.7#b",
".#.m.l.i.k.k.k.K.K.K.u.b.c.g.e.Y#c.E.U.0.6.S.A.I.R.O.g.a.P.l.u.u.h.m.#.x.L.M.Y.R.Q.w.G.6#b",
".a.#.c.g.f.N.M.f.L.c.m.u.i.j.i.u.u.u.l.h.h.t.b.#QtQt.#.a.m.l.i.j.j.l.mQt.g.f.N.N.o.O.O.M.f",
".J.O.f.n.#.b.P.u.k.k.j.l.c.e.J.q.w#a.z#a.y.r.W.R.r.R.W.Y.f.#.l.k.K.K.K.K.K.K.k.l.c.X.y.C#i",
"#h.s.e.x.#.b.b.aQt.c.g.f.O.J.W.R.R.p.W.s.J.Y.o.O.N.M.f.L.n.n.d.N.O.e.LQt.b.a.N#c.z.F.V.F.E",
".J.O.d.x.a.t.l.i.j.j.m.P.m.b.t.h.P.t.b.#.x.g.f.e.M.N.O.e.a.aQt.c.c.c.#.b.t.P.P.h.t.bQt.g.N",
".0#b.0.T.Z.D.z.Q.p.o.d.c.#Qt.g.O.p.Q.z.A.B.A.v#a.Q.R.Y.O.N.O.O.O.e.g.#.t.l.u.l.m.x.e.Y.p.R",
".k.k.k.k.K.K.K.K.K.K.K.K.K.k.i.h.bQt.L.N.J.q.w.E.B.F.V.F.B.A.E#a.Q.R.Y.M.d.g.c.a.m.m.t.P.h",
".K.K.K.K.K.K.K.K.K.K.K.K.K.k.u.mQtQt.a.b.t.P.P.t.b.c.L.O.p.w.B.G.U.U.F.Q.N.c.a.#.c.x.c.#.m",
".K.K.K.K.K.K.K.K.K.K.K.K.K.K.K.K.K.k.i.PQt.M.p.H.C.G.U.6#i.S.C.H.r.e.a.l.i.i.i.i.j.j.u.h.a",
".y.q.s.f.c.a.t.l.i.j.K.K.K.K.K.K.K.K.K.j.P.#.x.L.g.L.L.M.X.s.r.w.v.D.z.H.Q.r.J.N.LQt.m.m.x",
".P.l.u.i.j.k.k.K.K.K.K.K.K.K.K.K.K.K.k.u.tQt.n.d.e.e.M.M.N.N.o.o.N.o#c.E.H#h.p.Y.M.gQt.t.l",
".0.T.C.w.W.N.N.d.d.nQt.b.t.h.u.j.k.k.K.K.k.l.a.x.L.M.J#h.v#i.0#i.Z.v.Q.W.N.n.b.l.j.k.K.K.K",
".k.k.j.i.i.u.P.m.c.g.f.M.M.N.N.M.L.c.m.l.j.K.k.j.i.i.u.u.u.l.h.h.t.b.#.#Qt.#.a.t.l.j.k.K.K",
".K.K.P.o.y#a.Q.s.N.L.x.#.m.l.i.k.k.k.K.K.k.i.h.x.M.s#c.H.z.z#a.w#c#h.y#a#a#a.y.p.f.#.P.h.m",
".o.X.o.N.d.x.#.m.P.t.m.b.#.c.g.f.N.O.O.o.o.O.O.O.J.W.p.p.W.s.J.Y.X.o.o.o.X.o.o.O.O.X.Y.X.O",
".d.n.L.e.J.q.I.w.y.Q.r.J.O.f.n.#.b.P.u.k.K.k.k.h.t.P.P.P.m.bQt.x.g.f.d.f.f.fQt.j.k.j.h.#.N",
".k.k.m.g.O.p.Q.w#a#a.H#h.s.e.x.#.b.m.P.u.i.u.h.bQt.g.O.p.I.z.v.D.A.D.A.z.H.H.H.E.v.E.v.A.E",
".L.o.r.z.V.6.7.G.z.Q.r.J.O.d.x.a.t.l.i.j.j.m.h.u.i.l.h.b.c.d.O.s.q.y.w.w.I.r.s.O.f.L.g.d.e",
".K.K.k.i.PQt.e.p.H.F.U.0#b.0.T.Z.D.z.Q.p.o.g.t.j.j.l.b.#Qt.a.m.t.b.c.f.o.p.y.F.6.5.4#j.8.8",
".l.l.l.u.i.j.k.K.K.k.k.k.k.k.k.K.K.K.K.K.K.K.K.K.K.K.K.k.j.u.P.#.d.J.I.D.T.7.2.8#.#k#k#k##",
"#i.6.U.V.z.q.N.b.i.k.k.k.j.u.h.m.#QtQt.m.h.i.k.K.K.K.K.k.j.i.l.P.m.aQt.c.n.g.L.d.f.f.e.e.M",
".x.f.o.s.p.R.J.g.a.h.j.k.k.j.u.l.t.m.b.aQtQtQt.#.a.b.m.t.l.l.l.h.h.P.m.#.n.e.X.W.r#h.y.y.w",
".f.o.W#c.y#a.v.A.v.E#a.y#c.p.O.f.d.g.n.x.x.n.L.N.J.p.q.q.R.s.o.f.x.b.l.i.k.k.k.j.i.l.t.#.M",
".K.k.i.l.t.b.a.a.a.b.b.b.a.c.n.d.o.W.Q#a.z.A.B.B.E#h.X.g.m.u.k.k.K.k.k.k.i.l.P.a.n.O#c.A#b",
".b.O#c.A.F.S.U#i.6#b#b.0.U.V.z#c.O.x.t.u.u.i.u.l.h.t.t.P.h.l.i.j.j.j.i.u.tQt.f.X.R.Q#a.B#i",
".K.K.K.K.K.K.K.K.K.K.k.u.b.x.e.X.r.E.G.6#d.4.2.3.3.2#l#m.5.0.D#c.o.n.t.i.K.K.k.i.l.h.t.m.b"};
