/* XPM */
static char *dummy[]={
"45 45 239 2",
"Qt c None",
".d c None",
".z c #520b9a",
".u c #520b9a",
".# c #520b9a",
".e c #520b9a",
"#W c #520b9a",
".V c #520b9a",
"#y c #520b9a",
".c c #520b9a",
".F c #520b9a",
".1 c #520b9a",
".k c #520b9a",
"#Q c #520b9a",
".0 c #520b9a",
".t c #520b9a",
"#R c #520b9a",
".v c #520b9a",
"ag c #520b9a",
".y c #520b9a",
".a c #520b9a",
"ae c #520b9a",
"#c c #520b9a",
".q c #520b9a",
".p c #520b9a",
"av c #520b9a",
"#w c #520b9a",
".b c #520b9a",
"#g c #520b9a",
"aG c #520b9a",
"#9 c #520b9a",
"#M c #520b9a",
"bu c #520b9a",
".3 c #520b9a",
"ai c #520b9a",
"#N c #520b9a",
"#G c #520b9a",
"ab c #520b9a",
".P c #520b9a",
"a. c #520b9a",
".T c #520b9a",
".L c #520b9a",
".s c #520b9a",
"a3 c #520b9a",
"bl c #520b9a",
".2 c #520b9a",
".r c #520b9a",
"#O c #520b9a",
".Q c #520b9a",
".U c #520b9a",
".w c #520b9a",
"br c #520b9a",
"a2 c #520b9a",
".G c #520b9a",
"#P c #520b9a",
"aL c #520b9a",
"aX c #520b9a",
".x c #520b9a",
".f c #520b9a",
"aw c #520b9a",
"#3 c #520b9a",
"al c #520b9a",
".4 c #520b9a",
"aj c #520b9a",
"am c #520b9a",
"bt c #520b9a",
"#5 c #520b9a",
"## c #520b9a",
"#t c #520b9a",
"bA c #520b9a",
"#u c #520b9a",
"a4 c #520b9a",
"a7 c #520b9a",
"bM c #520b9a",
"aa c #520b9a",
"#S c #520b9a",
"#4 c #520b9a",
"bm c #520b9a",
"#H c #520b9a",
"#p c #520b9a",
"#Z c #520b9a",
"a9 c #520b9a",
"bc c #520b9a",
"#L c #520b9a",
"bO c #520b9a",
"#x c #520b9a",
"b# c #520b9a",
"bi c #520b9a",
"at c #520b9a",
"a6 c #520b9a",
"aH c #520b9a",
"#a c #520b9a",
"aF c #520b9a",
"#D c #520b9a",
"#z c #520b9a",
"#K c #520b9a",
"by c #520b9a",
"ah c #520b9a",
"bL c #520b9a",
"#T c #520b9a",
"aM c #520b9a",
"#0 c #520b9a",
"#8 c #520b9a",
"#d c #520b9a",
"bq c #520b9a",
"bs c #520b9a",
"bS c #520b9a",
"#k c #520b9a",
"#q c #520b9a",
"#6 c #520b9a",
"#i c #520b9a",
"aK c #520b9a",
"bN c #520b9a",
"#v c #520b9a",
"#h c #520b9a",
".S c #520b9a",
"aZ c #520b9a",
"bk c #520b9a",
".l c #520b9a",
"a8 c #520b9a",
".R c #520b9a",
".7 c #520b9a",
"bC c #520b9a",
"ax c #520b9a",
".o c #520b9a",
"bP c #520b9a",
"a1 c #520b9a",
"aq c #520b9a",
"bR c #520b9a",
"af c #520b9a",
".E c #520b9a",
"bb c #520b9a",
"bd c #520b9a",
".j c #520b9a",
"#2 c #520b9a",
".A c #520b9a",
"aS c #520b9a",
"#m c #520b9a",
"a0 c #520b9a",
"bp c #520b9a",
"bj c #520b9a",
"#F c #520b9a",
"a# c #520b9a",
".K c #520b9a",
"bn c #520b9a",
"ay c #520b9a",
".W c #520b9a",
"bH c #520b9a",
"az c #520b9a",
"aP c #520b9a",
"#n c #520b9a",
"ak c #520b9a",
"bz c #520b9a",
".g c #520b9a",
".9 c #520b9a",
"#b c #520b9a",
"aA c #520b9a",
"bB c #520b9a",
".H c #520b9a",
"bG c #520b9a",
"as c #520b9a",
"#j c #520b9a",
"#f c #520b9a",
"bw c #520b9a",
"bE c #520b9a",
"aD c #520b9a",
"#E c #520b9a",
"#Y c #520b9a",
"bh c #520b9a",
"#l c #520b9a",
"ap c #520b9a",
"aI c #520b9a",
"ar c #520b9a",
"aU c #520b9a",
"aO c #520b9a",
"aW c #520b9a",
"aC c #520b9a",
"bF c #520b9a",
"ba c #520b9a",
"be c #520b9a",
"#C c #520b9a",
"#U c #520b9a",
"#I c #520b9a",
"bo c #520b9a",
"an c #520b9a",
"#7 c #520b9a",
"#A c #520b9a",
"aJ c #520b9a",
".n c #520b9a",
"b. c #520b9a",
".m c #520b9a",
"aT c #520b9a",
".i c #520b9a",
".h c #520b9a",
"#e c #520b9a",
"#V c #520b9a",
"au c #520b9a",
"bD c #520b9a",
"aY c #520b9a",
".J c #520b9a",
"bK c #520b9a",
".O c #520b9a",
"bx c #520b9a",
".I c #520b9a",
"bI c #520b9a",
"#X c #520b9a",
".8 c #520b9a",
"ac c #520b9a",
"#1 c #520b9a",
"ad c #520b9a",
"bQ c #520b9a",
".Z c #520b9a",
"aV c #520b9a",
"ao c #520b9a",
"bv c #520b9a",
"a5 c #520b9a",
"#B c #520b9a",
"#o c #520b9a",
".6 c #520b9a",
".M c #520b9a",
".X c #520b9a",
"#. c #520b9a",
".Y c #520b9a",
"bf c #520b9a",
"aR c #520b9a",
"bg c #520b9a",
".5 c #520b9a",
"aB c #520b9a",
"aQ c #520b9a",
".D c #520b9a",
"#J c #520b9a",
"#r c #520b9a",
"#s c #520b9a",
".B c #520b9a",
"bJ c #520b9a",
"aE c #520b9a",
".C c #520b9a",
".N c #520b9a",
"aN c #520b9a",
"QtQtQtQt.#.a.b.c.d.d.d.d.d.e.f.g.h.i.j.bQtQtQtQtQtQtQtQtQtQtQtQtQtQtQtQtQtQtQtQtQtQtQtQtQt",
"QtQtQt.k.l.m.n.o.pQtQtQt.d.d.#.q.r.s.t.d.d.d.d.d.d.d.u.v.w.x.y.z.d.d.d.dQtQtQtQtQtQtQtQtQt",
"QtQt.e.A.B.C.C.D.E.kQtQt.d.d.d.d.u.F.c.z.d.d.d.d.d.d.G.H.I.J.K.r.u.d.d.dQtQtQtQtQtQtQtQtQt",
"QtQt.L.M.N.N.N.C.O.PQtQtQtQtQt.u.Q.R.S.T.U.zQtQtQt.V.W.X.Y.Y.Z.R.0.d.d.d.d.d.d.1.2.3.e.dQt",
"QtQt.4.5.N.N.N.N.6.2QtQtQtQtQt.k.7.Z.8.9#.##Qt.F#a.p.i#..Y.Y#.#b#c.d.d.d.d.d.V#d#e#f.Q.dQt",
"QtQt.P.I.C.N.N.N.n.vQtQtQtQt.F#g#h.8.Z#i#j.aQt.k#k.t#l.X.Y.Y.M#m.tQtQtQtQtQt.a#n#o.O#p.zQt",
"QtQt.c#q.Z#r#s.8#tQtQtQtQtQt#u#v#w#x###y.d.d.d.d.d.z#z#A#B.M#C#u.#QtQtQtQtQt.F#D#E#F#GQtQt",
"QtQtQt.v#H#I#J#K.u.t#L.##M.2#yQtQt.uQtQt#N#OQtQtQtQt.t#u.S#h#P#yQtQtQtQtQtQtQt#Q#G#c.uQtQt",
".1#RQtQt.u#S#j.vQt.y#T#O#U#V#a.zQtQtQt#W.8#X.#.d.d.d.d.dQtQtQtQtQt.e##.uQtQt.F.h#YQtQt.1.u",
"#Z#0QtQtQtQtQtQtQtQtQt#Z#1.6#2.u.##NQtQt#3#4.d.d.d.d.d.dQtQtQtQtQt#5.Y#zQtQt#6#7#jQtQt#8#9",
"QtQtQtQtQtQta..sQtQtQt.La#.g.fQt#2.MaaQtQtQtQtQtQtQtQtQt.cabQtQtQt.qac.GQt.z#z.1.eQtQtQtQt",
"QtQtQtQtQt.Vad.J.#QtQt.#.aae.uQt.2.o.tQt.d.d.u.z.d.d.d.d.LafQtQtQtQtag.zQtQtQt.z#9.uQtQtQt",
"QtQt.#.3Qt.z#Daf#z.L.uQtQtQtQtQtQtQtQtQt.u.wah.U.u.d.d.dQt#W.t.0.eQtai#H.zQtQtaj.6#vQtQtQt",
"QtQtak.Malaman.6aoapalQt.d.d.d.d.daqar.v#N#l.5#U#wQtQtQt.p.Sas#nat.vau.Xav.cQtai#jawQtQtQt",
"QtQt#Pax.3ay.6.M.X.6az.1.d.d.d.d.daAad.qa.#AaBaC#wQtQt.qaD#saE.B.8aFaGaH.i.HQtQtQtQtQtQtQt",
"QtQtQtQt#GaI.Y.M.X.YaJ.aaHaw.d.d.d.e#Q.d.F#uaKaL.#Qt.uaM.D.N.NaN.CaO.t#WasafQtQtQt.yai.1Qt",
"QtQtQtQt#waP.X.YaQaR#b#W.t#W.d.d.d.d.t.VQtQtQtQtQtQt#yaS#s.N.N.N.NaT.tQtQtQtQtQt.va#apaF.z",
"QtQtQtQt#WaaaUacaVaWaXQtQtQtQtQtQt.eaYay.zQtQtQtQtQt#WaZaB.NaNaN.Ca0#W.aQtQtQtQtaXadaR.g.e",
"QtQtQtQtQt.FaL#D#a.2.#QtQtQt.z#yQt.#aCa1QtQtQt.s#GQtQta2aCaQ.C.N.maGa3.Ra4#LQtQt#M.9#1#z.z",
"QtQtQtQtQtQt.z.e.#.zQtQtQt#Q#j#1.k#W#O#0aF#G.va5aJa6#x#pa7.7ay.laiQtQtQtag.aQtQt.uai.2.kQt",
".eQtQtQtQtQtQtQtQtQtQtQt.ca8aRaB#OaF.O.6.Z#l.G.l#8#y#W#3#R.c.kav.0QtQtQtQtQtQtQtQtQtQtQtQt",
"#RQtQtQtQtQtQt.za9.LQtQt#gaC.6b.b#ba#J.Y.X#obb.cQtQtQtQtQtQt#W#VaI.zQtQtQtQtQtQt.##ibcQtQt",
".kQtQtQtQtQtQtaG.MaDQtQtbdafbe.E#H#V.Mbfbg.Mbh#wbi.aQt.u.tQt.zbjbkQtQtQtQtQtQtQt.pa5aWQtQt",
"QtQtQtaH#WQtQt.u#Ha3QtQt#Navbl#c#G#Y.6.X.D.X.7bm#..AQtbn.Z.bQtQtQtQtQtQtbk.0QtQtQt.q.kQtQt",
"QtQtQt#v.cQtQtQtQtQtQtQtQtQtQtQt.Vb#aU#X.8.H#N#yaF#yQt.7boaeQtQt.zQtQtQt.f.#QtQtQtQtQtQtQt",
"QtQtQtQt.c#w.y.#.La0.3QtQtQtQtQtQt.1.ra6#..m.zQtQtQtQtQtQt.u.2#vbpbqab.#QtQtQtQtQtbr#ealQt",
"QtQt.ubr.KaW.W##bs#.#DQtQtQtQtQtQtQtQt.zaHbtQtQtQtQtQtQtQtbu#jbv.MaVa##gQtQtQtQtQt#p.Y#KQt",
"QtQtaibw#..Dbfbaa3#3.#QtQtQtQtQt.#.c.eQtQtQtQtQtQt.zbibuQtah#B.X.M.5aY##.z.ubn#TQt.##g.uQt",
"Qt.z#4bxbf.C#s#BbyQtQtQtQt.zQt.Vb#.oaa.VQtQtQtQtQt.r#sbzQtaZ#J.Y.X.Y.8#H.z.0#1asQtQtQtQtQt",
"Qt.u#Zbx.YaBaR.M#KQtQt.z#9bAab#N.ia5bBag.u#z.uQtQt.V#ha.Qt#uaY#..X#.arbl.#.za..yQtQtQtQtQt",
"QtQtblar.XbfaR#e.PQtQtavbn.Z#ja2#U#o.W.t.#bC.#QtQtQtQtQtQt.t#daCbDbhbc#p.lbt.eQtQtQtQt.zae",
"QtQt#ya7bzanbE#4.#Qt.sbaarbvbD.sa2atai#R##aha2.FQtQt#O#2#wQt.c#M.s#c.2bF.6#Y#gQtQtQtQtavbG",
"QtQtQt.eaGa3#g.eQtQt.z#R#zbH#0.c.z.u.q.j#X.6.i#8#QQtbC#.#HQtQtQtQtQt.L#Ya5.H.aQtQtQtQtQtQt",
"QtQtQtQtQtQtQtQtQtQtQtbl.x.a#yQtQtQt#xad.X.X.M.O#HQt.Fal.#QtQtQtQtQt#W.Uat#gQtQtQtQtQtQtQt",
"QtQtQtQtQtQtQtQtQtQt.ka5bIQtQta9#OQt.l.M.Y.YbfaEaOQtQtQtQtQtQtQtQtQtQtQtQtQtQtQtQtQtQtQtQt",
"QtQtQtQtQtQt.Q.kQtQt.u#zahQtQta3#cQt#Dad.XbJ#JbK#3.0.zQt.Fa.#uaL#RQt.d.dQtQtQtQtQtQtQtQtQt",
"QtQtQtQtQtQt#hbuQtQtQtQtQtQtQtQtQtQtbu.KbxbJ.6#q#Q.7.p.0aMb.adb..l#R.d.dQtQtQtQtQtQtQtQtQt",
"QtQtQtQtQt#yalbLbm#RQt.FbsaiQtQtaU.0.#abat#kbM.vQtQt.z#P#V#s.Y#.bKaa.d.d.d.d.d.d.d.a.w#c.z",
"QtQtQtQt.VbN#X.6#Xaf.b#O#.aPQtQt.b.zQt.z.##W#w.zQtQt.u#x.8.Y.Y.Y#.aK.d.d.d.d.d.d.taAbx.E.t",
"QtQtQtQt.xbI.X.XaR.8bO.V#L#yQtQtQtQtQtQtQt#z#oa9QtQt.zbt.i#..Y.Yao#p.d.d.d.d.d.d.T.J.6#E#c",
"QtQtQtQt#z.X#.#..C.B#6.VQtQtQtQtQtQt.t.eQtamar.QQtQtQt.pbPbD.6bQa#.a.d.d.d.d.d.d#R.laA#K.c",
"QtQtQtQtbA#XaR.XaQaoat.uQt.k.Qa3.e.FbxbRQtQtQtQtQtQtQt.u.pbc#ib##w.z.d.dQt.z.uQt.z.tav.FQt",
"QtQtQtQt.tbC#ebQbx#2avQt#ybS.Ibeaw.FanaZQtQtQtQtQtQtQtQtQtQtQtQtQtQtQtQt.F#a#L#R.d.d.d.dQt",
"QtQtQtQtQt.qbm#T#L.pQtQt#Rbj.B.8#x.zQtQtQtQtQtQtQtQtQtQtQt.d.d.d.d.d.d.z#k.MaY#H.d.d.d.dQt",
"QtQtQtQtQtQt.##W.uQtQtQt.Vbm#EbR#MQtQtQtQtQtQt#WblQtQtQtQt.d.d.d.d.d.d.zaZbQaY#4.d.d.d.dQt"};
