<?xml version="1.0" encoding="utf-8"?>
<!-- Generator: Adobe Illustrator 27.1.1, SVG Export Plug-In . SVG Version: 6.00 Build 0)  -->
<svg version="1.1" id="Layer_1" xmlns="http://www.w3.org/2000/svg" xmlns:xlink="http://www.w3.org/1999/xlink" x="0px" y="0px"
	 viewBox="0 0 145 28" style="enable-background:new 0 0 145 28;" xml:space="preserve">
<style type="text/css">
	.st0{fill:#DB3333;}
	.st1{font-family:'FiraCode-SemiBold';}
	.st2{font-size:12.616px;}
</style>
<path class="st0" d="M0.1,0h144.8c0.1,0,0.1,0,0.1,0.1v27.8c0,0.1,0,0.1-0.1,0.1H0.1C0,28.1,0,28,0,28L0.1,0C0,0.1,0,0,0.1,0z"/>
<line x1="0" y1="28" x2="0" y2="28"/>
<g>
	<path d="M18.7,9.7H11c-1.9,0-3.4,1.5-3.4,3.4v7.7c0,1.9,1.5,3.4,3.4,3.4h7.7c1.9,0,3.4-1.5,3.4-3.4v-7.7
		C22.1,11.2,20.6,9.7,18.7,9.7z M15.7,18.2v2.9c0,0.4-0.3,0.8-0.8,0.8h-0.1c-0.4,0-0.8-0.3-0.8-0.8v-2.9c-1.1-0.3-1.9-1.3-1.9-2.5
		c0-1.5,1.2-2.7,2.7-2.7c1.5,0,2.7,1.2,2.7,2.7C17.5,16.8,16.7,17.8,15.7,18.2z"/>
	<path d="M14.9,3.8c-4.9,0-4.4,6.7-4.4,6.7h1c0,0-0.4-5.9,3.3-5.9s3.2,5.9,3.2,5.9h1C19.2,10.5,19.9,3.8,14.9,3.8z"/>
</g>
<text transform="matrix(1.2 0 0 1 31.9316 20.4854)" class="st1 st2">Project Locked</text>
</svg>
